<svg xmlns="http://www.w3.org/2000/svg" width="1024" height="1024"><path fill="none" d="M1023-1v1024H-1V-1h1024ZM484 224c.005 3.096 3.127 18.39-.5 20l-115-1c-5.846-22.187 10.027-75.191-24-80-37.516-5.302-34.501 46.104-34.5 70l-14 11c-33.076 2.538-68.159-5.639-78 36.5l1 175.5c-.105 4.637-.919 9.569-1 14-15.266-33.323-24.307-70.452-39-104.5-6.052-14.024-13.495-27.911-20.5-41.5-58.003 49.498-78.864 120.729-76.5 195.5.612 19.351 4.725 41.932 7 58 8.22 58.06 14.564 121.474 61 162.5-.904 33.484 9.621 51.921 42.5 62h383l17.5 15.5-475.5.5c-4.81 2.823-3.894 4.902 0 8h488c14.209 10.749 30.853 17.66 47 25-28.57 2.676-62.056-4.453-90-1-4.02.497-16.97 3.239-8 8 5.855 3.108 66.548-1.134 79-1 42.069.453 83.159.489 125 0 37.587-.439 75.365.774 113 0 3.267-2.549 3.432-4.329 0-7l-95.5-.5c17.546-5.05 31.827-15.731 47.5-24.5h112c12.47-8.841-19.554-7.748-26-8-25.79-1.007-51.782.48-77.5 1.5 71.626-57.481 96.773-164.127 45-243.5 10.143-6.795 22.925-18.915 31-28.5 30.532-36.243 33.942-77.015 14-120-24.037-51.811-71.658-137.728-120-167.5-19.938-12.279-21.974-13.867-46-15l-40-22c-1.045-18.777 2.227-44.597-17.5-55-15.778-8.321-34.243 1.501-38.5 18-43.158-13.937-90.621-17.623-136-20-3.695-.194-7.788-.881-11-1-28.064-1.044-57.566 2.296-85.5 8-19.323 3.946-41.077 9.452-57.5 20.5L484 224ZM110.5 847c-7.507.356-36.244-1.277-23 10l120-1c4.281-3.225 2.739-5.988-1-9-31.951 2.152-64.041-1.514-96 0Zm231 0c-9.813.141-70.533-.292-74 1-1.693.631-3.057 3.578-2.5 5.5.859 3.56 11.01 4.295 14.5 4.5 18.495 1.088 42.019-2.077 61-2 19.709.08 73.659 4.965 89 1 5.435-1.405 5.964-6.993 1-10-29.658.318-59.346-.427-89 0Z"/><path fill="#70B8B6" d="M513 164c-31.932 5.634-29.044 34.818-29 60l-114-31.5c16.423-11.048 38.177-16.554 57.5-20.5 27.934-5.704 57.436-9.044 85.5-8Z"/><path fill="#AB3E27" d="M484 224c-.044-25.182-2.932-54.366 29-60 3.212.119 7.305.806 11 1 23.234 16.54 16.815 46.953 18 72-.259-.031-3.761 1.484-5 1.5 4.284 7.702 8.566 5.044 16 5.5 34.401 2.109 70.87-1.575 105.5 0 3.129-17.54-2.829-42.223 1.5-59 4.257-16.499 22.722-26.321 38.5-18 19.727 10.403 16.455 36.223 17.5 55 .409 7.342-.854 14.791 1.5 22 12.792.445 25.735-.602 38.5 0 24.026 1.133 26.062 2.721 46 15 3.027 8.687 6.094 16.193 7 25.5 2.463 25.305-.113 58.193 0 84.5l-10 1H228.5l-1.5 9c-1.625.285-6.201-.628-7 .5-2.212 3.121-.773 66.515-1 76.5l-1-175.5c9.841-42.139 44.924-33.962 78-36.5 4.438-.34 9.035.245 13.5 0 3.54-1.571.5-8.836.5-11-.001-23.896-3.016-75.302 34.5-70 34.027 4.809 18.154 57.813 24 80l115 1c3.627-1.61.505-16.904.5-20Zm-146.5-51c-21.829 2.446-15.081 49.032-15.5 64.5-.07 2.595.016 6.372 0 10-.062 13.755-3.675 42.202-1 54 2.914 12.854 29.28 14.43 35 1-4.025-34.998 3.882-74.541 0-109-1.25-11.1-5.21-21.99-18.5-20.5Zm345 1c-2.35.383-7.239 4.507-8.5 6.5-8.081 12.774-1.146 86.482-1 106 .034 4.5-4.227 9.579-3 16 2.795 14.632 32.528 15.975 36-3 2.434-13.304.437-81.104-1-97-1.12-12.39-6.042-31.182-22.5-28.5Zm-174 2c-1.736.391-6.302 3.88-7.5 5.5-8.889 12.016-4.491 83.439-4 102 .131 4.936-3.346 11.666-2 18 3.422 16.108 33.769 14.206 36-2 2.339-16.992 1.168-87.959-2-105-2.443-13.142-5.419-21.895-20.5-18.5Zm-140 119c-5.406 37.789-49.83 38.133-60 3-12.231 27.032 19.133 49.639 44 43 16.121-4.304 33.891-34.694 16-46Zm287 1c-1.816.393-6.352 11.547-6.5 13.5-.721 9.506 6.984 21.098 14.5 26.5 28.031 20.147 72.241-6.05 52-39 .209 24.814-34.602 40.603-50.5 19.5-3.405-4.52-6.414-21.167-9.5-20.5Zm-112 1c-6.094 37.087-51.807 36.878-61 1-16.822 14.945 6.188 42.486 23 45 24.309 3.636 54.932-20.978 38-46Z"/><path fill="#70B8B6" d="M660 185c-4.329 16.777 1.629 41.46-1.5 59-34.63-1.575-71.099 2.109-105.5 0-1.947-.59-10.353-6.922-11-7-1.185-25.047 5.234-55.46-18-72 45.379 2.377 92.842 6.063 136 20Z"/><path fill="#70B8B7" d="M337.5 173c13.29-1.49 17.25 9.4 18.5 20.5 3.882 34.459-4.025 74.002 0 109-5.72 13.43-32.086 11.854-35-1-2.675-11.798.938-40.245 1-54 .016-3.628-.07-7.405 0-10 .419-15.468-6.329-62.054 15.5-64.5Z"/><path fill="#70B9B7" d="M682.5 174c16.458-2.682 21.38 16.11 22.5 28.5 1.437 15.896 3.434 83.696 1 97-3.472 18.975-33.205 17.632-36 3-1.227-6.421 3.034-11.5 3-16-.146-19.518-7.081-93.226 1-106 1.261-1.993 6.15-6.117 8.5-6.5ZM508.5 176c15.081-3.395 18.057 5.358 20.5 18.5 3.168 17.041 4.339 88.008 2 105-2.231 16.206-32.578 18.108-36 2-1.346-6.334 2.131-13.064 2-18-.491-18.561-4.889-89.984 4-102 1.198-1.62 5.764-5.109 7.5-5.5Z"/><path fill="#6EB8B6" d="M756 244c-12.765-.602-25.708.445-38.5 0-2.354-7.209-1.091-14.658-1.5-22l40 22Z"/><path fill="#6EB8BA" d="M310 233c0 2.164 3.04 9.429-.5 11-4.465.245-9.062-.34-13.5 0l14-11Z"/><path fill="#F7F1EC" d="M553 244c-7.434-.456-11.716 2.202-16-5.5 1.239-.016 4.741-1.531 5-1.5.647.078 9.053 6.41 11 7Z"/><path fill="#70B8B6" d="M877 575c-15.778-24.189-43.897-51.634-69-66 .073-46.635 1.2-93.374 1-140-.113-26.307 2.463-59.195 0-84.5-.906-9.307-3.973-16.813-7-25.5 48.342 29.772 95.963 115.689 120 167.5 19.942 42.985 16.532 83.757-14 120-8.075 9.585-20.857 21.705-31 28.5Z"/><path fill="#F39F26" d="M368.5 295c17.891 11.306.121 41.696-16 46-24.867 6.639-56.231-15.968-44-43 10.17 35.133 54.594 34.789 60-3ZM655.5 296c3.086-.667 6.095 15.98 9.5 20.5 15.898 21.103 50.709 5.314 50.5-19.5 20.241 32.95-23.969 59.147-52 39-7.516-5.402-15.221-16.994-14.5-26.5.148-1.953 4.684-13.107 6.5-13.5ZM543.5 297c16.932 25.022-13.691 49.636-38 46-16.812-2.514-39.822-30.055-23-45 9.193 35.878 54.906 36.087 61-1Z"/><path fill="#70B8B6" d="M218 470c-1.303 70.935.975 142.052 0 213-5.181.187-10.972-.483-16 0-34.758 3.338-51.085 23.101-52 57-46.436-41.026-52.78-104.44-61-162.5-2.275-16.068-6.388-38.649-7-58-2.364-74.771 18.497-146.002 76.5-195.5 7.005 13.589 14.448 27.476 20.5 41.5 14.693 34.048 23.734 71.177 39 104.5Z"/><path fill="#C2432A" d="M809 369c.2 46.626-.927 93.365-1 140-4.008-2.294-8.854-5.096-13-7 7.875-43.65 3.38-87.896 4-132l10-1Z"/><path fill="#F29D25" d="M799 370c-.62 44.104 3.875 88.35-4 132-28.053-12.884-71.772-19.616-102.5-17-13.213 1.125-26.686 8.043-39 10-8.13 1.292-29.12-3.385-33.5 6.5-1.75 3.949.553 5.627 0 7-2.044 5.08-26.903 19.684-33.5 25.5-12.324 10.865-21.283 24.739-32 37-15.797.782-78.641-5.163-89 1-7.589 4.515-5.484 19.888 3 22 8.591 2.139 71.86-3.91 73.5.5-5.564 6.951-11.784 41.562-17.5 44.5-12.079 3.368-56.833-6.024-59.5 10.5-3.777 23.401 47.919 9.247 57.5 13.5 3.007 1.335.842 15.265 1.5 18.5-.733 1.033-4.57.333-6 .5-85.407 9.978-199.984-1.92-290 1l-1-304 1.5-9H799Zm-140.5 59c-5.863.293-23.486.35-26.5 3.5-6.526 6.82-1.509 18.885 7.5 20.5l121 1c10.942-5.091 9.173-21.619-3-24-17.391-3.402-78.824-2.01-99-1Zm-170 2c-8.393.419-25.444-.698-29.5 6.5-5.113 9.074-.983 13.917 7.5 17.5l125 1c9.37-3.668 9.426-21.761-1-24-14.386-3.089-83.802-1.908-102-1Zm-147 3c-22.276.383-44.715 1.422-67 2-8.485 6.451-8.702 17.788 1 23l147-1c8.405-2.124 9.942-20.821 1-24-27.346 1.597-54.675-.469-82 0Zm165 66c-6.924.118-40.372.402-44 2-11.15 4.911-6.813 20.689 6 23 37.162-5.473 83.256 5.573 119 0 10.728-1.673 11.827-21.517 2-24-10.727-2.711-67.979-1.255-83-1Zm-117 1c-6.899.009-15.108 2.028-22 2-21.789-.09-71.967-5.028-90-1-8.111 1.811-11.803 12.44-7.5 19.5 3.27 5.364 14.423 5.199 20.5 5.5 42.337 2.096 88.298-3.772 131-2 8.484-3.607 9.737-14.488 3-20-5.174-4.233-27.095-4.011-35-4Zm-37 69c-15.193.012-65.514-1.074-77 2-9.987 2.672-6.383 20.146 1 24l145-1c10.325-2.557 13.002-19.153 3-23-7.387-2.841-60.149-2.009-72-2Zm35 69c-41.624.128-83.336 2.696-125 2-11.56 4.117-12.401 15.832-3 23l173-1c9.653-.325 11.328-19.53 5-23-4-2.193-42.238-1.024-50-1Z"/><path fill="#C7442E" d="m227 379 1 304c-3.315.108-6.687-.12-10 0 .975-70.948-1.303-142.065 0-213 .081-4.431.895-9.363 1-14 .227-9.985-1.212-73.379 1-76.5.799-1.128 5.375-.215 7-.5Z"/><path fill="#621C17" d="M658.5 429c20.176-1.01 81.609-2.402 99 1 12.173 2.381 13.942 18.909 3 24l-121-1c-9.009-1.615-14.026-13.68-7.5-20.5 3.014-3.15 20.637-3.207 26.5-3.5Z"/><path fill="#631D17" d="M488.5 431c18.198-.908 87.614-2.089 102 1 10.426 2.239 10.37 20.332 1 24l-125-1c-8.483-3.583-12.613-8.426-7.5-17.5 4.056-7.198 21.107-6.081 29.5-6.5ZM341.5 434c27.325-.469 54.654 1.597 82 0 8.942 3.179 7.405 21.876-1 24l-147 1c-9.702-5.212-9.485-16.549-1-23 22.285-.578 44.724-1.617 67-2Z"/><path fill="#621C17" d="M795 502c4.146 1.904 8.992 4.706 13 7 25.103 14.366 53.222 41.811 69 66 51.773 79.373 26.626 186.019-45 243.5 25.718-1.02 51.71-2.507 77.5-1.5 6.446.252 38.47-.841 26 8h-112c-15.673 8.769-29.954 19.45-47.5 24.5l95.5.5c3.432 2.671 3.267 4.451 0 7-37.635.774-75.413-.439-113 0-41.841.489-82.931.453-125 0-12.452-.134-73.145 4.108-79 1-8.97-4.761 3.98-7.503 8-8 27.944-3.453 61.43 3.676 90 1-16.147-7.34-32.791-14.251-47-25h-488c-3.894-3.098-4.81-5.177 0-8l475.5-.5-17.5-15.5h-383c-32.879-10.079-43.404-28.516-42.5-62 .915-33.899 17.242-53.662 52-57l3 6.5-8 3.5c-52.611 10.168-50.796 94.516 3.5 101 9.715 1.16 19.983-1.238 29.5-1 111.765 2.792 223.705-2.557 335.5 1l1-2c-.091-1.17-5.557-6.598-6.5-8-17.494-26.006-26.57-43.728-33-75-.97-4.719-.338-9.046-1-13 4.71-9.29-7.071-4.43-10-6.5l2-7.5c1.43-.167 5.267.533 6-.5-.658-3.235 1.507-17.165-1.5-18.5-9.581-4.253-61.277 9.901-57.5-13.5 2.667-16.524 47.421-7.132 59.5-10.5 5.716-2.938 11.936-37.549 17.5-44.5-1.64-4.41-64.909 1.639-73.5-.5-8.484-2.112-10.589-17.485-3-22 10.359-6.163 73.203-.218 89-1 10.717-12.261 19.676-26.135 32-37 6.597-5.816 31.456-20.42 33.5-25.5.553-1.373-1.75-3.051 0-7 4.38-9.885 25.37-5.208 33.5-6.5 12.314-1.957 25.787-8.875 39-10 30.728-2.616 74.447 4.116 102.5 17Zm-85.5-9c-86.319 1.977-169.337 75.388-176.5 162.5-14.58 177.311 203.93 265.425 320 130 102.898-120.057 8.547-295.982-143.5-292.5Z"/><path fill="#D64B2D" d="M709.5 493c152.047-3.482 246.398 172.443 143.5 292.5-116.07 135.425-334.58 47.311-320-130 7.163-87.112 90.181-160.523 176.5-162.5ZM654 524c-76.013 17.704-117.225 119.876-103 190.5 5.765 28.621 37.096 65.606 61 81.5-2.864 6.559 12.628 14.613 18.5 18 133.133 76.781 298.333-59.745 236.5-204.5-31.465-73.66-131.049-120.829-207.5-92.5-2.87 1.063-12.966 4.759-5.5 7Z"/><path fill="#621D17" d="M506.5 500c15.021-.255 72.273-1.711 83 1 9.827 2.483 8.728 22.327-2 24-35.744 5.573-81.838-5.473-119 0-12.813-2.311-17.15-18.089-6-23 3.628-1.598 37.076-1.882 44-2Z"/><path fill="#621C17" d="M389.5 501c7.905-.011 29.826-.233 35 4 6.737 5.512 5.484 16.393-3 20-42.702-1.772-88.663 4.096-131 2-6.077-.301-17.23-.136-20.5-5.5-4.303-7.06-.611-17.689 7.5-19.5 18.033-4.028 68.211.91 90 1 6.892.028 15.101-1.991 22-2Z"/><path fill="#601C16" d="M612 796c.201-.461 2.092-2.929 3-3 50.328 45.238 135.111 41.457 188.5 4 129.504-90.859 56.776-280.311-99.5-278-11.157.165-39.693 2.599-50 5-7.466-2.241 2.63-5.937 5.5-7 76.451-28.329 176.035 18.84 207.5 92.5C928.833 754.255 763.633 890.781 630.5 814c-5.872-3.387-21.364-11.441-18.5-18Z"/><path fill="#C17021" d="M704 519c.242 2.534-4.916 3.676-6.5 4-48.051 9.835-66.573 11.721-100.5 50.5-59.881 68.445-47.808 160.347 18 219.5-.908.071-2.799 2.539-3 3-23.904-15.894-55.235-52.879-61-81.5-14.225-70.624 26.987-172.796 103-190.5 10.307-2.401 38.843-4.835 50-5Z"/><path fill="#F4C558" d="M615 793c-65.808-59.153-77.881-151.055-18-219.5 33.927-38.779 52.449-40.665 100.5-50.5 1.584-.324 6.742-1.466 6.5-4 156.276-2.311 229.004 187.141 99.5 278-53.389 37.457-138.172 41.238-188.5-4Zm95.5-270c-12.804 2.645-9.192 32.989-2 32 2.639-.363 8.674-18.142 11-21l.5 9.5 2.5-3.5 2 9c6.814-9.347-1.726-28.536-14-26Zm76 20c-5.631.154-21.944 18.932-11 24 8.538 2.109 25.002-24.382 11-24Zm-145 2c-11.725 10.181 13.368 34.493 15.5 16.5.865-7.299-8.25-16.31-15.5-16.5Zm76 6c-4.607 35.566-12.465 71.503-9.5 107.5-28.231 27.255-61.741 48.84-91.5 74.5 14.059-2.289 75.968-48.002 83-48 .914 0 2.427.834 2.5 1.5.653 5.929-62.06 39.263-70.5 44.5-.386.239-5.311 2.622-2 3 19.502-11.046 40.861-18.383 61-28 7.876-3.761 14.73-10.659 23-14 6.615-2.673 15.594 1.27 20.5-8.5 7.218-14.375-3.272-17.781-5-26-1.567-7.456.688-21.403 0-30-1.919-23.993-4.408-47.97-6-72l-9 100 3.5-104.5Zm-131 43c-8.986 3.958 15.081 24.161 20.5 15.5 4.991-7.978-14.945-17.946-20.5-15.5Zm248 0c-5.123.165-19.966 11.914-12 17 9.159 5.847 29.195-17.555 12-17Zm-260 66c-19.837 4.026-6.568 35.431 16 24 18.692-9.468 5.11-28.284-16-24Zm266 0c-3.146.706-9.906 7.58-10.5 10.5-3.865 19.011 28.847 21.242 34 5 3.816-12.029-13.711-17.697-23.5-15.5Zm-205 51c-2.15.164-22.054 15.664-26 18-6.623 3.921-28.043 6.373-23.5 20.5 2.891 8.989 21.801-5.706 22-7 .251-1.634-2.629-2.221-2-6 .93-5.587 25.453-16.6 30-23 .935-1.315 2.25-2.187-.5-2.5Zm189 22c-18.492 2.596 14.633 31.365 17.5 16.5 1.305-6.767-12.325-17.226-17.5-16.5Zm-175 44c-3.073-.084-11.217 12.676-11.5 15.5-2.123 21.2 32.109-5.508 11.5-15.5Zm129 0c-18.032 12.23 14.073 35.442 11.5 16.5-.288-2.121-8.841-16.896-11.5-16.5Zm-68 11c-11.572 2.617-14.461 37.188 7 33 16.009-3.124 11.506-37.186-7-33Z"/><path fill="#611C16" d="M710.5 523c12.274-2.536 20.814 16.653 14 26l-2-9-2.5 3.5-.5-9.5c-2.326 2.858-8.361 20.637-11 21-7.192.989-10.804-29.355 2-32Z"/><path fill="#611D16" d="M786.5 543c14.002-.382-2.462 26.109-11 24-10.944-5.068 5.369-23.846 11-24Z"/><path fill="#601C16" d="M641.5 545c7.25.19 16.365 9.201 15.5 16.5-2.132 17.993-27.225-6.319-15.5-16.5Z"/><path fill="#611C16" d="M717.5 551 714 655.5l9-100c1.592 24.03 4.081 48.007 6 72 .688 8.597-1.567 22.544 0 30 1.728 8.219 12.218 11.625 5 26-4.906 9.77-13.885 5.827-20.5 8.5-8.27 3.341-15.124 10.239-23 14-20.139 9.617-41.498 16.954-61 28-3.311-.378 1.614-2.761 2-3 8.44-5.237 71.153-38.571 70.5-44.5-.073-.666-1.586-1.5-2.5-1.5-7.032-.002-68.941 45.711-83 48 29.759-25.66 63.269-47.245 91.5-74.5-2.965-35.997 4.893-71.934 9.5-107.5Z"/><path fill="#621D17" d="M352.5 570c11.851-.009 64.613-.841 72 2 10.002 3.847 7.325 20.443-3 23l-145 1c-7.383-3.854-10.987-21.328-1-24 11.486-3.074 61.807-1.988 77-2Z"/><path fill="#601C17" d="M586.5 594c5.555-2.446 25.491 7.522 20.5 15.5-5.419 8.661-29.486-11.542-20.5-15.5Z"/><path fill="#621D17" d="M834.5 594c17.195-.555-2.841 22.847-12 17-7.966-5.086 6.877-16.835 12-17Z"/><path fill="#611C17" d="M387.5 639c7.762-.024 46-1.193 50 1 6.328 3.47 4.653 22.675-5 23l-173 1c-9.401-7.168-8.56-18.883 3-23 41.664.696 83.376-1.872 125-2Z"/><path fill="#621D17" d="M574.5 660c21.11-4.284 34.692 14.532 16 24-22.568 11.431-35.837-19.974-16-24Z"/><path fill="#631D17" d="M840.5 660c9.789-2.197 27.316 3.471 23.5 15.5-5.153 16.242-37.865 14.011-34-5 .594-2.92 7.354-9.794 10.5-10.5Z"/><path fill="#4D1717" d="m518 682-2 7.5c2.929 2.07 14.71-2.79 10 6.5-.302-1.802-.203-3.489-1.5-5L212 692c-5.153-.327-9.934.021-15 1l8-3.5-3-6.5c5.028-.483 10.819.187 16 0 3.313-.12 6.685.108 10 0 90.016-2.92 204.593 8.978 290-1Z"/><path fill="#F0B43D" d="M526 696c.662 3.954.03 8.281 1 13l-232.5 1 46 6c1.501 2.536-.566 1.74-2 2-6.421 1.163-14.625-.705-21 2l157.5 2.5c-62.824 9.015-127.06 2.556-190.5 4.5 5.371 2.347 12.223 3.479 18 4 75.683 6.825 153.631-3.826 229.5 3.5L299.5 747l240.5 8.5-221.5 6.5 181 9-209.5 7.5c89.705 6.941 180.081 7.754 270 5.5.943 1.402 6.409 6.83 6.5 8l-1 2c-111.795-3.557-223.735 1.792-335.5-1 43.169-39.117 40.899-80.955-19.5-97l1.5-4 312.5-1c1.297 1.511 1.198 3.198 1.5 5Z"/><path fill="#D54A2C" d="m212 692-1.5 4c60.399 16.045 62.669 57.883 19.5 97-9.517-.238-19.785 2.16-29.5 1-54.296-6.484-56.111-90.832-3.5-101 5.066-.979 9.847-1.327 15-1Z"/><path fill="#F8D476" d="M527 709c6.43 31.272 15.506 48.994 33 75-89.919 2.254-180.295 1.441-270-5.5l209.5-7.5-181-9 221.5-6.5-240.5-8.5L532 734.5c-75.869-7.326-153.817 3.325-229.5-3.5-5.777-.521-12.629-1.653-18-4 63.44-1.944 127.676 4.515 190.5-4.5L317.5 720c6.375-2.705 14.579-.837 21-2 1.434-.26 3.501.536 2-2l-46-6 232.5-1Z"/><path fill="#5B1915" d="M635.5 711c2.75.313 1.435 1.185.5 2.5-4.547 6.4-29.07 17.413-30 23-.629 3.779 2.251 4.366 2 6-.199 1.294-19.109 15.989-22 7-4.543-14.127 16.877-16.579 23.5-20.5 3.946-2.336 23.85-17.836 26-18Z"/><path fill="#611D16" d="M824.5 733c5.175-.726 18.805 9.733 17.5 16.5-2.867 14.865-35.992-13.904-17.5-16.5ZM649.5 777c20.609 9.992-13.623 36.7-11.5 15.5.283-2.824 8.427-15.584 11.5-15.5Z"/><path fill="#611D17" d="M778.5 777c2.659-.396 11.212 14.379 11.5 16.5 2.573 18.942-29.532-4.27-11.5-16.5Z"/><path fill="#621D16" d="M710.5 788c18.506-4.186 23.009 29.876 7 33-21.461 4.188-18.572-30.383-7-33Z"/><path fill="#F29923" d="M110.5 847c31.959-1.514 64.049 2.152 96 0 3.739 3.012 5.281 5.775 1 9l-120 1c-13.244-11.277 15.493-9.644 23-10Z"/><path fill="#F29A24" d="M341.5 847c29.654-.427 59.342.318 89 0 4.964 3.007 4.435 8.595-1 10-15.341 3.965-69.291-.92-89-1-18.981-.077-42.505 3.088-61 2-3.49-.205-13.641-.94-14.5-4.5-.557-1.922.807-4.869 2.5-5.5 3.467-1.292 64.187-.859 74-1Z"/></svg>