<svg xmlns="http://www.w3.org/2000/svg" width="1024" height="1024"><path fill="none" d="M1023-1v1024H-1V-1h1024ZM136 805c-9.787 12.744-40.023 42.703-9.5 51 12.794 3.478 29.317-5.904 40.5-12l38 30c-.164.422.085 1.369 0 2-.157-.018-2.162.748-3 1-3.646 1.094-4.437 3.76-5 4-3.002 1.282-6.022 2.786-9 4-2.45.998-5.111 2.658-6 3-14.183 5.46-60.05 14.749-64 29.5-1.451 5.418-.11 11.351 5.5 13.5 7.938 3.041 132.817 3.669 143 1 16.458-4.313 15.093-20.362 9.5-33 50.734 18.745 105.47 31.232 160 28 4.763 1.972 9.595 2.598 14.5 4h475c7.074-3.385 9.333-8 5.5-15-3.6-6.575-10.238-2.16-14.5-4-1.837-.793-3.826-12.403-5-13L555 897h358.5c1.542-3.05.26-4.039-2.5-5 .548-6.4 1.13-13.442-4-18l4-.5c1.292-3.032-2.008-4.254-2-4.5.129-3.866 2.004-11.263 2-15-.006-4.778-1.997-4.731-2-5-.02-2.095 3.456-12.618 1.5-14h-363c-1.267-.406.896-1.412.5-2h363.5c4.081-4.211-.56-3.713-.5-4 .881-4.19 4.596-10.619 6-15 4.278-.341 13.319.352 15-5.5 4.399-15.312-21.861-12.232-30-12.5 26.491-8.232 36.449-40.653 34-66 59.194-127.144 62.826-287.344-48.5-387-48.098-43.056-107.151-62.541-170.5-71 .934-4.085 2.004-18.054 1-21.5-.334-1.147-5.632-4.815-6-6-1.898-6.105 3.241-9.462-5.5-15.5-1.925-1.33-7.344-1.7-9-3-4.885-3.834-5.606-11.55-16-13-10.765-1.502-37.673 2.241-47 8-5.013 3.095-3.142 7.162-4.5 10-27.539-22.636-47.887-53.025-74.5-77C386.213 1.492 145.953 127.351 74 316.5 16.61 467.363 45.513 672.498 136 805Z"/><path fill="#EDB635" d="M630 231c-10.993 22.973-11.927 18.395-10 47 .032.474-2.816 2.59-2 8.5 1.335 9.667 10.089 11.932 12 15 3.514 5.642 5.419 13.528 10 20 6.156 8.698 15.895 8.251 8 23.5-1.742-.356-1.948.864-3 1-49.562 6.408-67.236 47.689-74 92-5.686.709-5.636 3.557-1 6-1.929 8.421-4.126 17.821 2 25-7.089-3.021-14.606-8.192-22.5-9-24.197-2.477-28.879 12.836-18.5 32 9.863 27.691 45.519 40.386 69 55.5-4.515 2.9-18.353 8.25-21 12.5l-5.5-2c-2.432 5.493-3.326 12.37-.5 18-25.566 2.971-70.149-7.037-91.5 8-6.639 4.675-16.002 20.343-18.5 28l4-50c12.935-8.579 37.425-32.5 39-48.5.437-4.442-2.06-7.117-2-7.5 12.441-79.693 17.316-148.38-73-176-.187-.057-1.516-2.73-2.5-3-2.882-.789-3.303 2.041-3.5 2-4.274-.893-7.9-2.709-12-4-1.57-8.882-.768-23.043-3-31 3.176-1.714 14.628-16.441 15-18.5.457-2.527-1.565-8.701-1-13 7.751-58.999-20.6-90.26-80.5-71.5-3.148.986-11.31 6.921-12 7-1.851.212-9.815-4.275-17-3-12.195 2.165-8.017 12.789-10.5 16.5-1.872 2.798-5.579.827-6.5 1.5-12.61 9.213.947 18.833.5 20.5-.075.282-4.764 2.571-5 3-7.161 13.032 7.675 15.587 8 17 .124.538-6.4 5.518-.5 9.5 3.543 2.392 7.363-.222 8 0 1.372.479 4.885 13.574 13.5 6 1.778 14.474 12.171 50.936 25 59-4.962 13.906-20.268 13.911-31.5 21-26.326 16.614-41.18 59.235-50.5 87.5-2.023 6.135-1.456 16.248-6.5 20.5L184 489c-11.892-9.614-29.183-22.794-45-19-2.861-1.661-19.066-11.581-17-2.5.112.494 3.234 2.977 4 3.5l20 41c-6.773-3.383-16.139-.923-18 7.5-4.172 18.881 23.082 60.724 44 57.5.769 1.469 1.921 2.751 3 4-.201 4.525-.796 7.81 5 7 5.734 7.94 11.24 16.097 17 24-8.574 19.934-14.465 41.457-20 62.5-7.039 26.762-16.475 94.652-26 114.5-.696 1.449-12.567 12.832-15 16C45.513 672.498 16.61 467.363 74 316.5 145.953 127.351 386.213 1.492 555.5 154c26.613 23.975 46.961 54.364 74.5 77Z"/><path fill="#63101B" d="M410 294c-.159-.568-6.158-1.133-5-9.5.148-1.067 3.607-5.574 4-7 .665-2.411-1.617-4.482-1-7 .248-1.012 11.719-10.858 8-18-5.091-5.715-15.301 6.574-17.5 6.5-5.353-.181-19.284-24.816-22-30-8.881 7.808-52.481 11.684-55.5 21.5-1.165 3.787.467 14.159 1 18.5-8.615 7.574-12.128-5.521-13.5-6-.637-.222-4.457 2.392-8 0-5.9-3.982.624-8.962.5-9.5-.325-1.413-15.161-3.968-8-17 .236-.429 4.925-2.718 5-3 .447-1.667-13.11-11.287-.5-20.5.921-.673 4.628 1.298 6.5-1.5 2.483-3.711-1.695-14.335 10.5-16.5 7.185-1.275 15.149 3.212 17 3 .69-.079 8.852-6.014 12-7 59.9-18.76 88.251 12.501 80.5 71.5-.565 4.299 1.457 10.473 1 13-.372 2.059-11.824 16.786-15 18.5Z"/><path fill="#64101C" d="M717 272c-.25 1.092-.404 4.124-1 5-11.966 17.571-20.818-17.463-24.5-18-.643-.094-8.898 4.678-12 5-11.389 1.183-25.326-9.206-27-9-.388.048-3.924 4.185-6 5-2.558 1.004-7.749.329-10 2-3.251 2.412-6.034 24.881-16.5 16-1.927-28.605-.993-24.027 10-47 1.358-2.838-.513-6.905 4.5-10 9.327-5.759 36.235-9.502 47-8 10.394 1.45 11.115 9.166 16 13 1.656 1.3 7.075 1.67 9 3 8.741 6.038 3.602 9.395 5.5 15.5.368 1.185 5.666 4.853 6 6 1.004 3.446-.066 17.415-1 21.5Z"/><path fill="#D04F1A" d="M410 294c2.232 7.957 1.43 22.118 3 31 1.016 5.749 5 8.938 5 9.5 0 1.237-15.339 16.173-17.5 17.5-16.103 9.892-47.63 10.332-41.5-16 10.8 4.849 44.439-14.433 44-24.5-.422-9.683-15.694 10.914-20.5 13.5-4.892 2.633-17.005 5.883-22.5 6-4.985.106-8.701-.298-13-3-12.829-8.064-23.222-44.526-25-59-.533-4.341-2.165-14.713-1-18.5 3.019-9.816 46.619-13.692 55.5-21.5 2.716 5.184 16.647 29.819 22 30 2.199.074 12.409-12.215 17.5-6.5 3.719 7.142-7.752 16.988-8 18-.617 2.518 1.665 4.589 1 7-.393 1.426-3.852 5.933-4 7-1.158 8.367 4.841 8.932 5 9.5Zm-29.5-40c-12.474 4.086 16.867 14.772 17.5 7.5.279-3.208-14.655-8.432-17.5-7.5Zm-44 5c-3.789.863-11.03 6.674-5 10 5.983-3.885 11.949-3.267 18.5-5.5 2.748-5.764-10.539-5.174-13.5-4.5Zm5 14c-3.787 1.055-1.632 9.136 3 7 3.5-1.614.689-8.028-3-7Zm38 0c-2.727 1.28-2.059 6.82 2 6 3.854-.778 2.783-8.244-2-6Zm-21 24c6.65 8.946 23.126 11.417 31.5 3.5l-31.5-3.5Z"/><path fill="#5E0E1E" d="M380.5 254c2.845-.932 17.779 4.292 17.5 7.5-.633 7.272-29.974-3.414-17.5-7.5Z"/><path fill="#D1501B" d="M716 277c8.113 3.819 3.306 18.46-2.5 23-2.501 1.956-4.391-.628-6.5 1.5-1.046 1.056-6.671 15.353-9 19-1.484 2.323-10.744 9.8-11 11-.122.571 2.606 9.949 2 11.5-1.148 2.936-14.917 12.466-18.5 13-15.966 2.381-16.431-9.758-22.5-11 7.895-15.249-1.844-14.802-8-23.5-4.581-6.472-6.486-14.358-10-20-1.911-3.068-10.665-5.333-12-15-.816-5.91 2.032-8.026 2-8.5 10.466 8.881 13.249-13.588 16.5-16 2.251-1.671 7.442-.996 10-2 2.076-.815 5.612-4.952 6-5 1.674-.206 15.611 10.183 27 9 3.102-.322 11.357-5.094 12-5 3.682.537 12.534 35.571 24.5 18Zm-73.5-3c-5.478 1.215-10.434 8.984-4 10 1.47.232 5.8-3.498 8-4 2.653-.606 10.895 2.88 10.5-2.5-.283-3.86-11.463-4.174-14.5-3.5Zm36 4c-13.689 4.938 15.975 9.78 17.5 6.5 3.458-7.669-14.099-7.727-17.5-6.5Zm-28 8c-2.829 1.197-1.828 7.1 2 6 3.648-1.048 1.609-7.526-2-6Zm33 2c-3.461.712-2.317 7.272 1 7 2.587-.212 4.333-8.097-1-7Zm-28 18c-3.46 3.164 7.449 10.684 9 11 7.698 1.566 12.715-3.169 17.5-8.5-9.443.519-18.135 4.158-26.5-2.5Zm1 28c-.228 11.875 24.884 12.884 26.5.5-9.492 1.116-17.05 2.462-26.5-.5Z"/><path fill="#620F1D" d="M336.5 259c2.961-.674 16.248-1.264 13.5 4.5-6.551 2.233-12.517 1.615-18.5 5.5-6.03-3.326 1.211-9.137 5-10Z"/><path fill="#EEB635" d="M936 730c-3.805-39.379-27.411-35.541-57-36 11.948-5.869 7.927-17.705-5-16-2.984-4.466-4.596-7.741-6-13-.27-1.012 2.354-1.832 2-3.5-.201-.947-2.969-2.307-3-2.5-.781-4.795-1.645-10.204-2-15-.043-.581.072-3.327 0-5-.167-3.887-.137-8.151 0-12 .075-2.103-.027-4.681 0-5 .369-4.435 1.252-9.558 2-14 .488-2.897-.063-4.758 0-5 .389-1.498 5.302-8.058 5-11 14.009-1.016 20.044-9.445 5.5-16h-100c1.759-14.478.203-19.242-12.5-24-2.691-1.008-2.242.176-3 0-.225-.052-.141-2.43-3.5-3-6.595-1.119-14.934 1.331-21.5-1.5 10.551-5.71 21.141-11.686 31-18.5 13.07-9.033 31.961-20.007 34-36 3.531-27.693-10.425-34.993-35-26 2.265-6.685.52-13.316 0-20-.019-.245 2.807-.894 2-4.5-.364-1.624-2.954-1.339-3-1.5-15.267-52.98-19.926-77.652-74-96-1.286-.436-1.712-1.682-3-2 .606-1.551-2.122-10.929-2-11.5.256-1.2 9.516-8.677 11-11 2.329-3.647 7.954-17.944 9-19 2.109-2.128 3.999.456 6.5-1.5 5.806-4.54 10.613-19.181 2.5-23 .596-.876.75-3.908 1-5 63.349 8.459 122.402 27.944 170.5 71 111.326 99.656 107.694 259.856 48.5 387Z"/><path fill="#600E20" d="M341.5 273c3.689-1.028 6.5 5.386 3 7-4.632 2.136-6.787-5.945-3-7Z"/><path fill="#63121E" d="M379.5 273c4.783-2.244 5.854 5.222 2 6-4.059.82-4.727-4.72-2-6Z"/><path fill="#610F1D" d="M642.5 274c3.037-.674 14.217-.36 14.5 3.5.395 5.38-7.847 1.894-10.5 2.5-2.2.502-6.53 4.232-8 4-6.434-1.016-1.478-8.785 4-10Z"/><path fill="#5F101E" d="M678.5 278c3.401-1.227 20.958-1.169 17.5 6.5-1.525 3.28-31.189-1.562-17.5-6.5Z"/><path fill="#5C101E" d="M650.5 286c3.609-1.526 5.648 4.952 2 6-3.828 1.1-4.829-4.803-2-6Z"/><path fill="#5F1319" d="M683.5 288c5.333-1.097 3.587 6.788 1 7-3.317.272-4.461-6.288-1-7Z"/><path fill="#FDFBF9" d="m358.5 297 31.5 3.5c-8.374 7.917-24.85 5.446-31.5-3.5Z"/><path fill="#FDFAF8" d="M655.5 306c8.365 6.658 17.057 3.019 26.5 2.5-4.785 5.331-9.802 10.066-17.5 8.5-1.551-.316-12.46-7.836-9-11Z"/><path fill="#5F0F1D" d="M359 336c.339-1.455 1.679-2.838 1-5 5.495-.117 17.608-3.367 22.5-6 4.806-2.586 20.078-23.183 20.5-13.5.439 10.067-33.2 29.349-44 24.5Z"/><path fill="#8BC7C4" d="M425 329c-5.954 33.809-73.918 57.409-75 9.5-9.39-8.96-5.716 20.899 6.5 28.5 24.114 15.005 70.577-7.882 74.5-37 90.316 27.62 85.441 96.307 73 176-5.555.299-3.658 7.107-5 10.5-11.857 29.973-64.687 66.309-96.5 57.5-4.585-1.27-11.478-9.521-15.5-3.5 19.242 22.653 59.91 4.825 80-8.5l-4 50c-.702 2.152-1.531 2.91-2 5-7.59 2.773-16.426 6.227-24.5 7-27.575 2.641-79.792-8.268-109-13-2.009-.325-6.754-.857-7.5-3 4.935-2.4 31.605-13.934 33.5-16 2.35-2.563 2.402-8.648 2.5-12 4.3-.722 29.893-9.262 31-12.5.212-.62-2.19-4.863 1-9 3.917-5.079 26.06-7.155 25-21-.609-7.953-11.08-8.324-12.5-9.5-15.267-12.643-23.209-30.801-47.5-32 2.147-8.417 4.545-16.372 6-25 .282-1.674 4.474-3.977.5-7-3.663-.225-7.034 1.255-10.5 2-15.946-23.182-36.231-6.408-56 0 1.499-17.602 7.014-34.575 11-51.5-.654-1.477-3.164-1.936-4.5-1.5-3.756 1.226-12.413 47.456-13.5 54-1.194 2.419-40.254 19.671-47.5 24-10.905 6.515-21.141 15.005-31 23-5.771-9.038-15.13-18.233-23.5-25l74.5-32c5.044-4.252 4.477-14.365 6.5-20.5 9.32-28.265 24.174-70.886 50.5-87.5 11.232-7.089 26.538-7.094 31.5-21 4.299 2.702 8.015 3.106 13 3 .679 2.162-.661 3.545-1 5-6.13 26.332 25.397 25.892 41.5 16 2.161-1.327 17.5-16.263 17.5-17.5 0-.562-3.984-3.751-5-9.5 4.1 1.291 7.726 3.107 12 4Zm30.5 111c-5.069 2.361-2.685 58.654-5.5 67.5-1.014 3.186-10.368 12.323-13.5 14.5-4.809 3.343-19.926 7.551-20.5 8.5-.312.515-.042 9.326-1 12-2.559 7.142-10.674 11.428-16 16l2.5 3.5c10.008-2.048 15.084-10.098 19.5-18.5.738-1.403.509-7.457 1.5-8.5.724-.762 14.63-5.681 19-9 26.013-19.757 12.165-56.102 18.5-84.5-.696-1.411-3.307-2.056-4.5-1.5Z"/><path fill="#640F18" d="M431 330c-3.923 29.118-50.386 52.005-74.5 37-12.216-7.601-15.89-37.46-6.5-28.5 1.082 47.909 69.046 24.309 75-9.5.197.041.618-2.789 3.5-2 .984.27 2.313 2.943 2.5 3Z"/><path fill="#5E0F1D" d="M656.5 334c9.45 2.962 17.008 1.616 26.5.5-1.616 12.384-26.728 11.375-26.5-.5Z"/><path fill="#600F19" d="M692 345c-6.961 20.682-41.74 24.515-47 1 1.052-.136 1.258-1.356 3-1 6.069 1.242 6.534 13.381 22.5 11 3.583-.534 17.352-10.064 18.5-13 1.288.318 1.714 1.564 3 2Z"/><path fill="#5DA6A4" d="m766 441-40 12.5c.879-18.976.868-38.043 2-57 .216-3.616 6.818-28.442-1.5-24.5-4.6 2.18-7.038 77.458-6.5 87.5 1.401 2.312 3.236 1.127 5 1.5-.396 7.592-.393 15.438-1 23-32.786 17.91-80.199 22.061-112 0 1.035-6.084.566-19.453-2-25 .111-1.31-.071-2.683 0-4 1.118.165 2.393 1.72 4.5 1l2.5-2.5c-4.114-27.051-1.035-55.65-11.5-81.5l-4.5 3.5 9 72c-1.821 2.49-33.962-10.128-39-9.5 6.764-44.311 24.438-85.592 74-92 5.26 23.515 40.039 19.682 47-1 54.074 18.348 58.733 43.02 74 96Z"/><path fill="#631019" d="M610 455c-3.436-.508-38.028-9.961-40-11-4.636-2.443-4.686-5.291 1-6 5.038-.628 37.179 11.99 39 9.5l-9-72 4.5-3.5c10.465 25.85 7.386 54.449 11.5 81.5l-2.5 2.5c-2.107.72-3.382-.835-4.5-1ZM766 441c.046.161 2.636-.124 3 1.5.807 3.606-2.019 4.255-2 4.5-12.353-1.286-26.783 12.079-37 14-.246.046-4.755.052-5 0-1.764-.373-3.599.812-5-1.5-.538-10.042 1.9-85.32 6.5-87.5 8.318-3.942 1.716 20.884 1.5 24.5-1.132 18.957-1.121 38.024-2 57l40-12.5Z"/><path fill="#630E17" d="M293 466c-2.205.715-4.649 2.813-7 1 1.087-6.544 9.744-52.774 13.5-54 1.336-.436 3.846.023 4.5 1.5-3.986 16.925-9.501 33.898-11 51.5Z"/><path fill="#630D16" d="M455.5 440c1.193-.556 3.804.089 4.5 1.5-6.335 28.398 7.513 64.743-18.5 84.5-4.37 3.319-18.276 8.238-19 9-.991 1.043-.762 7.097-1.5 8.5-4.416 8.402-9.492 16.452-19.5 18.5l-2.5-3.5c5.326-4.572 13.441-8.858 16-16 .958-2.674.688-11.485 1-12 .574-.949 15.691-5.157 20.5-8.5 3.132-2.177 12.486-11.314 13.5-14.5 2.815-8.846.431-65.139 5.5-67.5Z"/><path fill="#D04E1B" d="M610 455c-.071 1.317.111 2.69 0 4-1.005 11.883-10.579 19.256 0 27-.173.186-.884 1.527-1 2-11.619-6.918-24.534-13.688-37-19-6.126-7.179-3.929-16.579-2-25 1.972 1.039 36.564 10.492 40 11Z"/><path fill="#D04D1B" d="M767 447c.52 6.684 2.265 13.315 0 20-11.742 4.297-24.21 15.165-35.5 21l-1.5-27c10.217-1.921 24.647-15.286 37-14Z"/><path fill="#F6E0CF" d="M349 466c-22.854 4.909-53.056 16.743-75.5 25-24.33 8.951-47.992 20.224-72 30-19.925-15.386-40.929-38.477-62.5-51 15.817-3.794 33.108 9.386 45 19 8.37 6.767 17.729 15.962 23.5 25 9.859-7.995 20.095-16.485 31-23 7.246-4.329 46.306-21.581 47.5-24 2.351 1.813 4.795-.285 7-1 19.769-6.408 40.054-23.182 56 0Z"/><path fill="#F0BB33" d="M612 484c-.255 1.499-1.648 1.62-2 2-10.579-7.744-1.005-15.117 0-27 2.566 5.547 3.035 18.916 2 25Z"/><path fill="#F5CB42" d="M572 469c12.466 5.312 25.381 12.082 37 19 10.58 6.3 20.245 15.663 30.5 22 1.023.632 25.861 10.822 8 9-11.699-1.193-71.057-48.922-95-54-15.964-3.386-24.252 4.53-19.5 20.5 6.724 22.598 42.423 30.871 58.5 42.5 1.688 1.221 7.617 5.202 3 7-2.521.982-43.733-21.668-48-25-5.311-4.147-12.254-12.006-15.5-18-10.379-19.164-5.697-34.477 18.5-32 7.894.808 15.411 5.979 22.5 9Z"/><path fill="#F6C942" d="m730 461 1.5 27c11.29-5.835 23.758-16.703 35.5-21 24.575-8.993 38.531-1.693 35 26-6.168 13.744-21.476 27.05-34 35-5.775 3.666-55.505 27.142-58.5 26-2.307-.88-1.977-4.416 0-6 2.151-1.724 22.207-7.731 27-10 19.807-9.375 68.862-33.258 60.5-60.5-4.972-16.197-24.185-7.079-34.5-2.5-11.164 4.956-78.187 47.829-83 47-2.461-2.243-3.787-3.171-1-6 5.95-6.039 38.441-16.539 45-23 2.634-2.595.21-5.393.5-9 .607-7.562.604-15.408 1-23 .245.052 4.754.046 5 0Z"/><path fill="#621019" d="M139 470c21.571 12.523 42.575 35.614 62.5 51 24.008-9.776 47.67-21.049 72-30 22.444-8.257 52.646-20.091 75.5-25 3.466-.745 6.837-2.225 10.5-2 3.974 3.023-.218 5.326-.5 7-54.528 13.159-106.771 34.917-158 57.5-1.662 3.546 11.573 68.614 14 77 2.022 6.988 11.619 35.702 18 37.5-2.945 12.427-10.535-4.04-14-7-4.278-13.475-9.571-26.74-13-40.5-3.442-13.814-9.137-66.005-13-73-6.403-11.595-54.574-43.016-67-51.5-.766-.523-3.888-3.006-4-3.5-2.066-9.081 14.139.839 17 2.5Z"/><path fill="#64101B" d="M609 488c.116-.473.827-1.814 1-2 .352-.38 1.745-.501 2-2 31.801 22.061 79.214 17.91 112 0-.29 3.607 2.134 6.405-.5 9-6.559 6.461-39.05 16.961-45 23-2.787 2.829-1.461 3.757 1 6 4.813.829 71.836-42.044 83-47 10.315-4.579 29.528-13.697 34.5 2.5 8.362 27.242-40.693 51.125-60.5 60.5-4.793 2.269-24.849 8.276-27 10-1.977 1.584-2.307 5.12 0 6 2.995 1.142 52.725-22.334 58.5-26v1c-9.859 6.814-20.449 12.79-31 18.5 6.566 2.831 14.905.381 21.5 1.5 3.359.57 3.275 2.948 3.5 3 .23 7.271 9.697 11.908 9 20.5-1.891 23.311-62.968 13.628-77 7 .392-2.507 24.82 5.68 33-6 1.959-2.797 5.192-13.39.5-13.5-2.073-.049-3.307 8.652-4.5 10.5-5.828 9.031-19.735 2.557-28.5 2.5-6.41-.041-13.653-.16-19.5 0-11.259-7.765-26.892-9.006-36 3-3.609.033-6.329 1.832-11 0-10.222-4.01-6.34-17.832-5-26 2.213-.375 5.922-3.322 8.5-4 10.966-2.882 16.467 2.62 13-14-9.273 3.124-17.671 9.282-23.5 17-1.262 1.671-4.361 2.856-5 5.5-1.611 6.663.668 20.724 8 24.5-.299.201-2.489 3.066-3.5 3-3.334-.216-8.985-9.52-6.5 7-12.115-2.743-47.774-8.494-35-29 2.647-4.25 16.485-9.6 21-12.5-23.481-15.114-59.137-27.809-69-55.5 3.246 5.994 10.189 13.853 15.5 18 4.267 3.332 45.479 25.982 48 25 4.617-1.798-1.312-5.779-3-7-16.077-11.629-51.776-19.902-58.5-42.5-4.752-15.97 3.536-23.886 19.5-20.5 23.943 5.078 83.301 52.807 95 54 17.861 1.822-6.977-8.368-8-9-10.255-6.337-19.92-15.7-30.5-22Zm109.5 69c-1.973 1.611.295 8.967 3 8 3.759-1.343.789-11.093-3-8Z"/><path fill="#245A65" d="M219 636c-2.643-2.258-6.799-1.819-11-6.5-2.677-2.984-7.655-12.91-11-17.5-5.76-7.903-11.266-16.06-17-24-1.789-2.477-2.9-4.57-5-7-1.079-1.249-2.231-2.531-3-4 .509-.078 7.517-5.406 8-6.5 1.598-3.615.902-5.486 0-9-2.194-8.548-26.391-45.699-34-49.5l-20-41c12.426 8.484 60.597 39.905 67 51.5 3.863 6.995 9.558 59.186 13 73 3.429 13.76 8.722 27.025 13 40.5Z"/><path fill="#255A65" d="M359 471c-1.455 8.628-3.853 16.583-6 25-7.267-.359-22.671 1.742-21 11.5 1.733 10.115 25.996 5.752 14 23-10.665 15.335-50.6 11.692-48 31 2.799 20.78 43.279 20.971 58 18.5-.098 3.352-.15 9.437-2.5 12-1.895 2.066-28.565 13.6-33.5 16-15.667 7.619-31.67 14.695-47.5 22-11.347 5.236-24.632 17.188-39.5 13-6.381-1.798-15.978-30.512-18-37.5-2.427-8.386-15.662-73.454-14-77 51.229-22.583 103.472-44.341 158-57.5Z"/><path fill="#9B4A1B" d="M768 529v-1c12.524-7.95 27.832-21.256 34-35-2.039 15.993-20.93 26.967-34 36Z"/><path fill="#CF4F1A" d="M353 496c24.291 1.199 32.233 19.357 47.5 32 1.42 1.176 11.891 1.547 12.5 9.5 1.06 13.845-21.083 15.921-25 21-3.19 4.137-.788 8.38-1 9-1.107 3.238-26.7 11.778-31 12.5-14.721 2.471-55.201 2.28-58-18.5-2.6-19.308 37.335-15.665 48-31 11.996-17.248-12.267-12.885-14-23-1.671-9.758 13.733-11.859 21-11.5Z"/><path fill="#640E17" d="M504 506c-.06.383 2.437 3.058 2 7.5-1.575 16-26.065 39.921-39 48.5-20.09 13.325-60.758 31.153-80 8.5 4.022-6.021 10.915 2.23 15.5 3.5 31.813 8.809 84.643-27.527 96.5-57.5 1.342-3.393-.555-10.201 5-10.5Z"/><path fill="#CF4F1B" d="M146 512c7.609 3.801 31.806 40.952 34 49.5.902 3.514 1.598 5.385 0 9-.483 1.094-7.491 6.422-8 6.5-20.918 3.224-48.172-38.619-44-57.5 1.861-8.423 11.227-10.883 18-7.5Z"/><path fill="#D3551D" d="M623 550c-.885.15-1.111-1.143-2-1 5.829-7.718 14.227-13.876 23.5-17 3.467 16.62-2.034 11.118-13 14-2.578.678-6.287 3.625-8.5 4Z"/><path fill="#F4C843" d="M623 550c-1.34 8.168-5.222 21.99 5 26-.868 1.162-2.749 2.159-4 3-7.332-3.776-9.611-17.837-8-24.5.639-2.644 3.738-3.829 5-5.5.889-.143 1.115 1.15 2 1Z"/><path fill="#F4C747" d="M765 552c19.442 16.152 9.832 34.29-12 40-12.375.123-24.663-.065-37 0l-32-10-15-8c2.336-.044 3.652-.936 6-1 5.847-.16 13.09-.041 19.5 0 8.765.057 22.672 6.531 28.5-2.5 1.193-1.848 2.427-10.549 4.5-10.5 4.692.11 1.459 10.703-.5 13.5-8.18 11.68-32.608 3.493-33 6 14.032 6.628 75.109 16.311 77-7 .697-8.592-8.77-13.229-9-20.5.758.176.309-1.008 3 0Z"/><path fill="#641019" d="M872 592c-35.395 2.568-81.95-.37-119 0 21.832-5.71 31.442-23.848 12-40 12.703 4.758 14.259 9.522 12.5 24h100c14.544 6.555 8.509 14.984-5.5 16Z"/><path fill="#EFC034" d="M718.5 557c3.789-3.093 6.759 6.657 3 8-2.705.967-4.973-6.389-3-8Z"/><path fill="#F6CC44" d="M579 560c-12.774 20.506 22.885 26.257 35 29 3.041.689 10.341-.286 11 4-9.278.024-17.309-1.007-26-1-5.252-3.534-13-4.521-18.5-8-3.547-2.244-5.58-4.175-7.5-8-2.826-5.63-1.932-12.507.5-18l5.5 2Z"/><path fill="#E4751C" d="M675 573c-2.348.064-3.664.956-6 1-9.87.185-20.103 1.911-30 2 9.108-12.006 24.741-10.765 36-3Z"/><path fill="#D1AB9F" d="m669 574 15 8-27 10c-10.697.039-21.424.973-32 1-.659-4.286-7.959-3.311-11-4-2.485-16.52 3.166-7.216 6.5-7 1.011.066 3.201-2.799 3.5-3 1.251-.841 3.132-1.838 4-3 4.671 1.832 7.391.033 11 0 9.897-.089 20.13-1.815 30-2Z"/><path fill="#64101B" d="M573 576c1.92 3.825 3.953 5.756 7.5 8 5.5 3.479 13.248 4.466 18.5 8-14.705.012-64.291-4.548-73 5.5-8.781 10.132-13.8 75.42 9.5 79.5l338.5 1c12.927-1.705 16.948 10.131 5 16-127.268-1.973-254.75 2.31-382-1-28.69-3.671-33.48-15.153-36-42-.942-10.037-2.191-24.231 0-34 .469-2.09 1.298-2.848 2-5 2.498-7.657 11.861-23.325 18.5-28 21.351-15.037 65.934-5.029 91.5-8Z"/><path fill="#6F0D1B" d="M180 588c-5.796.81-5.201-2.475-5-7 2.1 2.43 3.211 4.523 5 7Z"/><path fill="#620B11" d="M716 592c-19.65.104-39.35-.071-59 0l27-10 32 10Z"/><path fill="#D5D5D5" d="M599 592c8.691-.007 16.722 1.024 26 1 10.576-.027 21.303-.961 32-1 19.65-.071 39.35.104 59 0 12.337-.065 24.625.123 37 0 37.05-.37 83.605 2.568 119 0 .302 2.942-4.611 9.502-5 11H564.5l-1.5 4.5 304 .5c-.748 4.442-1.631 9.565-2 14h-2c.436-3.009-2.669-1.938-4.5-2-93.516-3.167-192.512.733-283.5 2-4.199-.958-4.276 3.721-.5 5H865c-.137 3.849-.167 8.113 0 12H587c-4.451-.911-5.595 1.834-2.5 5H865c.355 4.796 1.219 10.205 2 15H567.5l-1.5 3.5 302 2.5c1.404 5.259 3.016 8.534 6 13l-338.5-1c-23.3-4.08-18.281-69.368-9.5-79.5 8.709-10.048 58.295-5.488 73-5.5Z"/><path fill="#6F1018" d="M867 603c-.063.242.488 2.103 0 5l-304-.5 1.5-4.5H867Z"/><path fill="#B2411A" d="M461 617c-2.191 9.769-.942 23.963 0 34l-14 28.5c-17.498 21.962-47.295 28.313-74 22.5 4.309-4.615 20.348-34.207 10.5-37-5.017-1.423-2.251 9.715-3.5 14.5-.619 2.37-12.321 19.801-13.5 19.5-6.752-5.503-2.131-33.673-11.5-25.5-.317 1.251 3.31 23.857 4 25.5-27.576 64.394-49.948 131.735-88 191-1.676-1.059-31.731.72-39.5-1-7.339-1.625-23.626-12.669-26.5-13 .085-.631-.164-1.578 0-2 16.158-41.63 26.539-86.032 37-130 6.609-19.949 11.668-40.464 18-60.5 1.807-5.719 15.023-38.695 14-41-.533-1.201-2.241-1.858-3.5-1.5-5.708 1.622-20.341 63.041-23.5 72-5.842 16.567-32.204 77.233-45 86-16.933 11.602-36.881 1.228-51-10 9.525-19.848 18.961-87.738 26-114.5 5.535-21.043 11.426-42.566 20-62.5 3.345 4.59 8.323 14.516 11 17.5 4.201 4.681 8.357 4.242 11 6.5 3.465 2.96 11.055 19.427 14 7 14.868 4.188 28.153-7.764 39.5-13 15.83-7.305 31.833-14.381 47.5-22 .746 2.143 5.491 2.675 7.5 3 29.208 4.732 81.425 15.641 109 13 8.074-.773 16.91-4.227 24.5-7Z"/><path fill="#E3EDE9" d="M863 622H575c90.988-1.267 189.984-5.167 283.5-2 1.831.062 4.936-1.009 4.5 2Z"/><path fill="#761218" d="M863 622h2c-.027.319.075 2.897 0 5H574.5c-3.776-1.279-3.699-5.958.5-5h288Z"/><path fill="#E0ECE9" d="M862 639H587h275Z"/><path fill="#76171B" d="M587 639h278c.072 1.673-.043 4.419 0 5H584.5c-3.095-3.166-1.951-5.911 2.5-5Z"/><path fill="#F9CE44" d="M242 744c2.131-8.956 2.92-18.644 5-26.5.089-.335 4.636 1.367 0-4.5 3.159-8.959 17.792-70.378 23.5-72 1.259-.358 2.967.299 3.5 1.5 1.023 2.305-12.193 35.281-14 41-6.332 20.036-11.391 40.551-18 60.5Z"/><path fill="#EEB635" d="M461 651c2.52 26.847 7.31 38.329 36 42-10.856 4.717-56.547-7.419-52 13.5 1.341 6.17 7.564 5.418 11 6.5.16.05-.058 2.741 1.5 3 1.789.297 8.28-1.007 11.5-1 1.135 4.304 1.076 8.63 2 13 .356 1.684.602 3.282 1 5 .812 3.507 3.4 7.202 4 11 .238 1.505-.083 3.387 0 5 .26 5.039.253 6.96-1 12-.063.254-1.646 3.062-2 4-1.784 4.722-3.437 8.659-6 13-1.314.093-2.686-.094-4 0-15.036 1.081-25.574.61-14 19-47.592 4.884-49.125 115.045-13 130-54.53 3.232-109.266-9.255-160-28-.504-1.14-4.565-8.725-5-9 38.052-59.265 60.424-126.606 88-191 .2.475 5.993 7.91 6.5 8 1.686.197 6.644-4.084 7.5-5 26.705 5.813 56.502-.538 74-22.5l14-28.5Z"/><path fill="#711219" d="M867 659c.031.193 2.799 1.553 3 2.5.354 1.668-2.27 2.488-2 3.5l-302-2.5 1.5-3.5H867Z"/><path fill="#F9CF44" d="M373 702c-.856.916-5.814 5.197-7.5 5-.507-.09-6.3-7.525-6.5-8-.69-1.643-4.317-24.249-4-25.5 9.369-8.173 4.748 19.997 11.5 25.5 1.179.301 12.881-17.13 13.5-19.5 1.249-4.785-1.517-15.923 3.5-14.5 9.848 2.793-6.191 32.385-10.5 37Z"/><path fill="#5DA7A4" d="M879 694c29.589.459 53.195-3.379 57 36 2.449 25.347-7.509 57.768-34 66-149.861-4.929-302.878 2.862-453 1-11.574-18.39-1.036-17.919 14-19l1.5 5h183l.5-5c15.659-1.017 26.061-2.56 31-19.5 3.723-12.768 4.945-33.963-9-40.5 4.363-6.768-11.716-8.585-15.5-9-44.415-4.875-137.26-3.288-183 0-4.746.341-11.378 1.181-15.5 4-3.436-1.082-9.659-.33-11-6.5-4.547-20.919 41.144-8.783 52-13.5 127.25 3.31 254.732-.973 382 1Z"/><path fill="#721217" d="M670 718c-6.363-2.983-15.601-3.491-22.5-4-55.099-4.064-121.962 1.121-178.5 1-3.22-.007-9.711 1.297-11.5 1-1.558-.259-1.34-2.95-1.5-3 4.122-2.819 10.754-3.659 15.5-4 45.74-3.288 138.585-4.875 183 0 3.784.415 19.863 2.232 15.5 9Z"/><path fill="#EEB735" d="M242 744c-10.461 43.968-20.842 88.37-37 130l-38-30c4.829-2.632 38.201-24.735 39-27.5 1.64-5.68-2.915-12.031-4-17.5 12.796-8.767 39.158-69.433 45-86 4.636 5.867.089 4.165 0 4.5-2.08 7.856-2.869 17.544-5 26.5Z"/><path fill="#D1D2D4" d="M670 718c13.945 6.537 12.723 27.732 9 40.5-4.939 16.94-15.341 18.483-31 19.5-58.292 3.784-121.426-4.209-181 0 2.563-4.341 4.216-8.278 6-13l177-.5-2.5-4.5-172.5 1c1.253-5.04 1.26-6.961 1-12h156.5c1.08-.799 2.062-2.121 1.5-3.5-2.982-7.316-140.92 2.499-158-1.5-.6-3.798-3.188-7.493-4-11h176.5l1.5-4.5-179-.5c-.924-4.37-.865-8.696-2-13 56.538.121 123.401-5.064 178.5-1 6.899.509 16.137 1.017 22.5 4Z"/><path fill="#6B131A" d="M472 733c-.398-1.718-.644-3.316-1-5l179 .5-1.5 4.5H472Z"/><path fill="#6A131C" d="M476 749c-.083-1.613.238-3.495 0-5 17.08 3.999 155.018-5.816 158 1.5.562 1.379-.42 2.701-1.5 3.5H476Z"/><path fill="#6D151E" d="M473 765c.354-.938 1.937-3.746 2-4l172.5-1 2.5 4.5-177 .5Z"/><path fill="#6C0F13" d="m648 778-.5 5h-183l-1.5-5c1.314-.094 2.686.093 4 0 59.574-4.209 122.708 3.784 181 0Z"/><path fill="#64101B" d="M202 799c1.085 5.469 5.64 11.82 4 17.5-.799 2.765-34.171 24.868-39 27.5-11.183 6.096-27.706 15.478-40.5 12-30.523-8.297-.287-38.256 9.5-51 2.433-3.168 14.304-14.551 15-16 14.119 11.228 34.067 21.602 51 10Z"/><path fill="#AF401A" d="M902 796c8.139.268 34.399-2.812 30 12.5-1.681 5.852-10.722 5.159-15 5.5-129.188 10.289-271.02-8.538-401.5 1-19.235 1.401-21.131 32.323-21.5 47.5-.501 20.636 1.833 51.157 28.5 51.5h404l4.5 2c3.833 7 1.574 11.615-5.5 15h-475c-4.905-1.402-9.737-2.028-14.5-4-36.125-14.955-34.592-125.116 13-130 150.122 1.862 303.139-5.929 453-1Z"/><path fill="#F0E1D4" d="M917 814c-1.404 4.381-5.119 10.81-6 15H547.5c-3.467 2.776-.247 2.893.5 4 .396.588-1.767 1.594-.5 2h363c1.956 1.382-1.52 11.905-1.5 14H558.5l-2.5 3.5 355 1.5c.004 3.737-1.871 11.134-2 15l-339 1.5 1.5 3.5H907c5.13 4.558 4.548 11.6 4 18H552.5c-4.192 3.173-2.595 5.501 2.5 5l356.5 2c1.174.597 3.163 12.207 5 13 4.262 1.84 10.9-2.575 14.5 4l-4.5-2h-404c-26.667-.343-29.001-30.864-28.5-51.5.369-15.177 2.265-46.099 21.5-47.5 130.48-9.538 272.312 9.289 401.5-1Z"/><path fill="#710F13" d="M911 829c-.06.287 4.581-.211.5 4H548c-.747-1.107-3.967-1.224-.5-4H911Z"/><path fill="#6E1019" d="M909 849c.003.269 1.994.222 2 5l-355-1.5 2.5-3.5H909Z"/><path fill="#74161A" d="M909 869c-.008.246 3.292 1.468 2 4.5l-4 .5H571.5l-1.5-3.5 339-1.5Z"/><path fill="#64101B" d="M271 890c.435.275 4.496 7.86 5 9 5.593 12.638 6.958 28.687-9.5 33-10.183 2.669-135.062 2.041-143-1-5.61-2.149-6.951-8.082-5.5-13.5 3.95-14.751 49.817-24.04 64-29.5 2.791 2.624 6.569 4.525 9 7.5 3.064 3.75 8.648 19.676 11.5 18.5 7.204-2.97-10.247-26.25-14.5-29 2.978-1.214 5.998-2.718 9-4 7.155 8.741 10.395 4.93 5-4 .838-.252 2.843-1.018 3-1 2.874.331 19.161 11.375 26.5 13 7.769 1.72 37.824-.059 39.5 1Z"/><path fill="#FBD43B" d="M202 877c5.395 8.93 2.155 12.741-5 4 .563-.24 1.354-2.906 5-4Z"/><path fill="#F7CD40" d="M188 885c4.253 2.75 21.704 26.03 14.5 29-2.852 1.176-8.436-14.75-11.5-18.5-2.431-2.975-6.209-4.876-9-7.5.889-.342 3.55-2.002 6-3Z"/><path fill="#721318" d="M911 892c2.76.961 4.042 1.95 2.5 5H555c-5.095.501-6.692-1.827-2.5-5H911Z"/></svg>