<svg xmlns="http://www.w3.org/2000/svg" width="1024" height="1024"><path fill="none" d="M1023-1v1024H-1V-1h1024ZM205 215c-20.319.408-47.665-3.617-61 15.5-10.514 15.072-12.076 69.839-12 89.5-10.496 12.12-17.563 30.36-23 45.5C50.662 527.954 96.981 711.538 223.5 827 336.076 929.738 497.15 963.316 643 918c-.159 9.84-.846 15.529-3 24.5.586 1.441 12.36.385 15 .5 4.487.196 6.306.612 11 0 1.918-.25 9.2.628 10-.5-.459-12.832-1.564-25.682-2-38.5 34.794-12.017 67.163-30.668 97-52 6.069.123 47.821-1.155 49 1.5l3 87c1.004 2.265 8.771 1.634 11 1.5 4.701-.282 9.606-2.557 14-4 1.938-.637 5.676.843 8-1.5-.199-28.155-2.647-56.387-3-84.5h9c5.091 21.045 34.332 19.06 41 .5 1.279-60.487 1.474-121.026 2-181.5 3.298-2.156 5.706-7.975 7-11.5 54.969-149.669 21.315-318.677-85-436C663.025 42.546 372.517 36.476 205 215Z"/><path fill="#E5A62F" d="M905 671c.407-46.79-.461-93.672 1-140.5 2.112-2.977 22.558 6.651 25-14 4.532-38.328-64.544-26.227-86.5-26.5-1.867-17.242-4.49-22.715-22.5-24l-4-6c3.562.018 7.962 2.823 12-.5 3.197-13.905.806-35.464-16.5-38.5-37.852-6.64-100.279 7.612-141 0-14.884 4.332-3.285 11.099-2.5 14.5.347 1.501.578 19.184 0 20-1.203 1.696-13.953-2.942-12 8 2.15 12.043 39.199-.214 42 9 .847 2.786.45 17.312-2.5 18.5h-124c-8.802.023-22.402 16.077-22.5 23.5-.04 3.005 11.043 13.632 13.5 14.5 3.729 1.317 14.441.109 15.5 2.5l4 319c9.012 22.152 38.711 21.713 42-4 1.426-11.147-3.795-78.356.5-81.5 1.103 2.544 6.658 2.433 7.5 3.5 1.96 2.484 5.539 55.599 6 63 1.672 26.84 3.431 59.875 3 86.5-145.85 45.316-306.924 11.738-419.5-91C96.981 711.538 50.662 527.954 109 365.5c5.437-15.14 12.504-33.38 23-45.5.16 41.279.34 103.457 41 126-.802.093-13.864 5.426-15 6-4.971 2.51-9.617 4.787-13 9.5-5.161 7.19-34.801 78.31-36 87-.522 3.781 1.791 11.569 1 17-.665 4.564-5.388 9.689-6 13-2.101 11.37 3.518 21.478 14.5 25.5h390c7.864-3.469 16.836-12.359 16.5-21.5-.058-1.574-3.557-8.811-4-11-4.181-20.682-27.646-90.386-38-109-2.569-4.619-4.1-4.042-7-6.5-6.181-5.239-17.968-11.752-26-12 6.732-6.439 14.715-13.824 20-21.5 15.026-21.823 18.362-59.346 21-86 3.205-32.383 13.603-103.545-25.5-117.5-85.81-2.557-174.164-5.735-260.5-4 167.517-178.524 458.025-172.454 622 8.5 106.315 117.323 139.969 286.331 85 436-1.294 3.525-3.702 9.344-7 11.5ZM585.5 196 512 260.5l71.5 89.5 3.5.5 1-45c60.07-7.045 115.628 23.256 141.5 77.5l52.5-11.5C760.409 283.013 674.728 239.983 588.5 242l-3-46Zm-291 428-47.5 7.5c13.668 97.069 95.765 159.995 191.5 162.5l2 47 75.5-66.5-73.5-91.5-4 49c-64.38-.948-120.401-44.565-137.5-106.5-1.606-2.263-4.153-1.463-6.5-1.5Z"/><path fill="#E6EDD0" d="m585.5 196 3 46c86.228-2.017 171.909 41.013 193.5 129.5L729.5 383c-25.872-54.244-81.43-84.545-141.5-77.5l-1 45-3.5-.5-71.5-89.5 73.5-64.5Z"/><path fill="#571615" d="M205 215c86.336-1.735 174.69 1.443 260.5 4 39.103 13.955 28.705 85.117 25.5 117.5-2.638 26.654-5.974 64.177-21 86-5.285 7.676-13.268 15.061-20 21.5-4.963-.153-11.237 2.893-15.5 3-83.524 2.096-167.418-.237-251 1-1.652.024-8.872-2.188-10.5-2-40.66-22.543-40.84-84.721-41-126-.076-19.661 1.486-74.428 12-89.5 13.335-19.117 40.681-15.092 61-15.5Zm-23.5 11c-28.886 2.481-31.373 10.434-35.5 37.5-5.59 36.656-11.93 166.569 38.5 173.5l251-1c16.198-4.76 27.682-18.142 33.5-33.5 9.014-23.794 18.839-127.57 12-151-4.3-14.732-13.153-22.442-28.5-24.5-86.763 6.561-185.728-8.324-271-1Z"/><path fill="#60AAA5" d="M181.5 226c85.272-7.324 184.237 7.561 271 1 15.347 2.058 24.2 9.768 28.5 24.5 6.839 23.43-2.986 127.206-12 151-5.818 15.358-17.302 28.74-33.5 33.5l-251 1c-50.43-6.931-44.09-136.844-38.5-173.5 4.127-27.066 6.614-35.019 35.5-37.5Zm2 14c-38.173 1.378-31.592 67.695-30.5 95.5.878 22.351 3.056 82.046 30.5 86.5 77.381-5.664 165.872 7.765 242 0 17.515-1.787 30.551-8.938 35.5-26.5 4.391-15.583 15.482-119.727 12-132-2.336-8.233-16.093-21.041-24.5-22.5l-265-1Z"/><path fill="#571515" d="m183.5 240 265 1c8.407 1.459 22.164 14.267 24.5 22.5 3.482 12.273-7.609 116.417-12 132-4.949 17.562-17.985 24.713-35.5 26.5-76.128 7.765-164.619-5.664-242 0-27.444-4.454-29.622-64.149-30.5-86.5-1.092-27.805-7.673-94.122 30.5-95.5Zm-2 11c-8.79 1.659-14.901 8.827-16.5 17.5-3.358 18.216.218 117.858 8 133 3.086 6.005 8.25 8.043 14.5 9.5 83.517-2.85 167.917 3.995 251-3 3.301-2.616 7.53-5.665 9.5-9.5 5.998-11.674 17.418-120.296 14-132-2.852-9.767-13.359-14.022-22.5-15.5h-258Z"/><path fill="#82C0BE" d="M181.5 251h258c9.141 1.478 19.648 5.733 22.5 15.5 3.418 11.704-8.002 120.326-14 132-1.97 3.835-6.199 6.884-9.5 9.5-83.083 6.995-167.483.15-251 3-6.25-1.457-11.414-3.495-14.5-9.5-7.782-15.142-11.358-114.784-8-133 1.599-8.673 7.71-15.841 16.5-17.5Zm102 35c-2.368.488-8.925 5.3-10.5 7.5-7.563 10.565-8.367 62.811-7 77 3.727 38.68 28.62 26.635 52.5 14.5 15.347-7.799 50.391-26.009 48.5-45.5-1.722-17.746-64.988-57.316-83.5-53.5Z"/><path fill="#541515" d="M283.5 286c18.512-3.816 81.778 35.754 83.5 53.5 1.891 19.491-33.153 37.701-48.5 45.5-23.88 12.135-48.773 24.18-52.5-14.5-1.367-14.189-.563-66.435 7-77 1.575-2.2 8.132-7.012 10.5-7.5Zm3 10c-1.449.34-5.693 4.742-6.5 6.5-4.358 9.5-5.269 63.855-3 75 3.86 18.961 31.73.782 41.5-4.5 9.919-5.362 39.596-21.59 37.5-33.5-1.342-7.626-50.738-40.252-59.5-42.5-2.759-.708-7.328-1.627-10-1Z"/><path fill="#ECB92F" d="M286.5 296c2.672-.627 7.241.292 10 1 8.762 2.248 58.158 34.874 59.5 42.5 2.096 11.91-27.581 28.138-37.5 33.5-9.77 5.282-37.64 23.461-41.5 4.5-2.269-11.145-1.358-65.5 3-75 .807-1.758 5.051-6.16 6.5-6.5Z"/><path fill="#531516" d="M818 460c-10.78-.054-20.781-2.42-31.5-3l-68.5 7.5c-.073 5.411 96.332.953 104 1.5 18.01 1.285 20.633 6.758 22.5 24 21.956.273 91.032-11.828 86.5 26.5-2.442 20.651-22.888 11.023-25 14-1.461 46.828-.593 93.71-1 140.5-.526 60.474-.721 121.013-2 181.5-6.668 18.56-35.909 20.545-41-.5l1-84.5c-8.76-5.061-8.478 8.124-9 14-2.033 22.871-1.285 47.739-1 70.5.353 28.113 2.801 56.345 3 84.5-2.324 2.343-6.062.863-8 1.5l-9.5-110h-187c-1.501 28.632.454 58.144 1.5 87 .332 9.166 1.009 18.858 2 28-2.64-.115-14.414.941-15-.5 2.154-8.971 2.841-14.66 3-24.5.431-26.625-1.328-59.66-3-86.5-.461-7.401-4.04-60.516-6-63-.842-1.067-6.397-.956-7.5-3.5-4.295 3.144.926 70.353-.5 81.5-3.289 25.713-32.988 26.152-42 4l-4-319c-1.059-2.391-11.771-1.183-15.5-2.5-2.457-.868-13.54-11.495-13.5-14.5.098-7.423 13.698-23.477 22.5-23.5h124c2.95-1.188 3.347-15.714 2.5-18.5-2.801-9.214-39.85 3.043-42-9-1.953-10.942 10.797-6.304 12-8 .578-.816.347-18.499 0-20-.785-3.401-12.384-10.168 2.5-14.5 40.721 7.612 103.148-6.64 141 0 17.306 3.036 19.697 24.595 16.5 38.5-4.038 3.323-8.438.518-12 .5Zm-128.5-32-3 6 86.5 2.5c-31.689 8.336-63.338.14-95.5 1.5l1 15c16.33-2.842 138.364 4.302 142.5-1.5 1.145-1.606-.625-12.488-2-15-4.272-7.806-26.952-8.012-35.5-8.5-30.752-1.757-63.078 1.311-94 0Zm47 48c-16.352.416-31.918-3.423-26 18l122 6c1.424-9.669 6.192-21.7-7-24-16.542-2.884-69.13-.505-89 0Zm103 24c-.653.154-3.673 4.272-7 5l-257-3c-10.132 4.733-15.636 14.85 0 16h339c11.085-5.03 2.561-16.332-6-18-5.102-.994-64.554-1.047-69 0Zm-178 28c-8.402.08-66.185.003-69 2-1.072.76-1.302 17.076 0 18l302.5.5c-1.495-8.726 4.957-20.342-7.5-20.5-75.291 2.992-150.736-.719-226 0Zm-69 31 1.5 286.5c5.856 12.976 18.593 12.501 22-2-3.597-38.186 1.078-76.876 0-115-.29-10.258-4.524-22.368-5-32-1.377-27.858 8.032-79.467 47.5-65.5 23.719 8.394 14.906 42.508 16.5 61.5l2.5 1.5h140c5.988-2.653-1.276-57.116 24-62 41.396-7.999 43.232 44.444 39.5 72.5-1.187 8.921-7.009 20.683-8 28-1.94 14.327-2.553 102.361 0 115 2.257 11.174 17.736 10.09 21 0l-.5-287.5-301-1Zm67.5 89c-2.037-3.028-.178-1.806-4-4-31.285-17.955-35.643 41.076-33 59.5l40-10c.965-13.301 4.427-34.457-3-45.5Zm186.5-5c-16.302 3.264-11.644 37.591-16.5 49.5 15.38 5.149 28.528 3.206 38.5 19.5 5.241-17.036 7.795-74.965-22-69Zm-83 61c-22.638-.106-108.973-1.176-125 6-11.883 5.32-17.266 40.336-6 48 12.78 8.694 125.51 8.892 147 8 13.661-.567 59.454-2.986 70-7 16.537-6.294 14.843-41.538 2-49-13.127-7.627-70.36-5.917-88-6Zm72 68c-22.534-.939-54.669 5.529-79 6-36.437.705-72.738-2.552-109-5-1.693 1.202.498 39.578 1.5 41.5 4.495 8.625 172.459-1.418 194.5 2.5 1.852-.822 2.346-37.391 1.5-40.5-1.272-4.673-5.882-4.349-9.5-4.5Z"/><path fill="#F5E29F" d="M689.5 428c30.922 1.311 63.248-1.757 94 0 8.548.488 31.228.694 35.5 8.5 1.375 2.512 3.145 13.394 2 15-4.136 5.802-126.17-1.342-142.5 1.5l-1-15c32.162-1.36 63.811 6.836 95.5-1.5l-86.5-2.5 3-6Z"/><path fill="#62ACA6" d="M450 444c8.032.248 19.819 6.761 26 12l-6 4.5 36.5 98.5-384-1c-3.82-1.381-.425-17.253.5-20.5 5.907-20.741 24.203-48.933 32-71 1.597-4.519 2.793-9.666 3-14.5 1.136-.574 14.198-5.907 15-6 1.628-.188 8.848 2.024 10.5 2 83.582-1.237 167.476 1.096 251-1 4.263-.107 10.537-3.153 15.5-3Zm-239.5 18c-3.874-.044-30.552.318-32 1-2.212 1.041-1.449 6.775-3.5 8.5l40.5.5c.94-.359 4.721-7.936 4.5-8.5-.912-2.326-7.347-1.476-9.5-1.5Zm192 0c-2.511.903-1.755 8.767 0 10 2.047 1.438 42.538 1.952 43.5-.5 5.102-13-38.065-6.55-43.5-9.5Zm-177 1c-.636.241-5.822 7.845-3 9 8.762-2.448 49.449 6.759 39-9-1.694-.609-34.317-.639-36 0Zm44 0c-2.391.927-4.152 8.153-2 9 6.463-1.459 34.209 1.932 38 0 1.902-.969 2.401-7.723-1-9-1.638-.615-33.368-.632-35 0Zm43 0c-1.671.694-3.502 7.949-2 9l42.5-.5c-.679-2.425-1.702-7.617-4.5-8.5-1.717-.542-34.338-.69-36 0Zm44 0c-1.766.708-.72 8.237 1 9 1.943.862 41.258 1.224 42.5-.5 5.018-12.023-41.235-9.408-43.5-8.5Zm-182 13c-2.47.772-7.509 8.413-1 10 2.186.533 35.258.622 37 0 2.349-.839 5.175-8.484 2-10-1.715-.819-36.186-.567-38 0Zm46 0c-2.579.87-5.409 8.503-2 10 1.785.784 37.19.725 39 0 2.24-.896 4.008-8.132 1-10-1.739-.766-36.2-.607-38 0Zm45 0c-.396.237-2.006 7.762-1.5 8.5 1.123 1.639 37.43 2.397 39.5 1.5 1.75-.758 3.309-9.013 1-10-1.793-.767-37.328-1.003-39 0Zm46 0c-2.261 1.003-2.261 8.997 0 10 1.944.862 41.807.51 42.5-1.5-2.301-1.862.465-7.201-2.5-8.5-1.832-.803-38.172-.811-40 0Zm47 0c-1.821.805-2.006 6.387-1.5 7.5 1.794 3.945 44.245 3.211 45 1-2.139-1.471-.31-5.731-1-7-1.026-1.885-40.537-2.367-42.5-1.5Zm47 0c-.831.588-1.268 8.994 1 10 2.034.903 43.437 2.455 44.5.5 8.804-16.19-38.333-8.934-45.5-10.5Zm27 13c-7.702-.1-16.121 2.14-24 1-1.245.791.493 8.281 2 9 2.099 1.001 45.068 1.332 46.5-.5-1.856-10.966-15.457-9.382-24.5-9.5Zm-265 1c-2.198.743-4.988 7.594-3 9 1.674 1.184 39.108.79 41 0 .674-.282 3.642-7.111 3.5-7.5-.714-1.95-39.214-2.273-41.5-1.5Zm47 0c-.79.39-3.522 8.034-2 9 6.886-1.551 36.989 2.051 41 0 .458-.234 2.629-7.127 2.5-7.5-.68-1.962-39.638-2.42-41.5-1.5Zm48 0c-1.622.798-4.026 7.672 1 9 2.139.565 38.224.92 40 0 1.453-.753 2.666-7.825 0-9-1.876-.827-39.16-.905-41 0Zm48 0v9l43.5-1.5c-.227-2.066.91-6.435-1.5-7.5-5.402-2.386-34.033 1.8-42 0Zm49 0c-2.867 1.272-.759 8.595 0 9 1.92 1.025 42.61.486 43.5-1.5-.227-2.066.91-6.435-1.5-7.5-1.921-.849-40.08-.852-42 0Zm-198 13c-6.022 2.363-.424 8.912 5 10 5.035 1.01 46.194 3.38 37-9-8.514 2.49-36.042-3.338-42-1Zm51 0c-5.142 1.076-5.13 2.703-6.5 7.5.748 2.011 39.077 3.269 42.5 2.5 4.012-.901 7.813-7.01 5-9-1.674-1.184-37.763-1.678-41-1Zm48 0c-1.947.77-3.354 7.167-2.5 8.5 1.234 1.926 43.628 2.814 45.5 1.5.313-.22 1.624-7.138 1.5-7.5-.755-2.207-41.947-3.509-44.5-2.5Zm51 0c-.491.183-1.603 1.325-2.5 1.5.304 2.193-1.028 7.381 1.5 8.5 2.082.921 44.505.547 45.5-1.5.506-1.042-.866-7.158-1.5-7.5-1.892-1.022-40.984-1.75-43-1Zm52 0c-4.972 1.455-3.864 4.213-3 9l45.5-.5c.082-1.968-.79-6.571-2.5-7.5-1.76-.956-37.494-1.733-40-1Zm47 0c-3.039 1.335-1.302 8.93 2 10 2.188.709 43.849.813 46 0 3.247-1.228 3.562-7.619 0-9-2.777-1.077-45.802-1.965-48-1ZM264 552c13.125 1.929 80.554 1.182 92-2 19.329-5.373 8.073-17.215-4-24-9.098-5.113-11.64-4.123-22-4-12.78.152-24.898 2.428-38.5 2-5.718-.18-18.457-4.792-24-3-1.445.467-13.149 17.57-13.5 19.5-1.653 9.085 1.734 10.285 10 11.5Z"/><path fill="#581615" d="M476 456c2.9 2.458 4.431 1.881 7 6.5 10.354 18.614 33.819 88.318 38 109 .443 2.189 3.942 9.426 4 11 .336 9.141-8.636 18.031-16.5 21.5h-390c-10.982-4.022-16.601-14.13-14.5-25.5.612-3.311 5.335-8.436 6-13 .791-5.431-1.522-13.219-1-17 1.199-8.69 30.839-79.81 36-87 3.383-4.713 8.029-6.99 13-9.5-.207 4.834-1.403 9.981-3 14.5-7.797 22.067-26.093 50.259-32 71-.925 3.247-4.32 19.119-.5 20.5l384 1-36.5-98.5 6-4.5ZM122.5 568c-6.649 3.404-10.329 19.794-4 24 129.199 3.327 260.974 3.333 390 0 9.084-9.003 5.177-21.852-8-24h-378Z"/><path fill="#C24C25" d="m818 460 4 6c-7.668-.547-104.073 3.911-104-1.5l68.5-7.5c10.719.58 20.72 2.946 31.5 3Z"/><path fill="#7D2415" d="M210.5 462c2.153.024 8.588-.826 9.5 1.5.221.564-3.56 8.141-4.5 8.5l-40.5-.5c2.051-1.725 1.288-7.459 3.5-8.5 1.448-.682 28.126-1.044 32-1Z"/><path fill="#7D2315" d="M402.5 462c5.435 2.95 48.602-3.5 43.5 9.5-.962 2.452-41.453 1.938-43.5.5-1.755-1.233-2.511-9.097 0-10Z"/><path fill="#7E2416" d="M225.5 463c1.683-.639 34.306-.609 36 0 10.449 15.759-30.238 6.552-39 9-2.822-1.155 2.364-8.759 3-9Z"/><path fill="#7C2315" d="M269.5 463c1.632-.632 33.362-.615 35 0 3.401 1.277 2.902 8.031 1 9-3.791 1.932-31.537-1.459-38 0-2.152-.847-.391-8.073 2-9Z"/><path fill="#7A2316" d="M312.5 463c1.662-.69 34.283-.542 36 0 2.798.883 3.821 6.075 4.5 8.5l-42.5.5c-1.502-1.051.329-8.306 2-9Z"/><path fill="#7D2416" d="M356.5 463c2.265-.908 48.518-3.523 43.5 8.5-1.242 1.724-40.557 1.362-42.5.5-1.72-.763-2.766-8.292-1-9Z"/><path fill="#832415" d="M174.5 476c1.814-.567 36.285-.819 38 0 3.175 1.516.349 9.161-2 10-1.742.622-34.814.533-37 0-6.509-1.587-1.47-9.228 1-10Z"/><path fill="#832615" d="M220.5 476c1.8-.607 36.261-.766 38 0 3.008 1.868 1.24 9.104-1 10-1.81.725-37.215.784-39 0-3.409-1.497-.579-9.13 2-10Z"/><path fill="#842616" d="M265.5 476c1.672-1.003 37.207-.767 39 0 2.309.987.75 9.242-1 10-2.07.897-38.377.139-39.5-1.5-.506-.738 1.104-8.263 1.5-8.5Z"/><path fill="#842516" d="M311.5 476c1.828-.811 38.168-.803 40 0 2.965 1.299.199 6.638 2.5 8.5-.693 2.01-40.556 2.362-42.5 1.5-2.261-1.003-2.261-8.997 0-10ZM358.5 476c1.963-.867 41.474-.385 42.5 1.5.69 1.269-1.139 5.529 1 7-.755 2.211-43.206 2.945-45-1-.506-1.113-.321-6.695 1.5-7.5Z"/><path fill="#822515" d="M405.5 476c7.167 1.566 54.304-5.69 45.5 10.5-1.063 1.955-42.466.403-44.5-.5-2.268-1.006-1.831-9.412-1-10Z"/><path fill="#F6E39F" d="M736.5 476c19.87-.505 72.458-2.884 89 0 13.192 2.3 8.424 14.331 7 24l-122-6c-5.918-21.423 9.648-17.584 26-18Z"/><path fill="#812318" d="M432.5 489c9.043.118 22.644-1.466 24.5 9.5-1.432 1.832-44.401 1.501-46.5.5-1.507-.719-3.245-8.209-2-9 7.879 1.14 16.298-1.1 24-1Z"/><path fill="#802318" d="M167.5 490c2.286-.773 40.786-.45 41.5 1.5.142.389-2.826 7.218-3.5 7.5-1.892.79-39.326 1.184-41 0-1.988-1.406.802-8.257 3-9Z"/><path fill="#812318" d="M214.5 490c1.862-.92 40.82-.462 41.5 1.5.129.373-2.042 7.266-2.5 7.5-4.011 2.051-34.114-1.551-41 0-1.522-.966 1.21-8.61 2-9Z"/><path fill="#822419" d="M262.5 490c1.84-.905 39.124-.827 41 0 2.666 1.175 1.453 8.247 0 9-1.776.92-37.861.565-40 0-5.026-1.328-2.622-8.202-1-9Z"/><path fill="#822518" d="M310.5 490c7.967 1.8 36.598-2.386 42 0 2.41 1.065 1.273 5.434 1.5 7.5l-43.5 1.5v-9Z"/><path fill="#822418" d="M359.5 490c1.92-.852 40.079-.849 42 0 2.41 1.065 1.273 5.434 1.5 7.5-.89 1.986-41.58 2.525-43.5 1.5-.759-.405-2.867-7.728 0-9Z"/><path fill="#C04B26" d="M839.5 500c4.446-1.047 63.898-.994 69 0 8.561 1.668 17.085 12.97 6 18h-339c-15.636-1.15-10.132-11.267 0-16l257 3c3.327-.728 6.347-4.846 7-5Z"/><path fill="#782216" d="M161.5 503c5.958-2.338 33.486 3.49 42 1 9.194 12.38-31.965 10.01-37 9-5.424-1.088-11.022-7.637-5-10Z"/><path fill="#7B2316" d="M212.5 503c3.237-.678 39.326-.184 41 1 2.813 1.99-.988 8.099-5 9-3.423.769-41.752-.489-42.5-2.5 1.37-4.797 1.358-6.424 6.5-7.5Z"/><path fill="#7D2316" d="M260.5 503c2.553-1.009 43.745.293 44.5 2.5.124.362-1.187 7.28-1.5 7.5-1.872 1.314-44.266.426-45.5-1.5-.854-1.333.553-7.73 2.5-8.5ZM311.5 503c2.016-.75 41.108-.022 43 1 .634.342 2.006 6.458 1.5 7.5-.995 2.047-43.418 2.421-45.5 1.5-2.528-1.119-1.196-6.307-1.5-8.5.897-.175 2.009-1.317 2.5-1.5Z"/><path fill="#7F2517" d="M363.5 503c2.506-.733 38.24.044 40 1 1.71.929 2.582 5.532 2.5 7.5l-45.5.5c-.864-4.787-1.972-7.545 3-9Z"/><path fill="#7C2316" d="M410.5 503c2.198-.965 45.223-.077 48 1 3.562 1.381 3.247 7.772 0 9-2.151.813-43.812.709-46 0-3.302-1.07-5.039-8.665-2-10Z"/><path fill="#571416" d="M330 522c5.233 4.421 15.789 5.782 22 4 12.073 6.785 23.329 18.627 4 24l-9.5-13c-14.24 3.202-67.223-4.218-77 0-.733.316-6.21 12.695-5.5 15-8.266-1.215-11.653-2.415-10-11.5.351-1.93 12.055-19.033 13.5-19.5 5.543-1.792 18.282 2.82 24 3 13.602.428 25.72-1.848 38.5-2Z"/><path fill="#D04E1C" d="M352 526c-6.211 1.782-16.767.421-22-4 10.36-.123 12.902-1.113 22 4Z"/><path fill="#BF4926" d="M661.5 528c75.264-.719 150.709 2.992 226 0 12.457.158 6.005 11.774 7.5 20.5l-302.5-.5c-1.302-.924-1.072-17.24 0-18 2.815-1.997 60.598-1.92 69-2Z"/><path fill="#BC4824" d="M356 550c-11.446 3.182-78.875 3.929-92 2-.71-2.305 4.767-14.684 5.5-15 9.777-4.218 62.76 3.202 77 0l9.5 13Z"/><path fill="#C04A25" d="m592.5 559 301 1 .5 287.5c-3.264 10.09-18.743 11.174-21 0-2.553-12.639-1.94-100.673 0-115 .991-7.317 6.813-19.079 8-28 3.732-28.056 1.896-80.499-39.5-72.5-25.276 4.884-18.012 59.347-24 62h-140l-2.5-1.5c-1.594-18.992 7.219-53.106-16.5-61.5-39.468-13.967-48.877 37.642-47.5 65.5.476 9.632 4.71 21.742 5 32 1.078 38.124-3.597 76.814 0 115-3.407 14.501-16.144 14.976-22 2L592.5 559Z"/><path fill="#61AAA6" d="M122.5 568h378c13.177 2.148 17.084 14.997 8 24-129.026 3.333-260.801 3.327-390 0-6.329-4.206-2.649-20.596 4-24Z"/><path fill="#E6EDD0" d="M294.5 624c2.347.037 4.894-.763 6.5 1.5 17.099 61.935 73.12 105.552 137.5 106.5l4-49 73.5 91.5-75.5 66.5-2-47c-95.735-2.505-177.832-65.431-191.5-162.5l47.5-7.5Z"/><path fill="#62ABA7" d="m656 644 4 4c7.427 11.043 3.965 32.199 3 45.5l-40 10c-2.643-18.424 1.715-77.455 33-59.5ZM846.5 643c29.795-5.965 27.241 51.964 22 69-9.972-16.294-23.12-14.351-38.5-19.5 4.856-11.909.198-46.236 16.5-49.5Z"/><path fill="#C8B772" d="m660 648-4-4c3.822 2.194 1.963.972 4 4Z"/><path fill="#ECB92F" d="M763.5 704c17.64.083 74.873-1.627 88 6 12.843 7.462 14.537 42.706-2 49-10.546 4.014-56.339 6.433-70 7-21.49.892-134.22.694-147-8-11.266-7.664-5.883-42.68 6-48 16.027-7.176 102.362-6.106 125-6Z"/><path fill="#E5A72C" d="M862 852h-9c-.285-22.761-1.033-47.629 1-70.5.522-5.876.24-19.061 9-14l-1 84.5Z"/><path fill="#62ABA6" d="M835.5 772c3.618.151 8.228-.173 9.5 4.5.846 3.109.352 39.678-1.5 40.5-22.041-3.918-190.005 6.125-194.5-2.5-1.002-1.922-3.193-40.298-1.5-41.5 36.262 2.448 72.563 5.705 109 5 24.331-.471 56.466-6.939 79-6Z"/><path fill="#C14B26" d="M848 938c-4.394 1.443-9.299 3.718-14 4l-4-98.5-3.5-1.5-165-2c.727 25.599 1.18 51.425 2.5 77l-11-2c-1.046-28.856-3.001-58.368-1.5-87h187l9.5 110Z"/><path fill="#541517" d="M834 942c-2.229.134-9.996.765-11-1.5l-3-87c-1.179-2.655-42.931-1.377-49-1.5-32.814-.665-65.645-1.445-98.5-1-.139 17.657.9 35.361 1.5 53 .436 12.818 1.541 25.668 2 38.5-.8 1.128-8.082.25-10 .5.526-8.704-1.556-17.404-2-26-1.32-25.575-1.773-51.401-2.5-77l165 2 3.5 1.5 4 98.5Z"/><path fill="#E4A62F" d="M771 852c-29.837 21.332-62.206 39.983-97 52-.6-17.639-1.639-35.343-1.5-53 32.855-.445 65.686.335 98.5 1Z"/><path fill="#E3A029" d="M664 917c.444 8.596 2.526 17.296 2 26-4.694.612-6.513.196-11 0-.991-9.142-1.668-18.834-2-28l11 2Z"/></svg>