<svg width="48" height="48" viewBox="0 0 48 48" fill="none" xmlns="http://www.w3.org/2000/svg">
<path d="M41.5 23.5C41.5 13.8351 33.6649 6 24 6C14.3351 6 6.5 13.8351 6.5 23.5C6.5 32.2347 12.8995 39.4746 21.2656 40.7874V28.5586H16.8223V23.5H21.2656V19.6445C21.2656 15.2586 23.8783 12.8359 27.8757 12.8359C29.7903 12.8359 31.793 13.1777 31.793 13.1777V17.4844H29.5863C27.4124 17.4844 26.7344 18.8334 26.7344 20.2174V23.5H31.5879L30.812 28.5586H26.7344V40.7874C35.1005 39.4746 41.5 32.2348 41.5 23.5Z" fill="#1877F2"/>
<path d="M30.812 28.5586L31.5879 23.5H26.7344V20.2174C26.7344 18.8334 27.4124 17.4844 29.5863 17.4844H31.793V13.1777C31.793 13.1777 29.7903 12.8359 27.8757 12.8359C23.8783 12.8359 21.2656 15.2586 21.2656 19.6445V23.5H16.8223V28.5586H21.2656V40.7874C22.1702 40.9291 23.0844 41.0002 24 41C24.9156 41.0002 25.8298 40.9291 26.7344 40.7874V28.5586H30.812Z" fill="white"/>
</svg>
