<svg xmlns="http://www.w3.org/2000/svg" width="1024" height="1024"><path fill="none" d="M1023-1v1024H-1V-1h1024ZM113 640c.388 1.656.973 1.891 1 2 6.892 27.811 15.367 55.243 30 80-8.11 19.014-4.721 41.251-33 41.5 5.619 7.581 16.832 5.694 24.5 10.5 7.097 4.448 11.094 15.935 15 23 2.433.575 15.77-25.262 19.5-28l42 41c-24.187 3.329-52.687 7.888-76.5 13-5.286 1.135-37.036 7.984-37.5 11.5 1.48 2.42 3.287 4.718 5.5 6.5 25.299 20.375 229.83 37.855 272 40 143.338 7.292 358.019 9.536 496-24 11.854-2.881 40.348-8.151 41.5-21.5-2.922-6.949-97.434-21.717-111-23.5 25.112-27.225 51.025-56.566 70-88.5 5.698-9.59 9.246-20.545 16-29.5-3.317 19.975-12.17 61.392-37 62.5 4.956 2.8 11.95 1.119 17.5 3.5 12.654 5.429 13.776 33.498 19 45 2.318-7.987 8.14-44.972 16-47 2.014-.52 11.748 1.928 15.5-1.5-22.535-9.007-30.667-41.505-30-63.5.551-18.157 20.869-67.95 25-92.5 13.359-79.381-1.598-148.376-37-219.5 9.659.712 27.493-16.293 29-25.5 5.205-31.79-40.04-38.086-47-12.5-49.316-100.456-148.12-176.715-258.5-197-168.395-30.947-309.343 24.542-414.5 156.5C101.464 408.58 81.686 506.506 113 640Zm702.5-484c-17.293 2.533-21.236 33.271-7 43 27.39 18.718 45.969-48.707 7-43Zm-641 14c-17.998 4.235-14.965 40.855 11 36 19.301-3.609 20.008-43.296-11-36Zm687 13c-51.053 8.107-31.487 119.501 23 82 37.517-25.821 27.763-90.061-23-82Zm-692 52c-13.41 1.708-15.758 24.974-5 31 21.216 11.884 33.707-34.657 5-31Z"/><path fill="#EBA73A" d="M859 343c-3.433 12.619 3.619 36.941 18 38 35.402 71.124 50.359 140.119 37 219.5-4.131 24.55-24.449 74.343-25 92.5-.901-.111-.879.273-1 1-6.754 8.955-10.302 19.91-16 29.5-18.975 31.934-44.888 61.275-70 88.5-22.529-2.961-45.479-3.847-68-7 1.006-8.69 2.98-23.769 2-32 2.083-10.905 6.499-35.537 21-32.5-18.485-11.628-16.852-29.811-20-48.5-2.589-15.371-.666-34.44-13-46 .473-1.347 1.866-4.416 2-5 9.457.483 19.162 1.525 28.5 3 13.179 2.082 98.108 20.082 103 17 1.491-.939 1.299-2.493 2.5-3.5l-2.5-3.5L727 631c.933-10.414 1.268-34.939 0-45l72 1c11.212 5.946 12.104 4.149 12.5 20 3.486-6.188 5.107-13.866 8.5-20 7.253 1.457 12.999 1.271 11-7.5-.445-.804-5.345.241-6 .5l-11.5-14c-6.709 10.437-4.091 12.493-17.5 13-23.349.883-47.49-4.002-71-2-8.296-22.814-33.784-24.076-54-23 14.077-11.889 19.083-28.643 17-47l123.5-40c4.383-.995 7.37-8.637 3-10-6.718-2.096-113.296 38.192-129.5 41-3.846-9.949-12.37-15.645-23-17 44.497-27.451 93.173-48.142 139-72.5l-2.5-5.5c-2.889-.939-30.213 11.776-35 14-30.612 14.225-70.183 33.901-99 51-5.549 3.293-14.471 5.952-12.5 13-39.172-1.13-82.405.58-122 1v-1l62.5-1 11.5-25.5c8.004 1.922 4.728-1.236 5-1.5 38.834-37.782 74.68-83.371 115-120.5 2.431-5.494 1.012-9.467-5.5-6.5-30.151 32.001-64.307 62.288-93.5 95l-14 9.5c1.372-7.168 2.318-14.401 4-21.5 6.621-27.937 26.258-57.831 38-84.5 2.403-5.457 18.183-41.63 18-44-.278-3.6-3.098-5.392-6.5-4.5-3.342.877-9.406 21.888-11.5 26.5-10.764 23.709-23.968 47.779-34 71.5l-9.5 10c-3.929-.119-16.357-17.79-19.5-20 .383-5.125 1.561-10.602 3-15.5 3.764-12.811 33.736-96.938 32-102-.757-2.206-3.757-2.986-6-2-5.548 2.439-32.131 101.957-39 114.5-5.136 4.758-22.621 1.278-28 2l18-135.5c-4.677-5.564-8.399-1.286-10 4L543 363c-7.995 3.138-23.273 17.245-28 25l-11-191.5c-2.493-3.334-5.28-3.605-8 0L506 410c-3.309 5.433-18.411 11.31-14 20-18.506-19.124-67.904-44.02-88-16l-74-94.5c-2.18-3.289-8.235-3.05-9 1-1.209 6.397 70.784 91.324 79 103.5-1.075 14.986 10.565 35.216 22 44.5-3.508 4.134-10.413 10.056-13 14.5-10.223 1.614-24.531-1.735-34-1 .258-2.557.213-3.146-1.5-5-5.901-6.385-34.829-24.77-44-31-25.485-17.312-59.623-41.841-86-56-3.705-1.989-18.687-10.589-14.5 1.5 1.257 3.628 56.444 36.111 64.5 41.5 24.509 16.396 49.097 33.047 72.5 51-8.232 2.046-14.848 6.567-19 14-17.396-5.842-35.227-10.785-52.5-17-17.102-6.153-65.307-29.454-79-31-5.22-.589-13.286.981-8 7 3.542 4.034 87.837 34.667 100 39 11.607 4.135 23.757 7.274 35.5 11-2.322 14.294 1.353 37.911 15 46-17.693 1.829-46.05-.585-58 16-31.23-2.607-63.141-6.483-94.5-7-5.158-.085-34.643-2.795-29.5 7.5l120 8.5c-3.253 9.792-5.538 34.575-5 45-5.847 2.928-28.026 2.445-32 5-9.742-3.016-5.848-17.417-11.5-24-5.115 9.435-10.294 22.785-22.5 23.5 2.458 1.766 5.291 2.103 8 3.5-4.042.485-46.701 2.542-34.5 12 3.689 2.86 36.977-3.359 43.5-4 1.294 1.523 5.435 9.12 6.5 9 2.542-3.486 4.114-7.401 6.5-11l29-2c-5.667 9.386-2.998 66.494-2 80-6.156 2.145-46.982 18.165-48 21.5-1.457 4.775 1.313 5.763 5.5 5.5 8.089-.508 33.633-15.26 42.5-19 1.977 22.376 5.244 57.68 9 79-26.188 3.064-52.899 4.408-79 8l-42-41c4.173-3.063 11.123-3.765 16-5.5-24.119-1.579-26.578-34.605-35.5-52.5-1.972 2.448-5.35 8.305-6.5 11-14.633-24.757-23.108-52.189-30-80 29.208-5.332 27.977 30.282 35.5 49 5.433-18.491 2.34-51.486 29.5-50.5-26.368-13.836-28.513-41.163-30-68-8.989 22.789-4.636 63.501-36 67.5-31.314-133.494-11.536-231.42 73-337.5C291.157 170.542 432.105 115.053 600.5 146c110.38 20.285 209.184 96.544 258.5 197ZM431.5 243c-.942.198-3.27 2.544-3.5 3.5-.971 4.042 10.941 52.807 13 61 6.47 25.749 16.606 50.655 21 77 4.471 4.861 10.018 3.421 10-4-.024-9.72-19.191-62.44-23-77-3.618-13.829-6.81-28.059-10-42-1.12-4.893.707-20.221-7.5-18.5Zm-60 4c-2.036.444-3.56 4.199-3.5 6.5.09 3.415 18.993 47.816 22 55 5.487 13.108 27.591 67.103 34 75 2.716 3.346 8.613 5.192 10 1 1.178-3.561-27.2-59.238-31-68-3.916-9.029-24.873-68.481-28.5-69.5-.551-.155-2.378-.136-3 0Zm-133 58c-1.398.251-3.565 2.896-3.5 4.5.408 10.076 131.823 120.404 145.5 139.5 17.355-.01-2.818-15.733-8-21-41.232-41.908-89.384-79.081-130-122-1.582-.127-2.042-1.351-4-1Zm544 19L618 465.5l6.5 3.5c54.185-46.704 109.536-92.51 163.5-139.5.497-4.051-1.884-5.921-5.5-5.5Zm-622 177c-9.975 3.585 6.309 9.208 9 10 37.569 11.054 108.363 26.292 147 31 4.615.562 23.496 1.321 12-7-4.41-3.192-70.433-13.532-82-16-13.006-2.776-78.472-20.705-86-18Zm671 13c-19.954.649-113.315 12.358-130 18-6.948 2.35-9.135 9.578 0 10 12.035.556 116.582-14.214 130-18 4.352-1.228 10.385-2.707 9.5-8.5-1.031-2.272-7.323-1.571-9.5-1.5Zm-4 23c-2.308 2.121-11.145 20.362-8 21l8-21Zm27 46c-2.823 1.228-.578 9.261 1 10 5.555.405 11.211.255 11.5-6.5-.83-2.927-9.479-3.824-12.5-3.5Zm-645 124c-2.697 15.586-5.738 33.039-21.5 40.5 17.242-4.623 16.225 14.664 21.5 25.5.998-13.542 7.583-18.957 16.5-27.5-12.786-9.363-12.982-24.579-16.5-38.5Z"/><path fill="#F07A2B" d="M815.5 156c38.969-5.707 20.39 61.718-7 43-14.236-9.729-10.293-40.467 7-43Z"/><path fill="#EBA63A" d="M174.5 170c31.008-7.296 30.301 32.391 11 36-25.965 4.855-28.998-31.765-11-36Z"/><path fill="#EF782B" d="M861.5 183c50.763-8.061 60.517 56.179 23 82-54.487 37.501-74.053-73.893-23-82Z"/><path fill="#FEFDFB" d="M515 388c-4.561 7.482-5.965 17.015-9 22l-10-213.5c2.72-3.605 5.507-3.334 8 0L515 388ZM552 361c-.817.11-8.571 1.832-9 2l17-133.5c1.601-5.286 5.323-9.564 10-4L552 361Z"/><path fill="#F07A2B" d="M169.5 235c28.707-3.657 16.216 42.884-5 31-10.758-6.026-8.41-29.292 5-31Z"/><path fill="#FEFDFB" d="M431.5 243c8.207-1.721 6.38 13.607 7.5 18.5 3.19 13.941 6.382 28.171 10 42 3.809 14.56 22.976 67.28 23 77 .018 7.421-5.529 8.861-10 4-4.394-26.345-14.53-51.251-21-77-2.059-8.193-13.971-56.958-13-61 .23-.956 2.558-3.302 3.5-3.5ZM590 364c-2.078-1.462-12.442-1.917-10-5 6.869-12.543 33.452-112.061 39-114.5 2.243-.986 5.243-.206 6 2 1.736 5.062-28.236 89.189-32 102-1.439 4.898-2.617 10.375-3 15.5ZM371.5 247c.622-.136 2.449-.155 3 0 3.627 1.019 24.584 60.471 28.5 69.5 3.8 8.762 32.178 64.439 31 68-1.387 4.192-7.284 2.346-10-1-6.409-7.897-28.513-61.892-34-75-3.007-7.184-21.91-51.585-22-55-.06-2.301 1.464-6.056 3.5-6.5ZM615 409c.169-4.92-3.325-16.757-3-20.5.162-1.869 5.792-11.644 7-14.5 10.032-23.721 23.236-47.791 34-71.5 2.094-4.612 8.158-25.623 11.5-26.5 3.402-.892 6.222.9 6.5 4.5.183 2.37-15.597 38.543-18 44-11.742 26.669-31.379 56.563-38 84.5ZM238.5 305c1.958-.351 2.418.873 4 1 40.616 42.919 88.768 80.092 130 122 5.182 5.267 25.355 20.99 8 21-13.677-19.096-145.092-129.424-145.5-139.5-.065-1.604 2.102-4.249 3.5-4.5Z"/><path fill="#FEFDFC" d="M404 414c-.655.913-3.935 9.091-4 10-8.216-12.176-80.209-97.103-79-103.5.765-4.05 6.82-4.289 9-1l74 94.5Z"/><path fill="#FEFDFB" d="M782.5 324c3.616-.421 5.997 1.449 5.5 5.5-53.964 46.99-109.315 92.796-163.5 139.5l-6.5-3.5L782.5 324Z"/><path fill="#FEFDFC" d="M609 453c-15.691-1.272 11.233-26.659 16-32 29.193-32.712 63.349-62.999 93.5-95 6.512-2.967 7.931 1.006 5.5 6.5-40.32 37.129-76.166 82.718-115 120.5Z"/><path fill="#BC432D" d="M877 381c-14.381-1.059-21.433-25.381-18-38 6.96-25.586 52.205-19.29 47 12.5-1.507 9.207-19.341 26.212-29 25.5Z"/><path fill="#F8C025" d="M580 359c-2.442 3.083 7.922 3.538 10 5 3.143 2.21 15.571 19.881 19.5 20l9.5-10c-1.208 2.856-6.838 12.631-7 14.5-.325 3.743 3.169 15.58 3 20.5-1.682 7.099-2.628 14.332-4 21.5l14-9.5c-4.767 5.341-31.691 30.728-16 32-.272.264 3.004 3.422-5 1.5L592.5 480l-62.5 1c-8.673-4.912-11.091-17.287-17-25.5-4.014-5.579-16.366-20.712-21-25.5-4.411-8.69 10.691-14.567 14-20 3.035-4.985 4.439-14.518 9-22 4.727-7.755 20.005-21.862 28-25 .429-.168 8.183-1.89 9-2 5.379-.722 22.864 2.758 28-2Zm-26.5 50c-11.92 2.588-19.778 56.269-20 68 3.575 2.926 32.428-37.628 33.5-44.5 1.419-9.093-.811-26.255-13.5-23.5Z"/><path fill="#FEFDFB" d="M375 482c-1.965.153-6.701 1.429-9 2-23.403-17.953-47.991-34.604-72.5-51-8.056-5.389-63.243-37.872-64.5-41.5-4.187-12.089 10.795-3.489 14.5-1.5 26.377 14.159 60.515 38.688 86 56 9.171 6.23 38.099 24.615 44 31 1.713 1.854 1.758 2.443 1.5 5Z"/><path fill="#691E24" d="M492 430c4.634 4.788 16.986 19.921 21 25.5 5.909 8.213 8.327 20.588 17 25.5v1c-16.859.179-81.879-2.071-92.5 4-19.664 11.241-22.2 52.088-18 72 80.178-2.641 160.876 1.767 241-1 2.512-.087 6.239-2.773 10.5-3 20.216-1.076 45.704.186 54 23 .609 1.674 1.759 7.09 2 9 1.268 10.061.933 34.586 0 45-.223 2.494-.573 8.144-1 10-.134.584-1.527 3.653-2 5-4.505 12.84-15.552 24.748-26 33l-227.5 1 19.5 50c-6.898.031-14.202 3.623-23.5 3-2.829-.19-6.118-4.001-6.5-4l-17.5-49-120.5-1c-14.984-4.104-27.901-34.922-30-49-.366-2.455-.864-4.369-1-7-.538-10.425 1.747-35.208 5-45 .316-.952 3.712-8.6 4-9 11.95-16.585 40.307-14.171 58-16 11.002 6.521 29.627 5.16 42 4.5-.707-23.236-3.065-53.772 9-74.5 2.587-4.444 9.492-10.366 13-14.5-11.435-9.284-23.075-29.514-22-44.5.065-.909 3.345-9.087 4-10 20.096-28.02 69.494-3.124 88 16Zm-61.5 2c-3.219 1.43-.469 8.197.5 10.5 9.137 21.729 51.608 34.795 73 38-17.808-23.668-43.215-44.781-73.5-48.5Zm127 144c-45.371-.014-91.155.844-136.5 2.5 1.976 30.406 23.716 49.677 36.5 75.5h194c35.733-5.04 40.089-63.283 10-75-17.049-6.639-81.641-2.993-104-3Zm-191 1c-29.182 4.299-36.525 42.362-20.5 63.5 17.073 22.521 57.686 10.463 82.5 13.5-10.924-24.684-23.525-48.935-25.5-76.5-1.349-1.23-32.924-1.027-36.5-.5Z"/><path fill="#FEFDFB" d="M662 481c-.699-.089-7.63.068-10 0-1.971-7.048 6.951-9.707 12.5-13 28.817-17.099 68.388-36.775 99-51 4.787-2.224 32.111-14.939 35-14l2.5 5.5c-45.827 24.358-94.503 45.049-139 72.5Z"/><path fill="#6A1E25" d="M553.5 409c12.689-2.755 14.919 14.407 13.5 23.5-1.072 6.872-29.925 47.426-33.5 44.5.222-11.731 8.08-65.412 20-68Z"/><path fill="#ECA939" d="M430.5 432c30.285 3.719 55.692 24.832 73.5 48.5-21.392-3.205-63.863-16.271-73-38-.969-2.303-3.719-9.07-.5-10.5Z"/><path fill="#FEFDFB" d="M347 498c-.801 1.434-3.83 7.956-4 9-11.743-3.726-23.893-6.865-35.5-11-12.163-4.333-96.458-34.966-100-39-5.286-6.019 2.78-7.589 8-7 13.693 1.546 61.898 24.847 79 31 17.273 6.215 35.104 11.158 52.5 17ZM688 507c-.053-.471-2.589-7.936-3-9 16.204-2.808 122.782-43.096 129.5-41 4.37 1.363 1.383 9.005-3 10L688 507Z"/><path fill="#52AAB2" d="M652 481c2.37.068 9.301-.089 10 0 10.63 1.355 19.154 7.051 23 17 .411 1.064 2.947 8.529 3 9 2.083 18.357-2.923 35.111-17 47-4.261.227-7.988 2.913-10.5 3-80.124 2.767-160.822-1.641-241 1-4.2-19.912-1.664-60.759 18-72 10.621-6.071 75.641-3.821 92.5-4 39.595-.42 82.828-2.13 122-1Z"/><path fill="#51AAB1" d="M409 483c-12.065 20.728-9.707 51.264-9 74.5-12.373.66-30.998 2.021-42-4.5-13.647-8.089-17.322-31.706-15-46 .17-1.044 3.199-7.566 4-9 4.152-7.433 10.768-11.954 19-14 2.299-.571 7.035-1.847 9-2 9.469-.735 23.777 2.614 34 1Z"/><path fill="#FEFDFA" d="M160.5 501c7.528-2.705 72.994 15.224 86 18 11.567 2.468 77.59 12.808 82 16 11.496 8.321-7.385 7.562-12 7-38.637-4.708-109.431-19.946-147-31-2.691-.792-18.975-6.415-9-10Z"/><path fill="#FEFCFA" d="M831.5 514c2.177-.071 8.469-.772 9.5 1.5.885 5.793-5.148 7.272-9.5 8.5-13.418 3.786-117.965 18.556-130 18-9.135-.422-6.948-7.65 0-10 16.685-5.642 110.046-17.351 130-18Z"/><path fill="#A7A276" d="m827.5 537-8 21c-3.145-.638 5.692-18.879 8-21Z"/><path fill="#FEFDFB" d="M300 569c-.288.4-3.684 8.048-4 9l-120-8.5c-5.143-10.295 24.342-7.585 29.5-7.5 31.359.517 63.27 4.393 94.5 7Z"/><path fill="#50AAB1" d="M825 580c-3.737 1.48-3.624 4.512-5 7-3.393 6.134-5.014 13.812-8.5 20-.396-15.851-1.288-14.054-12.5-20-2.307-1.223-4.475-2.649-7-3.5l4-4.5c13.409-.507 10.791-2.563 17.5-13l11.5 14Z"/><path fill="#681C24" d="M114 642c-.027-.109-.612-.344-1-2 31.364-3.999 27.011-44.711 36-67.5 1.487 26.837 3.632 54.164 30 68-27.16-.986-24.067 32.009-29.5 50.5-7.523-18.718-6.292-54.332-35.5-49Z"/><path fill="#52AAB2" d="M557.5 576c22.359.007 86.951-3.639 104 3 30.089 11.717 25.733 69.96-10 75h-194c-12.784-25.823-34.524-45.094-36.5-75.5 45.345-1.656 91.129-2.514 136.5-2.5Z"/><path fill="#51ABB2" d="M366.5 577c3.576-.527 35.151-.73 36.5.5 1.975 27.565 14.576 51.816 25.5 76.5-24.814-3.037-65.427 9.021-82.5-13.5-16.025-21.138-8.682-59.201 20.5-63.5Z"/><path fill="#FDFDFB" d="m796 579-4 4.5c2.525.851 4.693 2.277 7 3.5l-72-1c-.241-1.91-1.391-7.326-2-9 23.51-2.002 47.651 2.883 71 2ZM820 587c1.376-2.488 1.263-5.52 5-7 .655-.259 5.555-1.304 6-.5 1.999 8.771-3.747 8.957-11 7.5Z"/><path fill="#FEFDFB" d="M854.5 583c3.021-.324 11.67.573 12.5 3.5-.289 6.755-5.945 6.905-11.5 6.5-1.578-.739-3.823-8.772-1-10Z"/><path fill="#50AAB0" d="M259 628c-.414.266-3.292 7.932-4 9-2.386 3.599-3.958 7.514-6.5 11-1.065.12-5.206-7.477-6.5-9-4.725-5.561-2.22-4.505-9-8-2.709-1.397-5.542-1.734-8-3.5 12.206-.715 17.385-14.065 22.5-23.5 5.652 6.583 1.758 20.984 11.5 24Z"/><path fill="#FDFDFB" d="M292 630c-2.268.755-6.802 3.015-8 5l-29 2c.708-1.068 3.586-8.734 4-9 3.974-2.555 26.153-2.072 32-5 .136 2.631.634 4.545 1 7Z"/><path fill="#BE442D" d="M322 679c-.829 21.345-1.896 43.148-2 64.5-.115 23.609-1.641 56.809 1 79.5-19.298 1.384-26.607-1.742-30-21-3.756-21.32-7.023-56.624-9-79-.231-2.619.194-5.373 0-8-.998-13.506-3.667-70.614 2-80 1.198-1.985 5.732-4.245 8-5 2.099 14.078 15.016 44.896 30 49Z"/><path fill="#FDFDFB" d="M233 631c6.78 3.495 4.275 2.439 9 8-6.523.641-39.811 6.86-43.5 4-12.201-9.458 30.458-11.515 34.5-12Z"/><path fill="#FDFCFA" d="M726 641c.427-1.856.777-7.506 1-10l130.5 23 2.5 3.5c-1.201 1.007-1.009 2.561-2.5 3.5-4.892 3.082-89.821-14.918-103-17-9.338-1.475-19.043-2.517-28.5-3Z"/><path fill="#BD432D" d="M737 692c-6.753 15.728-5.562 40.032-26 44-.775-19.473 3.638-44.881-13-57 10.448-8.252 21.495-20.16 26-33 12.334 11.56 10.411 30.629 13 46Z"/><path fill="#51AAB1" d="M460 729c-15.737.045-82.287-.764-91.5 5-16.27 10.18-15.05 85.898 17 85 80.514-6.964 177.36 9.282 256 0 29.475-3.479 29.076-31.225 27.5-55.5-.822-12.663-4.811-25.501-17.5-30.5-19.634-7.735-132.175-3.131-161.5-3l-19.5-50 227.5-1c16.638 12.119 12.225 37.527 13 57 .054 1.361-.063 3.251 0 5 .858 23.989 3.361 59.033 1 82-1.802 17.525-13.594 22.068-26.5 32h-338c-13.444-5.43-24.746-16.934-26.5-32-2.641-22.691-1.115-55.891-1-79.5.104-21.352 1.171-43.155 2-64.5l120.5 1 17.5 49Z"/><path fill="#681C24" d="M736 773c-.158-1.327-7.261-24.386-8-25.5-3.233-4.873-11.483-6.791-17-6.5-.063-1.749.054-3.639 0-5 20.438-3.968 19.247-28.272 26-44 3.148 18.689 1.515 36.872 20 48.5-14.501-3.037-18.917 21.595-21 32.5Z"/><path fill="#691D24" d="M888 694c.121-.727.099-1.111 1-1-.667 21.995 7.465 54.493 30 63.5-3.752 3.428-13.486.98-15.5 1.5-7.86 2.028-13.682 39.013-16 47-5.224-11.502-6.346-39.571-19-45-5.55-2.381-12.544-.7-17.5-3.5 24.83-1.108 33.683-42.525 37-62.5Z"/><path fill="#661C24" d="M209.5 707c3.518 13.921 3.714 29.137 16.5 38.5-8.917 8.543-15.502 13.958-16.5 27.5-5.275-10.836-4.258-30.123-21.5-25.5 15.762-7.461 18.803-24.914 21.5-40.5Z"/><path fill="#EE762A" d="M170 769c-3.73 2.738-17.067 28.575-19.5 28-3.906-7.065-7.903-18.552-15-23-7.668-4.806-18.881-2.919-24.5-10.5 28.279-.249 24.89-22.486 33-41.5 1.15-2.695 4.528-8.552 6.5-11 8.922 17.895 11.381 50.921 35.5 52.5-4.877 1.735-11.827 2.437-16 5.5Z"/><path fill="#FEFCFB" d="M282 715c.194 2.627-.231 5.381 0 8-8.867 3.74-34.411 18.492-42.5 19-4.187.263-6.957-.725-5.5-5.5 1.018-3.335 41.844-19.355 48-21.5Z"/><path fill="#F6BF2C" d="M490 730c29.325-.131 141.866-4.735 161.5 3 12.689 4.999 16.678 17.837 17.5 30.5 1.576 24.275 1.975 52.021-27.5 55.5-78.64 9.282-175.486-6.964-256 0-32.05.898-33.27-74.82-17-85 9.213-5.764 75.763-4.955 91.5-5 .382-.001 3.671 3.81 6.5 4 9.298.623 16.602-2.969 23.5-3Zm-107.5 10c-19.09-.758-13.502 53.16-8.5 60.5 2.303 3.38 6.375 4.303 9.5 6.5 89.07.373 179.659 4.274 268-2 2.18-2.095 4.817-4.374 5.5-7.5 2.455-11.244 3.292-53.009-12.5-56.5l-262-1Z"/><path fill="#AB7A31" d="m382.5 740 262 1c15.792 3.491 14.955 45.256 12.5 56.5-.683 3.126-3.32 5.405-5.5 7.5-88.341 6.274-178.93 2.373-268 2-3.125-2.197-7.197-3.12-9.5-6.5-5.002-7.34-10.59-61.258 8.5-60.5Zm188 27c-42.489-.725-85.431 2.621-128 1l-4.5 3.5c-.845 4.145 1.506 6.615 5.5 7.5 12.437 2.754 113.799 1.996 129 0 4.544-.597 9.729-1.747 12.5-5.5 2.19-8.323-9.316-6.412-14.5-6.5Z"/><path fill="#BC422C" d="M736 773c.98 8.231-.994 23.31-2 32-.488 4.219 1.239 13.253-3.5 16-3.414 1.979-14.184 1.612-18.5 2 2.361-22.967-.142-58.011-1-82 5.517-.291 13.767 1.627 17 6.5.739 1.114 7.842 24.173 8 25.5Z"/><path fill="#F7BF2A" d="M570.5 767c5.184.088 16.69-1.823 14.5 6.5-2.771 3.753-7.956 4.903-12.5 5.5-15.201 1.996-116.563 2.754-129 0-3.994-.885-6.345-3.355-5.5-7.5l4.5-3.5c42.569 1.621 85.511-1.725 128-1Z"/><path fill="#691E25" d="M291 802c3.393 19.258 10.702 22.384 30 21 1.754 15.066 13.056 26.57 26.5 32h338c12.906-9.932 24.698-14.475 26.5-32 4.316-.388 15.086-.021 18.5-2 4.739-2.747 3.012-11.781 3.5-16 22.521 3.153 45.471 4.039 68 7 13.566 1.783 108.078 16.551 111 23.5-1.152 13.349-29.646 18.619-41.5 21.5-137.981 33.536-352.662 31.292-496 24-42.17-2.145-246.701-19.625-272-40-2.213-1.782-4.02-4.08-5.5-6.5.464-3.516 32.214-10.365 37.5-11.5 23.813-5.112 52.313-9.671 76.5-13 26.101-3.592 52.812-4.936 79-8Z"/></svg>