<svg xmlns="http://www.w3.org/2000/svg" width="1024" height="1024"><path fill="none" d="M1023-1v1024H-1V-1h1024ZM264 222c-9.42 6.609-17.056 9.969-26 20-1.251 1.403-1.732 3.319-4 3-47.555-67.765-149.14 16.259-83.5 71 3.299 2.752 12.982 6.067 14.5 9-52.529 79.55-76.521 176.819-64 272-8.474.113-38.893-.417-44.5 1-10.187 2.575-10.456 29.281-2 33 3.11 1.368 25.264 1.884 30.5 2-.454 14.798.543 22.442 12 32 7.988 6.664 11.589 7.853 22 10l2 197.5-73.5 1.5c-4.88 3.948-5.15 11.114 1 14l797-1 3-4h124c6.475-3.149 7.533-8.132 2-13L853 867.5c2.964-38.787 4.093-78.411 5-117.5 25.946-34.692 43.055-75.487 55-117 24.329-2.327 18.506-32.687 7-35 15.686-102.994-15.392-206.174-76-289 25.292.606 66.513-3.216 71-36.5 8.203-60.849-105.61-68.282-117-15.5-115.568-112.629-287.405-149.031-438.5-89-34.271 13.616-65.497 32.949-95.5 54Zm-60.5-35c-5.3.387-7.46 27.633-3 31 10.618 3.434 8.237-31.383 3-31Zm-31 7c-3.238.478-5.896 23.602-3 25 9.477 4.576 10.148-26.055 3-25Zm63 10c-1.273.371-14.714 21.411-8 23 5.486 1.233 20.603-26.67 8-23Zm-98 2c-5.536 1.573 7.923 23.833 11 23 7.575-2.052-4.715-24.785-11-23Zm-27 24c-1.791.877-1.607 2.905-1.5 4.5 3.903.812 21.172 13.377 22.5 13.5 14.631 1.358-14.834-21.019-21-18Zm-13 31c-2.647.527-6.817 5.325-3 7 1.897.832 31.1 3.963 31.5.5-.214-4.624-26.391-7.92-28.5-7.5Zm24 25c-2.312.236-23.05 8.893-21.5 13.5 3.806 11.312 43.843-15.779 21.5-13.5Zm6 24c-2.023.235-20.207 10.53-20.5 12.5-1.396 9.393 24.676-1.266 26.5-6.5 1.593-4.571-1.381-6.538-6-6Zm19 16c-3.625.541-35.956 26.081-34.5 29.5 3.493 8.2 18.917-10.53 21.5-12.5 3.323-2.534 19.679-9.703 18.5-14.5-1.704-1.999-2.638-2.927-5.5-2.5Z"/><path fill="#EDD47D" d="M798 257c-1.978 9.168-.608 18.274 4 26.5 3.43 6.123 18.885 16.696 19 18 .075.852-9.108 11.755-10.5 13.5-18.587-41.363-88.564-23.498-76.5 23.5 8.931 34.793 68.414 35.596 78-2 .917-3.595-.337-12.641 0-14 .33-1.331 21.139-15.334 22.5-15.5.722-.088 6.312 1.924 9.5 2 60.608 82.826 91.686 186.006 76 289-10.712-2.153-37.332.073-50 0 .392-8.494-4.986-14.155-5-23-.001-.559 1.689-8.423 2-11 .04-.328-.04-.672 0-1 .294-2.404 3.644-7.244 2-11.5l-2-.5c5.217-6.236 3.213-10.146-1-16-5.77-8.017-7.332-5.767-17-6 1.085-3.379.049-5.751 0-9-.01-.66-.027-1.342 0-2 .055-1.314-.128-2.7 0-4 .064-.65-.07-1.352 0-2 .563-5.21 2.4-10.858 3-17 .421-4.305 4.831-6.859-3.5-11-36.779-2.374-73.655-3.167-110.5-4-9.848-30.483-32.255-95.908-63.5-109-10.796-4.524-26.457-6.088-38.5-11-5.544-2.261-10.473-7.98-18-8 .623-1.994-.071-4.76 0-5 .562-1.904 4.614-14.285 5-15 .72-1.332 18.048-21.774 19.5-22 1.456-.227 5.363 2.968 6 3 28.226 1.407 46.442-31.021 15.5-43 18.492-26.454 10.212-81.152-23.5-95-21.64-8.889-116.207-9.527-134 3-14.578 10.263 11.231 30.303 12.5 36.5 1.425 6.955-6.673 30.266-4 39.5-5.018.072-9.336-2.797-14.5-2-17.983 2.776-9.265 37.96 4 44 3.846 1.751 12.717 1.893 13.5 2.5.831.644 5.951 14.813 9 19 3.578 4.913 13.169 14.998 18 18.5.548 6.082-1.531 11.913-1 18-7.021 1.042-13.383 6.518-19 9-17.944 7.929-40.866 13.02-54 29-9.511-2.358-16.421 1.587-22 9l9-36c39.697-4.773 13.484-25.857-2.5-41-29.168-27.633-78.797-61.803-119-37-9.307 5.742-16.164 14.205-13.5 25.5-.59 1.973-8.116-.17-10.5.5-13.903 3.908-11.655 50.934-5.5 62-2.404 7.271 1.308 7.466 4 13 3.854 7.923 8.469 18.557 17 22 .345 1.279 3.92 7.574 4 8.5.949 10.968-7.702 18.789-9 27.5-30.965-.544-51.819 13.112-74 33-8.728 7.826-19.256 17.086-25 27-7.784 8.713-15.734 15.899-18 27-37.969 56.489-.855 84.21 57.5 70 7.67-1.868 43.584-17.422 46-17 .781.136 3.332 5.309 4.5 6-3.396 7.063 3.358 4.39 7 4 3.478 2.322-2.061 7.847-2.5 11l-81.5 4c-13.137-1.066-25.624-3.185-37.5-9-2.039-.999-7.478-6.861-8-7-2.864-.76-3.3 1.979-3.5 2-28.959 2.995-58.098-.386-87 0-12.521-95.181 11.471-192.45 64-272 1.91 3.691 4.58 22.936 2 26-.138.163-3.182-.579-4 1.5-1.326 3.368 7.014 27.991 10 32 13.442 18.045 39.255 12.841 49-6 2.775-5.365 12.201-32.568 3-34.5 1.214-6.559-1.636-19.877 0-25.5.258-.885 10.002-10.501 12-14 10.715-18.765 9.377-41.863-3-59.5 2.268.319 2.749-1.597 4-3-.308 2.688 3.934 3.409 5.5 3 1.538-.401 22.636-19.216 20.5-23 30.003-21.051 61.229-40.384 95.5-54 151.095-60.031 322.932-23.629 438.5 89Zm-532.5-2c-3.066.132-12.589 3.942-17 3-11.679 11.318 20.413 7.094 24 5 9.792-5.716-.701-8.271-7-8Zm-15 33c-3.633 1.207-2.695 5.284 0 7 10.381 6.61 41.798-.484 27-6-1.266-.472-25.718-1.426-27-1Zm-1 26c-3.545 1.08-4.545 5.804-1 7 1.094.369 21.872 2.245 23 2 .242-.053 3.474-3.254 3.5-3.5.584-5.583-23.052-6.246-25.5-5.5Zm-13 11c-16.875 1.564 25.199 33.718 27.5 21.5.575-3.053-23.898-17.496-27.5-21.5Zm535 47c-10.392 2.34-7.774 21.102 6 18 10.392-2.34 7.774-21.102-6-18Zm9.5 22c-3.656-4.823-3.71-1.282-8-2-6.408-1.072-13.166-4.831-18 3.5-8.413 14.498 15.018 25.542 20 9.5 4.327 4.786 2.854.239 4 1 6.178 4.104 6.474 9.838 17.5 4 18.009-9.534-4.981-33.893-15.5-16Z"/><path fill="#631E2B" d="M664 270c-1.038 1.485-5.827 3.064-7 5.5l-2-1-12.5-43.5c-36.104 8.344-77.553 12.959-111-6-5.048 9.488-3.88 28.818-16.5 29-2.673-9.234 5.425-32.545 4-39.5-1.269-6.197-27.078-26.237-12.5-36.5 17.793-12.527 112.36-11.889 134-3 33.712 13.848 41.992 68.546 23.5 95Z"/><path fill="#F4A618" d="M203.5 187c5.237-.383 7.618 34.434-3 31-4.46-3.367-2.3-30.613 3-31Z"/><path fill="#F4A71A" d="M172.5 194c7.148-1.055 6.477 29.576-3 25-2.896-1.398-.238-24.522 3-25Z"/><path fill="#F5A616" d="M235.5 204c12.603-3.67-2.514 24.233-8 23-6.714-1.589 6.727-22.629 8-23Z"/><path fill="#F5A718" d="M137.5 206c6.285-1.785 18.575 20.948 11 23-3.077.833-16.536-21.427-11-23Z"/><path fill="#F2A91E" d="M234 245c12.377 17.637 13.715 40.735 3 59.5-1.998 3.499-11.742 13.115-12 14-1.636 5.623 1.214 18.941 0 25.5-5.107-1.072-14.771 7.448-20 10 2.052-10.106-2.733-35.268 0-43.5.303-.912 12.232-7.826 15-12 9.336-14.08 6.067-31.015-4-43.5-27.845-34.534-76.237-7.723-63 33.5 3.144 9.792 9.6 14.173 18.5 17.5 2.245.839 5.231-1.076 5.5-1 1.499.424 5.388 3.676 6 5.5l7 47.5c-8.758.099-15.318-2.879-23-7 2.58-3.064-.09-22.309-2-26-1.518-2.933-11.201-6.248-14.5-9-65.64-54.741 35.945-138.765 83.5-71Z"/><path fill="#611C2A" d="M844 309c-3.188-.076-8.778-2.088-9.5-2-1.361.166-22.17 14.169-22.5 15.5-.337 1.359.917 10.405 0 14-9.586 37.596-69.069 36.793-78 2-12.064-46.998 57.913-64.863 76.5-23.5 1.392-1.745 10.575-12.648 10.5-13.5-.115-1.304-15.57-11.877-19-18-4.608-8.226-5.978-17.332-4-26.5 11.39-52.782 125.203-45.349 117 15.5-4.487 33.284-45.708 37.106-71 36.5Zm-20-12c1.253.922 3.069 1.02 4 2.5l-7.5 11.5c4.66-5.349 13.043-6.005 17.5-8 31.022 13.916 91.958-15.601 68-54.5-32.311-52.461-155.19-5.334-82 48.5Zm-57.5-1c-39.227 5.191-38.09 61.462 2 65 52.497 4.633 51.956-72.14-2-65Z"/><path fill="#F2A417" d="M264 222c2.136 3.784-18.962 22.599-20.5 23-1.566.409-5.808-.312-5.5-3 8.944-10.031 16.58-13.391 26-20Z"/><path fill="#E9711E" d="M664 270c30.942 11.979 12.726 44.407-15.5 43-.637-.032-4.544-3.227-6-3-1.452.226-18.78 20.668-19.5 22-7.365 1.313-14.468 8.702-21.5 11-18.535 6.057-40.515 4.587-56.5-7-4.831-3.502-14.422-13.587-18-18.5-3.049-4.187-8.169-18.356-9-19-.783-.607-9.654-.749-13.5-2.5-13.265-6.04-21.983-41.224-4-44 5.164-.797 9.482 2.072 14.5 2 12.62-.182 11.452-19.512 16.5-29 33.447 18.959 74.896 14.344 111 6l12.5 43.5 2 1c1.173-2.436 5.962-4.015 7-5.5Zm-129.5-16c-1.111.198-8.232 3.57-8.5 4.5.879 8.795 9.857 1.678 14.5 1.5 5.189-.199 18.455 5.491 19.5 2.5 2.034-5.825-20.868-9.327-25.5-8.5Zm65 11c-12.135 4.957 13.073 4.791 14 5 6.737 1.519 15.371 11.4 19.5 5.5 1.738-7.995-28.07-12.718-33.5-10.5Zm-59 1c-5.613 1.831-3.692 13.618 5 11 6.263-1.886 3.203-13.676-5-11Zm-37 6c-7.792 2.768 9.333 7.379 11.5 3.5-2.822 1.236-10.934-3.701-11.5-3.5Zm108 5c-7.262 1.378-3.906 12.411 2 12 7.125-.496 7.202-13.746-2-12Zm-33 2c-3.075 3.769-11.802 8.733-7 14l7-14Zm75 12c-.81.482-.807 2.55 0 3 6.359-3.497 5.378 1.762 9.5 3.5 1.38-5.162-6.612-8.219-9.5-6.5Zm-97 15c-10.518 1.474 6.602 22.623 14 24 13.158 2.449 25.146-7.751 29.5-19.5-10.973-4.811-17.725 3.858-29.5 1.5-4.496-.901-7.831-6.865-14-6Z"/><path fill="#FDFDFC" d="M838 303c.629-.282 7.131-6.745 8.5-7 15.755-2.936 33.578 5.857 45.5-16.5 25.343-47.528-82.037-57.846-74-9 1.067 6.482 10.922 15.02 11 16 .046.58-5.792 7.887-5 10.5-73.19-53.834 49.689-100.961 82-48.5 23.958 38.899-36.978 68.416-68 54.5Z"/><path fill="#F2A619" d="M110.5 230c6.166-3.019 35.631 19.358 21 18-1.328-.123-18.597-12.688-22.5-13.5-.107-1.595-.291-3.623 1.5-4.5Z"/><path fill="#F2AB1F" d="M838 303c-4.457 1.995-12.84 2.651-17.5 8l7.5-11.5c-.931-1.48-2.747-1.578-4-2.5-.792-2.613 5.046-9.92 5-10.5-.078-.98-9.933-9.518-11-16-8.037-48.846 99.343-38.528 74 9-11.922 22.357-29.745 13.564-45.5 16.5-1.369.255-7.871 6.718-8.5 7Z"/><path fill="#FEFEFD" d="m216 255-39 50c-.269-.076-3.255 1.839-5.5 1-8.9-3.327-15.356-7.708-18.5-17.5-13.237-41.223 35.155-68.034 63-33.5Z"/><path fill="#661D2F" d="M534.5 254c4.632-.827 27.534 2.675 25.5 8.5-1.045 2.991-14.311-2.699-19.5-2.5-4.643.178-13.621 7.295-14.5-1.5.268-.93 7.389-4.302 8.5-4.5Z"/><path fill="#EDD47D" d="M205 354c-7.517 3.669-5.38 3.891-15 4l-7-47.5c-.612-1.824-4.501-5.076-6-5.5l39-50c10.067 12.485 13.336 29.42 4 43.5-2.768 4.174-14.697 11.088-15 12-2.733 8.232 2.052 33.394 0 43.5Z"/><path fill="#F2A61D" d="M265.5 255c6.299-.271 16.792 2.284 7 8-3.587 2.094-35.679 6.318-24-5 4.411.942 13.934-2.868 17-3Z"/><path fill="#F3A719" d="M97.5 261c2.109-.42 28.286 2.876 28.5 7.5-.4 3.463-29.603.332-31.5-.5-3.817-1.675.353-6.473 3-7Z"/><path fill="#661D2F" d="M599.5 265c5.43-2.218 35.238 2.505 33.5 10.5-4.129 5.9-12.763-3.981-19.5-5.5-.927-.209-26.135-.043-14-5Z"/><path fill="#681B2F" d="M540.5 266c8.203-2.676 11.263 9.114 5 11-8.692 2.618-10.613-9.169-5-11Z"/><path fill="#671D31" d="M503.5 272c.566-.201 8.678 4.736 11.5 3.5-2.167 3.879-19.292-.732-11.5-3.5Z"/><path fill="#671C2D" d="M611.5 277c9.202-1.746 9.125 11.504 2 12-5.906.411-9.262-10.622-2-12Z"/><path fill="#631E2B" d="M458 365c-30.318 3.645-70.165-3.922-97.5-17-2.298 13.558-7.888 28.252-22 33-2.037-2.562.408-4.796-1.5-8.5-5.136-9.972-26.284-8.737-30 2.5-6.155-11.066-8.403-58.092 5.5-62 2.384-.67 9.91 1.473 10.5-.5-2.664-11.295 4.193-19.758 13.5-25.5 40.203-24.803 89.832 9.367 119 37 15.984 15.143 42.197 36.227 2.5 41Z"/><path fill="#5F1735" d="m578.5 279-7 14c-4.802-5.267 3.925-10.231 7-14Z"/><path fill="#F3A81A" d="M121.5 286c22.343-2.279-17.694 24.812-21.5 13.5-1.55-4.607 19.188-13.264 21.5-13.5Z"/><path fill="#F2A81F" d="M250.5 288c1.282-.426 25.734.528 27 1 14.798 5.516-16.619 12.61-27 6-2.695-1.716-3.633-5.793 0-7Z"/><path fill="#60192B" d="M653.5 291c2.888-1.719 10.88 1.338 9.5 6.5-4.122-1.738-3.141-6.997-9.5-3.5-.807-.45-.81-2.518 0-3Z"/><path fill="#EDD47D" d="M766.5 296c53.956-7.14 54.497 69.633 2 65-40.09-3.538-41.227-59.809-2-65Z"/><path fill="#EBD387" d="M556.5 306c6.169-.865 9.504 5.099 14 6 11.775 2.358 18.527-6.311 29.5-1.5-4.354 11.749-16.342 21.949-29.5 19.5-7.398-1.377-24.518-22.526-14-24Z"/><path fill="#F4A619" d="M127.5 310c4.619-.538 7.593 1.429 6 6-1.824 5.234-27.896 15.893-26.5 6.5.293-1.97 18.477-12.265 20.5-12.5Z"/><path fill="#F2A71E" d="M249.5 314c2.448-.746 26.084-.083 25.5 5.5-.026.246-3.258 3.447-3.5 3.5-1.128.245-21.906-1.631-23-2-3.545-1.196-2.545-5.92 1-7Z"/><path fill="#F2A61C" d="M236.5 325c3.602 4.004 28.075 18.447 27.5 21.5-2.301 12.218-44.375-19.936-27.5-21.5Z"/><path fill="#F4A717" d="M146.5 326c2.862-.427 3.796.501 5.5 2.5 1.179 4.797-15.177 11.966-18.5 14.5-2.583 1.97-18.007 20.7-21.5 12.5-1.456-3.419 30.875-28.959 34.5-29.5Z"/><path fill="#641E2B" d="M623 332c-.386.715-4.438 13.096-5 15-17.213 9.217-47.257 26.467-67 21-1.1-.305-1.583-1.411-3-1-2.051-4.292-3.583-8.223-4-13-.531-6.087 1.548-11.918 1-18 15.985 11.587 37.965 13.057 56.5 7 7.032-2.298 14.135-9.687 21.5-11Z"/><path fill="#8E2E28" d="M225 344c9.201 1.932-.225 29.135-3 34.5-9.745 18.841-35.558 24.045-49 6-2.986-4.009-11.326-28.632-10-32 .818-2.079 3.862-1.337 4-1.5 7.682 4.121 14.242 7.099 23 7 9.62-.109 7.483-.331 15-4 5.229-2.552 14.893-11.072 20-10Z"/><path fill="#E9721E" d="M618 347c-.071.24.623 3.006 0 5-2.035 6.513-1.979 10.699-5 18-6.008 8.44-25.936 17.764-29 26-.975 2.62-.516 5.102-1 7-.521 2.043-1.645 4.324-2 6l-3 1c-.173-.371-.932-1.911-1-2-2.416-4.503.785-13.656 0-16.5-.244-.882-1.925-.369-2-.5-4.135-7.219-19.446-14.655-24-23 19.743 5.467 49.787-11.783 67-21ZM458 365l-9 36c-11.12 14.777-12.514 27.571-30.5 41-8.578 6.404-17.03 6.54-22.5 10-5.421 3.429-1.045 12.938-2 20.5-1.49 11.805-10.766 25.026-24 24.5-1.216-11.494-5.766-19.731-6-2h-4c-.279-4.888-4.293-25.223-3-28.5 7.462-.808 10.687 5.501 19.5 4.5 6.362-.722 10.686-5.43 11.5-11.5-.576-2.082-9.861.025-12.5-.5-17.254-3.432-29.863-18.443-38-33-1.734.82 1.47 19.848 2.5 22.5 2.215 5.7 11.713 12.163 12 13 1.592 4.634.832 25.206 1 31.5-.319-.345-6.63-2.271-8.5-4-12.153-11.238-23.43-24.156-21.5-42 .036-.329-.048-.675 0-1 1.298-8.711 9.949-16.532 9-27.5-.08-.926-3.655-7.221-4-8.5-.099-.365 2.03-4.845 1-7.5-.418-1.077-16.402-10.848-18-14.5-2.692-5.534-6.404-5.729-4-13 3.716-11.237 24.864-12.472 30-2.5 1.908 3.704-.537 5.938 1.5 8.5 14.112-4.748 19.702-19.442 22-33 27.335 13.078 67.182 20.645 97.5 17Zm-94.5 4c-3.721.656-15.251 5.871-8 10 6.89-2.304 14.849-2.669 22-2 2.745.257 16.664 9.149 11.5-1.5-2.993-6.171-19.494-7.559-25.5-6.5Zm62 5c-4.431.815-13.369 5.728-8 11 9.437-4.582 19.033-1.264 28.5-4.5 3.055-7.151-17.947-6.97-20.5-6.5Zm-102 10c-1.629 4.541 4.664 2.29 6 3 1.232.655-.961 5.775 3.5 3.5.623-6.942-5.16-4.753-9.5-6.5Zm43 3c-.692.091-12.08 4.236-8 7 7.534-6.999 7.783 2.703 12 3 2.693.19 4.847-3.78 6-4 1.244-.238 4.732 4.003 6.5 1.5 2.844-4.027-12.831-7.985-16.5-7.5Zm61 1c-1.54.17-13.874 5.838-9 9 7.402-7.008 3.704 2.945 14 0 1.655-.473.014-4.334 8.5-.5-1.186-5.682-8.106-9.096-13.5-8.5Zm-24 14c-5.853 5.941 7.898 10.777.5 14.5 14.063 4.484.911-8.972-.5-14.5Zm-34 19c-7.683 3.074 17.16 44.326 33.5 12.5-.815-1.214-11.335-1.63-13.5-2.5-7.083-2.847-11.366-13.455-20-10Z"/><path fill="#5AACAC" d="M636 360c2.375 15.306-12.63 56.984-31.5 54-4.831-.764-14.906-10.875-21.5-11 .484-1.898.025-4.38 1-7 14.901-5.796 22.962-11.408 29-26 3.021-7.301 2.965-11.487 5-18 7.527.02 12.456 5.739 18 8ZM548 367c4.908 10.27 16.931 19.329 27 24 .075.131 1.756-.382 2 .5.785 2.844-2.416 11.997 0 16.5-6.376-8.39-16.35 5.142-22.5 6-17.214 2.401-31.369-36.886-29.5-51 5.617-2.482 11.979-7.958 19-9 .417 4.777 1.949 8.708 4 13Z"/><path fill="#30454F" d="M738 480c-20.811-.47-41.728 1.059-62.5-1-6.614-11.386-3.811-24.761-7-37-5.392-.866-5.888 32.768-2.5 36.5-11.801 4.701-14.964-3.74-26 4.5-14.641 10.932-15.599 32.709-8 48-4.097.985-19.275 13.521-22 17.5-10.998 16.062-9.268 36.295 6 48.5-27.318-.218-76.26-3.821-101 0 1.7-2.231 5.286-2.274 7-4.5 1.808-2.348-.093-4.268 0-4.5 1.44-3.591 2.759-3.822 3-9 .215-4.621.903-9.933-3-13-8.388-20.341-22.118-41.9-36-59 6.842-20.122 13.569-44.115 5-64.5L477 497c-11.156-12.777-25.093-25.903-38-37 9.679-19.079 18.798-51.936 32-68 13.134-15.98 36.056-21.071 54-29-1.869 14.114 12.286 53.401 29.5 51 6.15-.858 16.124-14.39 22.5-6 .068.089.827 1.629 1 2 .542 1.161.32 6.372 1.5 8 2.514-2.413 1.097-7.097 1.5-9 .355-1.676 1.479-3.957 2-6 6.594.125 16.669 10.236 21.5 11 18.87 2.984 33.875-38.694 31.5-54 12.043 4.912 27.704 6.476 38.5 11 31.245 13.092 53.652 78.517 63.5 109Z"/><path fill="#7BDEDB" d="M551 368c4.554 8.345 19.865 15.781 24 23-10.069-4.671-22.092-13.73-27-24 1.417-.411 1.9.695 3 1Z"/><path fill="#651D2E" d="M363.5 369c6.006-1.059 22.507.329 25.5 6.5 5.164 10.649-8.755 1.757-11.5 1.5-7.151-.669-15.11-.304-22 2-7.251-4.129 4.279-9.344 8-10Z"/><path fill="#67E2DE" d="M584 396c3.064-8.236 22.992-17.56 29-26-6.038 14.592-14.099 20.204-29 26Z"/><path fill="#6B1B2E" d="M771.5 372c13.774-3.102 16.392 15.66 6 18-13.774 3.102-16.392-15.66-6-18Zm2 3c-5.937.771-5.693 10.748-1 12 9.305 2.482 10.212-13.196 1-12Z"/><path fill="#651D2D" d="M425.5 374c2.553-.47 23.555-.651 20.5 6.5-9.467 3.236-19.063-.082-28.5 4.5-5.369-5.272 3.569-10.185 8-11Z"/><path fill="#E9D986" d="M773.5 375c9.212-1.196 8.305 14.482-1 12-4.693-1.252-4.937-11.229 1-12Z"/><path fill="#5E1D2A" d="M323.5 384c4.34 1.747 10.123-.442 9.5 6.5-4.461 2.275-2.268-2.845-3.5-3.5-1.336-.71-7.629 1.541-6-3Z"/><path fill="#641C2F" d="M366.5 387c3.669-.485 19.344 3.473 16.5 7.5-1.768 2.503-5.256-1.738-6.5-1.5-1.153.22-3.307 4.19-6 4-4.217-.297-4.466-9.999-12-3-4.08-2.764 7.308-6.909 8-7Z"/><path fill="#671C2E" d="M328 410c-8.531-3.443-13.146-14.077-17-22 1.598 3.652 17.582 13.423 18 14.5 1.03 2.655-1.099 7.135-1 7.5Z"/><path fill="#641E2E" d="M427.5 388c5.394-.596 12.314 2.818 13.5 8.5-8.486-3.834-6.845.027-8.5.5-10.296 2.945-6.598-7.008-14 0-4.874-3.162 7.46-8.83 9-9Z"/><path fill="#A33526" d="M779 406c-.151-4.717-.508-7.734 2-12 10.519-17.893 33.509 6.466 15.5 16-11.026 5.838-11.322.104-17.5-4Zm10.5-13c-5.814 1.272-7.392 12.181-1 15 13.308 5.868 15.117-18.089 1-15Z"/><path fill="#A13628" d="M773 392c2.705 5.415 3.931 6.783 2 13-4.982 16.042-28.413 4.998-20-9.5 4.834-8.331 11.592-4.572 18-3.5Zm-11.5 4c-8.099 2.203-5.042 17.518 6 15 9.033-2.06 6.71-18.457-6-15Z"/><path fill="#56B9B3" d="M471 392c-13.202 16.064-22.321 48.921-32 68l1 3c-12.023-8.386-28.062-11.749-43-10-.758.089-1.104-.238-1-1 5.47-3.46 13.922-3.596 22.5-10 17.986-13.429 19.38-26.223 30.5-41 5.579-7.413 12.489-11.358 22-9Z"/><path fill="#D27B30" d="M781 394c-2.508 4.266-2.151 7.283-2 12-1.146-.761.327 3.786-4-1 1.931-6.217.705-7.585-2-13 4.29.718 4.344-2.823 8 2Z"/><path fill="#EDD483" d="M789.5 393c14.117-3.089 12.308 20.868-1 15-6.392-2.819-4.814-13.728 1-15Z"/><path fill="#EDD582" d="M761.5 396c12.71-3.457 15.033 12.94 6 15-11.042 2.518-14.099-12.797-6-15Z"/><path fill="#621C31" d="M403.5 402c1.411 5.528 14.563 18.984.5 14.5 7.398-3.723-6.353-8.559-.5-14.5Z"/><path fill="#5BD2BB" d="m578 410 3-1c-.403 1.903 1.014 6.587-1.5 9-1.18-1.628-.958-6.839-1.5-8Z"/><path fill="#ECD387" d="M369.5 421c8.634-3.455 12.917 7.153 20 10 2.165.87 12.685 1.286 13.5 2.5-16.34 31.826-41.183-9.426-33.5-12.5Z"/><path fill="#631D2D" d="M360 495c.035.618-1.164 3.406-1 6 1.548 24.468 5.037 48.997 6 73.5-2.494 2.105-3.801-1.423-4-1.5l-6-74c-.301-1.509-1.127-5.059-2-6-.168-6.294.592-26.866-1-31.5-.287-.837-9.785-7.3-12-13-1.03-2.652-4.234-21.68-2.5-22.5 8.137 14.557 20.746 29.568 38 33 2.639.525 11.924-1.582 12.5.5-.814 6.07-5.138 10.778-11.5 11.5-8.813 1.001-12.038-5.308-19.5-4.5-1.293 3.277 2.721 23.612 3 28.5Z"/><path fill="#5BB2B1" d="M486 507c-2.611-3.217-6.154-6.74-9-10l14-54.5c8.569 20.385 1.842 44.378-5 64.5Z"/><path fill="#58ACAC" d="M738 480c36.845.833 73.721 1.626 110.5 4 8.331 4.141 3.921 6.695 3.5 11l-203-3c2.39-8.91.288-11.834-9-9 11.036-8.24 14.199.201 26-4.5-3.388-3.732-2.892-37.366 2.5-36.5 3.189 12.239.386 25.614 7 37 20.772 2.059 41.689.53 62.5 1Z"/><path fill="#5BABAC" d="M323 446c-.048.325.036.671 0 1-2.824.894-2.253 5.358-2 7.5 2.154 18.276 15.696 39.001 34 44.5l6 74c-.48-.186-1.644.189-2 0-3.379-1.799-19.333-16.573-21.5-17-3.438-.678-27.167 7.397-34 8-13.236 1.168-29.424-.339-43.5 0 1.201-3.901 5.518-10.885 6-14.5.085-.64-1.998-1.375-2-1.5-.029-2.342.063-3.025 2-4.5-11.357-10.001-24.678-22.816-41-21.5-11.488-.614-13.301 2.521-19 11 2.266-11.101 10.216-18.287 18-27 8.027-8.985 18.784-16.226 25-27 22.181-19.888 43.035-33.544 74-33Z"/><path fill="#6BDEDA" d="M353 493c.873.941 1.699 4.491 2 6-18.304-5.499-31.846-26.224-34-44.5-.253-2.142-.824-6.606 2-7.5-1.93 17.844 9.347 30.762 21.5 42 1.87 1.729 8.181 3.655 8.5 4Z"/><path fill="#63DEDA" d="M397 453c-.227 16.992-4.379 48.638-27 48-.091-1.311.138-2.7 0-4 13.234.526 22.51-12.695 24-24.5.955-7.562-3.421-17.071 2-20.5-.104.762.242 1.089 1 1Z"/><path fill="#5BABAC" d="m440 463 43 47.5c.023 2.03-26.489 9.309-24 18.5-4.945 4.851-7.7 11.185-12 16.5-1.84 3.223.615 2.773 1 3.5 2.784 5.265 10.795 10.203 12 17-25.385 1.724-42.287-28.026-52.5-31-1.904-.555-28.012-2.438-30.5-2-1.999.352-3.976.865-6 1-.568-10.914-.248-22.157-1-33 22.621.638 26.773-31.008 27-48 14.938-1.749 30.977 1.614 43 10Z"/><path fill="#67DFDF" d="M477 497c2.846 3.26 6.389 6.783 9 10 13.882 17.1 27.612 38.659 36 59-.902-.709-5.735-1.058-7-2.5-1.025-1.169-7.528-17.25-10-21-2.197-3.333-16.978-25.956-18.5-26.5-6.213-2.223-22.857 8.446-27.5 13-2.489-9.191 24.023-16.47 24-18.5L440 463l-1-3c12.907 11.097 26.844 24.223 38 37Z"/><path fill="#9EE9D7" d="M224 506c5.744-9.914 16.272-19.174 25-27-6.216 10.774-16.973 18.015-25 27Z"/><path fill="#F1AA1F" d="M649 492c-1.656 6.173-2.984 5.939-4 14-.03.236-.998-1.825-1 3-.001 2.345-.392 5.965 0 8 .325 1.691 1.961 1.864 2 2 1.225 4.242 1.549 8.707 6 12-1.28 2.55-3.662 5.569-.5 8l214.5-4c4.213 5.854 6.217 9.764 1 16l-226-4c2.382-3.415 7.423-7.871 6-12.5-1.071-3.485-12.524-4.095-15-3.5-7.599-15.291-6.641-37.068 8-48 9.288-2.834 11.39.09 9 9Z"/><path fill="#671D2A" d="M370 497c.138 1.3-.091 2.689 0 4 .752 10.843.432 22.086 1 33 .527 10.115-.077 19.82 1 30 .488 4.613.141 9.083 1 14-1.902 7.58-1.234 4.598-5 5-.253-27.025-2.178-54-3-81-.084-2.772-1.031-4.661-1-7 .234-17.731 4.784-9.494 6 2Z"/><path fill="#E9CFA7" d="M852 495c-.6 6.142-2.437 11.79-3 17l-204-6c1.016-8.061 2.344-7.827 4-14l203 3Z"/><path fill="#A1D7BC" d="M364 495c-.031 2.339.916 4.228 1 7l-6-1c-.164-2.594 1.035-5.382 1-6h4Z"/><path fill="#E9D5A1" d="M365 502c.822 27 2.747 53.975 3 81-2.027.216-15.762-.795-16-2.5l7-7.5c.356.189 1.52-.186 2 0 .199.077 1.506 3.605 4 1.5-.963-24.503-4.452-49.032-6-73.5l6 1Z"/><path fill="#711826" d="m645 506 204 6c-.07.648.064 1.35 0 2l-205-5c.002-4.825.97-2.764 1-3Z"/><path fill="#E9CFA7" d="M849 514c-.128 1.3.055 2.686 0 4l-205-1c-.392-2.035-.001-5.655 0-8l205 5Z"/><path fill="#E9711E" d="M522 566c3.903 3.067 3.215 8.379 3 13-3.591 1.737-5.402 5.892-9 8-18.957 11.106-60.54 4.89-81-2-14.448-4.865-23.795-14.301-36.5-22-3.498-2.119-15.749-4.892-18.5-8-3.511-3.967-3.921-16.519-3-22 2.488-.438 28.596 1.445 30.5 2 10.213 2.974 27.115 32.724 52.5 31 3.397-.231 8.007-1.952 9-5.5-.113-1.265-18.129-16.541-21-11.5-.385-.727-2.84-.277-1-3.5 4.3-5.315 7.055-11.649 12-16.5 4.643-4.554 21.287-15.223 27.5-13 1.522.544 16.303 23.167 18.5 26.5 2.472 3.75 8.975 19.831 10 21 1.265 1.442 6.098 1.791 7 2.5Z"/><path fill="#6D1D21" d="M849 518c-.027.658-.01 1.34 0 2l-203-1c-.039-.136-1.675-.309-2-2l205 1Z"/><path fill="#E8CEAB" d="M849 520c.049 3.249 1.085 5.621 0 9-65.381-1.577-131.555 2.807-197 2-4.451-3.293-4.775-7.758-6-12l203 1Z"/><path fill="#67E0E3" d="M264 548c-.624.087-1.778-.155-2 0 1.564-2.128.269-2.033-1-3.5-7.635-8.824-23.941-21.856-36-22.5 16.322-1.316 29.643 11.499 41 21.5-1.937 1.475-2.029 2.158-2 4.5Z"/><path fill="#E8711D" d="M262 548c-.656.459-9.864 11.711-10 12.5-1.02 5.935 6.536 3.535 8 3.5 14.076-.339 30.264 1.168 43.5 0 6.833-.603 30.562-8.678 34-8 2.167.427 18.121 15.201 21.5 17l-7 7.5c.238 1.705 13.973 2.716 16 2.5 3.766-.402 3.098 2.58 5-5 .849 4.862 7.095 1.696 1 13-2.022-.805-2.685 1.818-3 2-.3.174-1.865.298-3 1-1.866 1.153-4.689 3.924-5 4-1.848.455-34.4-1.525-38-2-.111-.015.302-.536-2-1-3.99-.805-5.285-.803-9-3-1.168-.691-3.719-5.864-4.5-6-2.416-.422-38.33 15.132-46 17-58.355 14.21-95.469-13.511-57.5-70 5.699-8.479 7.512-11.614 19-11 12.059.644 28.365 13.676 36 22.5 1.269 1.467 2.564 1.372 1 3.5Z"/><path fill="#681E2C" d="m866 535-214.5 4c-3.162-2.431-.78-5.45.5-8 65.445.807 131.619-3.577 197-2 9.668.233 11.23-2.017 17 6Z"/><path fill="#59ACAC" d="M641 547c-.696.998-3.959 2.851-5 4.5-17.365 27.495 15.071 44.076 38 47.5-19.333-.071-38.741-1.846-58-2-15.268-12.205-16.998-32.438-6-48.5 2.725-3.979 17.903-16.515 22-17.5 2.476-.595 13.929.015 15 3.5 1.423 4.629-3.618 9.085-6 12.5Z"/><path fill="#E9D29C" d="M377 533c-.921 5.481-.511 18.033 3 22-1.44 4.3-3.491 7.225-8 9-1.077-10.18-.473-19.885-1-30 2.024-.135 4.001-.648 6-1Z"/><path fill="#EAD380" d="M460 566c-1.205-6.797-9.216-11.735-12-17 2.871-5.041 20.887 10.235 21 11.5-.993 3.548-5.603 5.269-9 5.5Z"/><path fill="#E9D0A6" d="m867 551 2 .5c1.644 4.256-1.706 9.096-2 11.5l-180 .5 180 .5c-.311 2.577-2.001 10.441-2 11l-76.5-1-78.5 2.5c51.615 1.372 103.341-1.193 155-1.5.014 8.845 5.392 14.506 5 23-65.349-.379-130.686 1.242-196 1-22.929-3.424-55.365-20.005-38-47.5 1.041-1.649 4.304-3.502 5-4.5l226 4Z"/><path fill="#EAD585" d="M264 548c.002.125 2.085.86 2 1.5-.482 3.615-4.799 10.599-6 14.5-1.464.035-9.02 2.435-8-3.5.136-.789 9.344-12.041 10-12.5.222-.155 1.376.087 2 0Z"/><path fill="#5DABAC" d="M435 585c-16.658 14.229-32.884 13.532-53 16-4.891.6-9.239.63-14 1v-8c1.135-.702 2.7-.826 3-1 1.841 5.773 2.612-1.28 3-2 6.095-11.304-.151-8.138-1-13-.859-4.917-.512-9.387-1-14 4.509-1.775 6.56-4.7 8-9 2.751 3.108 15.002 5.881 18.5 8 12.705 7.699 22.052 17.135 36.5 22Zm-51.5-19 2 16c1.283-5.399.432-11.095-2-16Z"/><path fill="#731727" d="M867 563c-.04.328.04.672 0 1l-180-.5 180-.5Z"/><path fill="#80E4E5" d="M383.5 566c2.432 4.905 3.283 10.601 2 16l-2-16Z"/><path fill="#711621" d="M865 575c-51.659.307-103.385 2.872-155 1.5l78.5-2.5 76.5 1Z"/><path fill="#78D4CB" d="M525 579c-.241 5.178-1.56 5.409-3 9-2.243.341-3.972 2.019-6 3v-4c3.598-2.108 5.409-6.263 9-8Z"/><path fill="#EED27D" d="M516 587v4c-10.087 4.879-22.09 7.652-33 10-38.808.074-77.71 10.861-117 5.5l16-5.5c20.116-2.468 36.342-1.771 53-16 20.46 6.89 62.043 13.106 81 2Z"/><path fill="#631F28" d="M522 588c-.093.232 1.808 2.152 0 4.5-1.714 2.226-5.3 2.269-7 4.5-7.84 1.211-21.164 8.102-30.5 10-61.579 12.521-137.575 10.484-201 10-29.953-.229-74.649 4.855-95.5-20 .2-.021.636-2.76 3.5-2 .522.139 5.961 6.001 8 7 11.876 5.815 24.363 7.934 37.5 9 63.635 5.162 184.37 3.265 246-10 10.91-2.348 22.913-5.121 33-10 2.028-.981 3.757-2.659 6-3Z"/><path fill="#511E2C" d="M374 591c-.388.72-1.159 7.773-3 2 .315-.182.978-2.805 3-2Z"/><path fill="#70B8A3" d="M323 595c.033 1.418-1.077.901-2 1-3.642.39-10.396 3.063-7-4 3.715 2.197 5.01 2.195 9 3Z"/><path fill="#3F4A5B" d="M368 602c-1.839.143-2.205.943-3 1l-2-5c.311-.076 3.134-2.847 5-4v8Z"/><path fill="#F2AB1E" d="m325 596-3.5 9c14.589.637 29.022-.969 43.5-2 .795-.057 1.161-.857 3-1 4.761-.37 9.109-.4 14-1l-16 5.5c39.29 5.361 78.192-5.426 117-5.5-61.63 13.265-182.365 15.162-246 10l81.5-4c.439-3.153 5.978-8.678 2.5-11 .923-.099 2.033.418 2-1 2.302.464 1.889.985 2 1Z"/><path fill="#58AFB0" d="m363 598 2 5c-14.478 1.031-28.911 2.637-43.5 2l3.5-9c3.6.475 36.152 2.455 38 2Z"/><path fill="#F2AC1F" d="M188 597c20.851 24.855 65.547 19.771 95.5 20 63.425.484 139.421 2.521 201-10 9.336-1.898 22.66-8.789 30.5-10 24.74-3.821 73.682-.218 101 0 19.259.154 38.667 1.929 58 2 65.314.242 130.651-1.379 196-1 12.668.073 39.288-2.153 50 0 11.506 2.313 17.329 32.673-7 35-3.46.331-11.679-3.019-16 0-270.363-7.4-541.733 5.983-812 0-5.236-.116-27.39-.632-30.5-2-8.456-3.719-8.187-30.425 2-33 5.607-1.417 36.026-.887 44.5-1 28.902-.386 58.041 2.995 87 0Z"/><path fill="#641E2B" d="M897 633c-.26 14.455.12 22.342-11 32H97c-11.457-9.558-12.454-17.202-12-32 270.267 5.983 541.637-7.4 812 0Z"/><path fill="#EDD47E" d="M913 633c-11.945 41.513-29.054 82.308-55 117 .579-24.968.066-50.035 1-75 12.422-1.374 17.571-1.811 27-10 11.12-9.658 10.74-17.545 11-32 4.321-3.019 12.54.331 16 0Z"/><path fill="#F4B21B" d="M886 665c-9.429 8.189-14.578 8.626-27 10H119c-10.411-2.147-14.012-3.336-22-10h789Z"/><path fill="#903127" d="M859 675c-.934 24.965-.421 50.032-1 75-.907 39.089-2.036 78.713-5 117.5l121.5 2.5c5.533 4.868 4.475 9.851-2 13h-124l-3 4-797 1c-6.15-2.886-5.88-10.052-1-14l73.5-1.5-2-197.5h740ZM174 784c-18.089 10.016-13.408 29.541 0 41.5-21.575 6.005-33.604 51.204-7.5 57.5 5.66 1.365 20.065 2.342 21.5-5l234.5-2c3.705-2.1 3.133-5.76 3.5-7 .458-1.547 3.074.165 1-6-.342-1.017.591-3.471-.5-4L189 860.5l237.5-3.5c1.218-2.594.635-9.939-2-11l-235.5.5 236.5-1.5 2.5-9 3 .5.5 8.5c10.144-1.906 28.008-4.623 27.5-17.5-1.242-.879-2.536-1.189-4-1.5l-4-18c2.04-.472.957-1.897 1-2 1.183-2.82 1.782-5.226 0-8 1.52-.234 2.717-.676 4-1.5-.608-.854-1.914-.001-2-1.5-.111-1.923-1-5.696-1-6 0-.892 3.449-4.859 2-9.5-2.164-6.931-13.907-4.679-19-6.5-1.644-6.716-5.009-16.826-6-21.5-1.387-6.542-5.152-25.549-3-31 .994-2.517 8.996 1.988 11-3 1.948-4.849-2.365-9.413-6.5-11.5-84.857-.956-170.466-3.002-255 1-25.004 12.144-28.664 66.054-2.5 77Z"/><path fill="#E9731D" d="M436 773c1.229 5.021 8.858 6.843 1 16-76.314 0-166.337 4.31-241-1-7.299-.519-15.194-1.152-22-4-26.164-10.946-22.504-64.856 2.5-77 84.534-4.002 170.143-1.956 255-1 4.135 2.087 8.448 6.651 6.5 11.5-2.004 4.988-10.006.483-11 3-2.152 5.451 1.613 24.458 3 31 .991 4.674 4.356 14.784 6 21.5Zm-13-29c-.015-.149.133-1.477 0-3-.21-2.402-.786-4.783-1-7-.015-.159 2.043-2.047 2-2.5-.078-.831-1.99-.397-2-.5-.341-3.599 2.856-7.029-.5-10h-234c-18.278 15.126-16.624 49.352 10 53l231 1c3.127-1.07 1.404-15.683-1-18L190 759.5l235.5-4.5c1.547-.882-2.322-9.271-2.5-11Z"/><path fill="#E9D0A1" d="m422 731-227-.5 227 3.5c.214 2.217.79 4.598 1 7l-212 3.5 212-.5c.178 1.729 4.047 10.118 2.5 11L190 759.5l237.5-2.5c2.404 2.317 4.127 16.93 1 18l-231-1c-26.624-3.648-28.278-37.874-10-53h234c3.356 2.971.159 6.401.5 10Z"/><path fill="#DB591E" d="M422 731c.01.103 1.922-.331 2 .5.043.453-2.015 2.341-2 2.5l-227-3.5 227 .5Z"/><path fill="#DF5B1D" d="M423 741c.133 1.523-.015 2.851 0 3l-212 .5 212-3.5Z"/><path fill="#462528" d="M453 789h-16c7.858-9.157.229-10.979-1-16 5.093 1.821 16.836-.431 19 6.5 1.449 4.641-2 8.608-2 9.5Z"/><path fill="#442526" d="M196 788c-11.989 8.265-12.156 25.388.5 33 15.534 9.343 150.862 6.98 179 7 19 .013 64.745-5.136 79.5-2 1.464.311 2.758.621 4 1.5.508 12.877-17.356 15.594-27.5 17.5l-.5-8.5-3-.5-250.5 2c-11.249 4.047-16.175 27.675-7 34 5.712 3.937 13.533-.551 17.5 6-1.435 7.342-15.84 6.365-21.5 5-26.104-6.296-14.075-51.495 7.5-57.5-13.408-11.959-18.089-31.484 0-41.5 6.806 2.848 14.701 3.481 22 4Z"/><path fill="#E9CFA7" d="M437 789h16c0 .304.889 4.077 1 6l-211 5.5c31.21 2.357 63.119-1.864 94.5-2.5 32.827-.665 84.59 4.614 114.5 0 1.782 2.774 1.183 5.18 0 8l-189 1.5 188 .5 4 18c-14.755-3.136-60.5 2.013-79.5 2-28.138-.02-163.466 2.343-179-7-12.656-7.612-12.489-24.735-.5-33 74.663 5.31 164.686 1 241 1Zm-154.5 29c-1.955 2.154-7.651-.327-4 3l93.5.5c-29.436-5.386-59.711-2.872-89.5-3.5Z"/><path fill="#7C121D" d="M454 795c.086 1.499 1.392.646 2 1.5-1.283.824-2.48 1.266-4 1.5-29.91 4.614-81.673-.665-114.5 0-31.381.636-63.29 4.857-94.5 2.5l211-5.5Z"/><path fill="#731319" d="M452 806c-.043.103 1.04 1.528-1 2l-188-.5 189-1.5Z"/><path fill="#771821" d="M282.5 818c29.789.628 60.064-1.886 89.5 3.5l-93.5-.5c-3.651-3.327 2.045-.846 4-3Z"/><path fill="#E9D0A8" d="m428 836-2.5 9-236.5 1.5 235.5-.5c2.635 1.061 3.218 8.406 2 11L189 860.5l237.5-1.5c1.091.529.158 2.983.5 4l-1.5 5-244.5 2.5 245-1.5c-.367 1.24.205 4.9-3.5 7L188 878c-3.967-6.551-11.788-2.063-17.5-6-9.175-6.325-4.249-29.953 7-34l250.5-2Z"/><path fill="#A62D26" d="m426 869-245 1.5 244.5-2.5 1.5-5c2.074 6.165-.542 4.453-1 6Z"/></svg>