<svg xmlns="http://www.w3.org/2000/svg" width="1024" height="1024"><path fill="none" d="M1023-1v1024H-1V-1h1024ZM288 200c-18.901 3.987-43.406 20.791-51 39-5.065 1.955-11.463 7.388-15.5 11C96.933 361.438 43.066 557.282 111 713.5c8.188 18.828 20.499 43.164 35 57.5.175 5.934-.458 12.104 0 18-15.641 3.641-32.076 5.466-47.5 10-114.034 33.523 45.548 59.862 78 65 59.327 9.393 119.546 13.223 179.5 16 17.088.792 33.841 1.658 51 2 1.989.04 4.011-.032 6 0 10.45.168 20.612-.018 31 0 12.024.02 23.942.143 36 0 102.055-1.209 205.718-5.446 307-17 44.713-5.101 101.216-10.742 143.5-25 56.868-19.175 34.818-36.747-9.5-48 3.156-34.594-.193-78.279 0-114 3.008-1.577 4.3-9.356 5-12.5 6.095-27.382 10.756-60.979 9-89-.119-1.903.566-3.76-2-4.5 3.486-13.373-.559-24.642 5-36 1.824-3.727 11.264-8.595 0-14 .22-6.51-.759-13.157-2-19.5-2.557-13.072-12.391-60.474-17-70-4.077-8.426-10.997-5.211-18-5.5-16.293-50.572-45.155-95.749-78-137 6.924-4.438 17.002-15.711 14-24.5-.572-1.675-5.992-3.746-6-5-.005-.82 8.591-8.029 10-13 5.626-19.848-2.982-18.832-12-29-2.059-2.321-2.164-9.49-6.5-11.5-3.354-1.555-11.751-.447-12.5-1.5-1.559-2.193 1.949-13.38-6.5-18.5-11.648-7.058-22.754.083-32 0-6.403-.058-11.344-4.55-21-3-12.813 2.057-11.271 10.191-17.5 16-131.893-82.907-311.733-77.511-445 0Z"/><path fill="#ECDDA3" d="M733 200c-4.367 4.073-11.315 5.803-16 12.5-8.398 12.004-8.739 38.506 9 38.5-1.552 3.623-.693 7.296-1 11-.054.654.043 1.344 0 2-.938 14.387-1.611 28.604 6 41.5 3.251 5.508 22.26 22.908 28 23.5-.071.638.144 1.462 0 2-.648 2.415-.552 1.363-2 3-10.091-9.972-47.465 15.513-49 30-9.754-1.53-26.943 1.076-30 12-15.899-8.124-57.378-10.952-73-3 8.538-4.629-9.161-18.148-13.5-19-32.093-6.303-43.692 34.487-8.5 43-3.144 5.537-8.517 24.778-9 31-9.611 1.097-36.118-2.393-43.5 3-6.801 4.968-15.503 41.764-22 50-4.293-11.686-8.726-52.67-19-58-13.988-7.257-66.998 2.822-85.5-1 5.813-7.845 7.861-19.376 8-29 .257-17.78-6.878-33.71-18-47.5-7.113-8.819-34.273-33.777-45-30.5l7-25.5c.991-1.582 8.26-.726 11.5-2.5 8.53-4.67 10.388-25.503-.5-24-.397-47.136-32.854-72.733-79-63 133.267-77.511 313.107-82.907 445 0Z"/><path fill="#6F1D25" d="M823 290c-.234.15-.747-.145-1 0 .256-4.906 6.391-9.354 3-14.5-3.88-5.888-12.787-.368-13.5-.5-1.27-.236-10.306-18.197-16-20-3.836-1.215-11.544.364-16-1-3.481-1.065-10.294-8.921-11-9-.737-.082-7.099 4.014-14 3-4.238-.622-13.203-8.12-14-8-.94.142-4.969 10.997-14.5 11-17.739.006-17.398-26.496-9-38.5 4.685-6.697 11.633-8.427 16-12.5 6.229-5.809 4.687-13.943 17.5-16 9.656-1.55 14.597 2.942 21 3 9.246.083 20.352-7.058 32 0 8.449 5.12 4.941 16.307 6.5 18.5.749 1.053 9.146-.055 12.5 1.5 4.336 2.01 4.441 9.179 6.5 11.5 9.018 10.168 17.626 9.152 12 29-1.409 4.971-10.005 12.18-10 13 .008 1.254 5.428 3.325 6 5 3.002 8.789-7.076 20.062-14 24.5Z"/><path fill="#6E1C25" d="M367 263c-.975.135-3.637 2.932-4.5 3-18.042 1.423-32.564-17.78-46-27-4.117 7.061-8.433 15.997-15 21-3.342 2.546-41.823 17.819-45 18-5.061.288-12.178-6.015-14-6-2.886.024-3.351 5.221-7.5 3-1.129-15.201-4.513-20.384 2-36 7.594-18.209 32.099-35.013 51-39 46.146-9.733 78.603 15.864 79 63Z"/><path fill="#ECDDA2" d="M237 239c-6.513 15.616-3.129 20.799-2 36 .369 4.961-3.883 8.626 1 17.5 5.27 9.577 13.187 7.142 17.5 9.5.998.545 9.936 16.462 12.5 19-26.12 5.138-48.773 32.018-58 56-.662 1.721-3.566 3.912-4 6.5-2.206 13.156 6.091 27.374 17 34.5-8.302-.907-46.37.887-52.5 5-2.732 1.834-4.256 5.213-6.5 7.5L124 515c-3.933.36-7.522-1.332-10 2.5-2.771 19.451 20.115 10.877 31 16.5-.108 34.346.949 68.652 1 103 .065 44.541-1.312 89.506 0 134-14.501-14.336-26.812-38.672-35-57.5C43.066 557.282 96.933 361.438 221.5 250c4.037-3.612 10.435-9.045 15.5-11Z"/><path fill="#C85A25" d="M367 263c10.888-1.503 9.03 19.33.5 24-3.24 1.774-10.509.918-11.5 2.5l-7 25.5c-6.816 2.082-15.705 15.148-22.5 19-6.441 3.651-13.438 4.505-20.5 6-7.265-4.599-4.464-2.387-11-5-10.152-4.058-20.99-6.072-29-14-2.564-2.538-11.502-18.455-12.5-19-4.313-2.358-12.23.077-17.5-9.5-4.883-8.874-.631-12.539-1-17.5 4.149 2.221 4.614-2.976 7.5-3 1.822-.015 8.939 6.288 14 6 3.177-.181 41.658-15.454 45-18 6.567-5.003 10.883-13.939 15-21 13.436 9.22 27.958 28.423 46 27 .863-.068 3.525-2.865 4.5-3Zm-40.5 6c-.826.169-3.791 1.572-4.5 2.5 6.433 2.492 13.207.244 20 0 1.547-2.525-13.803-2.847-15.5-2.5Zm-48 6c-.493.1-6.708 2.016-5 4l15.5-2.5c-.875-2.379-8.912-1.822-10.5-1.5Zm50 8c-3.986 1.611-3.713 14.044 4 13 8.049-1.089 4.801-16.557-4-13Zm-53 7c-4.513 1.813-2.398 10.965 1.5 12.5 9.102 3.585 10.261-17.225-1.5-12.5Zm28 4c-2.487.439-2.26 12.802 1 13 4.175.253 1.196-13.388-1-13Zm24 11c-7.44 12.404-27.145 15.038-38 5-4.843 12.106 18.133 12.101 26 10 3.956-1.057 20.177-11.557 12-15Z"/><path fill="#D56128" d="M822 290c-.578.33-2.315 2.902-4.5 4-2.919 1.467-7.684-.035-10 1-.623.278-4.5 9.799-6.5 12-6.858 7.546-32.015 23.029-42 22-5.74-.592-24.749-17.992-28-23.5-7.611-12.896-6.938-27.113-6-41.5l16-1.5c-4.552-4.021-10.787-2.245-16-.5.307-3.704-.552-7.377 1-11 9.531-.003 13.56-10.858 14.5-11 .797-.12 9.762 7.378 14 8 6.901 1.014 13.263-3.082 14-3 .706.079 7.519 7.935 11 9 4.456 1.364 12.164-.215 16 1 5.694 1.803 14.73 19.764 16 20 .713.132 9.62-5.388 13.5.5 3.391 5.146-2.744 9.594-3 14.5Zm-49.5-30c-.447 4.421 16.405 6.101 16.5 3.5-4.591-4.217-10.74-3.559-16.5-3.5Zm9 12c-5.19 1.406-4.422 11.674 0 14 9.585 5.041 12.498-17.385 0-14Zm-49 3c-5.109 1.735-2.188 12.789 4 11 5.567-1.61 3.398-13.513-4-11Zm22 3c-1.244.501-6.06 15.543-3 17 9.741 4.637 2.447-3.038 2.5-3.5.254-2.202 4.721-10.011 4-12-.804-1.084-2.115-2.058-3.5-1.5Zm21 17c-6.619 9.59-13.869 14.024-26 12-5.116-.854-13.893-11.453-12.5-2.5 1.174 7.548 16.749 8.46 22.5 7.5 4.325-.722 26.204-13.201 16-17Z"/><path fill="#641825" d="M725 264c.043-.656-.054-1.346 0-2 5.213-1.745 11.448-3.521 16 .5l-16 1.5Z"/><path fill="#681527" d="M772.5 260c5.76-.059 11.909-.717 16.5 3.5-.095 2.601-16.947.921-16.5-3.5Z"/><path fill="#661527" d="M326.5 269c1.697-.347 17.047-.025 15.5 2.5-6.793.244-13.567 2.492-20 0 .709-.928 3.674-2.331 4.5-2.5Z"/><path fill="#6B1925" d="M781.5 272c12.498-3.385 9.585 19.041 0 14-4.422-2.326-5.19-12.594 0-14Z"/><path fill="#681825" d="M278.5 275c1.588-.322 9.625-.879 10.5 1.5l-15.5 2.5c-1.708-1.984 4.507-3.9 5-4Z"/><path fill="#661726" d="M732.5 275c7.398-2.513 9.567 9.39 4 11-6.188 1.789-9.109-9.265-4-11Z"/><path fill="#651925" d="M754.5 278c1.385-.558 2.696.416 3.5 1.5.721 1.989-3.746 9.798-4 12-.053.462 7.241 8.137-2.5 3.5-3.06-1.457 1.756-16.499 3-17Z"/><path fill="#6B1A25" d="M328.5 283c8.801-3.557 12.049 11.911 4 13-7.713 1.044-7.986-11.389-4-13Z"/><path fill="#6A1926" d="M275.5 290c11.761-4.725 10.602 16.085 1.5 12.5-3.898-1.535-6.013-10.687-1.5-12.5Z"/><path fill="#EBDDA2" d="M901 427c-14.414-.595-28.704 2.264-43 0 4.036-8.438.82-9.201 0-16-4.542-37.656-27.304-65.069-61-81-1.709-.808-3.071-2.496-5-3 .146-.514-.073-1.358 0-2 8.083-4.879 7.043-9.187 9-18 2-2.201 5.877-11.722 6.5-12 2.316-1.035 7.081.467 10-1 2.185-1.098 3.922-3.67 4.5-4 .253-.145.766.15 1 0 32.845 41.251 61.707 86.428 78 137Z"/><path fill="#641726" d="M303.5 294c2.196-.388 5.175 13.253 1 13-3.26-.198-3.487-12.561-1-13Z"/><path fill="#691A27" d="M775.5 295c10.204 3.799-11.675 16.278-16 17-5.751.96-21.326.048-22.5-7.5-1.393-8.953 7.384 1.646 12.5 2.5 12.131 2.024 19.381-2.41 26-12Z"/><path fill="#6A1827" d="M327.5 305c8.177 3.443-8.044 13.943-12 15-7.867 2.101-30.843 2.106-26-10 10.855 10.038 30.56 7.404 38-5Z"/><path fill="#6B1B25" d="M792 325c-8.01 4.835-21.764 6.6-31 7-.063-.092-1.58-.899-2-1 .144-.538-.071-1.362 0-2 9.985 1.029 35.142-14.454 42-22-1.957 8.813-.917 13.121-9 18Z"/><path fill="#6F1D25" d="M412 393c-3.254.301-1.266-5.117-4.5-6-3.999-1.092-24.175 6.043-27.5 10-7.124-2.416-3.812-32.408-9.5-33-.981-.102-2.199.74-2.5 1.5-3.1 7.823 5.821 36.291 3 46.5-.738.767-1.292 1.292-2 2-3.925-3.362-9.126-3.591-14.5-4-25.992-1.98-66.167 4.495-89 1-.966-.148-3.936-2.308-5.5-2-1.647-1.683-2.057-3.288-3-5-1.437-2.609-3.994-3.066-4-6.5-.009-4.746 15.184-29.288 15-31-.019-.176-2.324-2.484-2.5-2.5-5.014-.451-17.115 25.539-24.5 27-9.225-7.781-20.095-15.585-33-14 9.227-23.982 31.88-50.862 58-56 8.01 7.928 18.848 9.942 29 14-9.434 6.971 9.81 16.23 15.5 17 14.794 2.002 29.741-8.43 35.5-21.5-.724-.461-2.048-2.427-2.5-2.5-2.994-.481-15.453 20.733-32 17-2.642-.596-3.928-4.005-5.5-5 7.062-1.495 14.059-2.349 20.5-6 6.795-3.852 15.684-16.918 22.5-19 10.727-3.277 37.887 21.681 45 30.5 11.122 13.79 18.257 29.72 18 47.5Z"/><path fill="#D7632B" d="M792 327c-2.877 10.14-23.986 15.203-31 5 9.236-.4 22.99-2.165 31-7-.073.642.146 1.486 0 2Z"/><path fill="#F0C845" d="M797 330c-2.518 16.965-27.102 19.92-38 9.5-.592-.566-1.792-5.294-2-5.5 1.448-1.637 1.352-.585 2-3 .42.101 1.937.908 2 1 7.014 10.203 28.123 5.14 31-5 1.929.504 3.291 2.192 5 3Z"/><path fill="#EEC23D" d="M295 335c6.536 2.613 3.735.401 11 5 1.572.995 2.858 4.404 5.5 5 16.547 3.733 29.006-17.481 32-17 .452.073 1.776 2.039 2.5 2.5-5.759 13.07-20.706 23.502-35.5 21.5-5.69-.77-24.934-10.029-15.5-17Z"/><path fill="#70B9B3" d="M858 411c-10.653 2.568-24.266 9.24-35 10l-3.5-53c-8.391-2.992-8.497 47.002-9.5 51-21.943-2.588-44.698-3.828-66-7-3.409-.508-23.29-3.041-24-4.5.122-8.192 8.59-34.609 6-41-1.348-3.327-5.225.418-7 1.5-1.875-1.884-8.18-3.558-11-4 1.535-14.487 38.909-39.972 49-30 .208.206 1.408 4.934 2 5.5 10.898 10.42 35.482 7.465 38-9.5 33.696 15.931 56.458 43.344 61 81Z"/><path fill="#6F1D25" d="M605 373c-2.475 1.26-20.481 21.325-22 24-35.192-8.513-23.593-49.303 8.5-43 4.339.852 22.038 14.371 13.5 19ZM708 364c2.82.442 9.125 2.116 11 4 1.447 1.454 3.78 8.56 4 11-3.826 2.095-3.336 7.981-6 11.5-2.68 3.541-9.934 8.273-14 10.5-2.891-8.14-17.349-21.09-25-25 3.057-10.924 20.246-13.53 30-12Z"/><path fill="#EDE0A9" d="M257 404c-6.854.086-11.346-9.075-16-13 7.385-1.461 19.486-27.451 24.5-27 .176.016 2.481 2.324 2.5 2.5.184 1.712-15.009 26.254-15 31 .006 3.434 2.563 3.891 4 6.5Z"/><path fill="#EEE3AF" d="M380 397c-2.865 3.409-3.702 9.494-9 15 2.821-10.209-6.1-38.677-3-46.5.301-.76 1.519-1.602 2.5-1.5 5.688.592 2.376 30.584 9.5 33Z"/><path fill="#ECE1AA" d="M744 412c-9.167 5.624-19.913 4.074-29-.5 2.3-10.8 9.015-21.231 8-32.5-.22-2.44-2.553-9.546-4-11 1.775-1.082 5.652-4.827 7-1.5 2.59 6.391-5.878 32.808-6 41 .71 1.459 20.591 3.992 24 4.5Z"/><path fill="#EDC33B" d="M678 376c7.651 3.91 22.109 16.86 25 25 2.307 6.497 5.091 25.452 5 31-.124 7.563-4.646 16.169-3 24-.295.978-.947 1.182-1 2-19.716 3.077-12.681-2.657-21-13.5-17.189-22.405-65.987-24.981-88.5-11.5-3.603 2.158-10.265 10.744-11 11-4.239 1.476-7.74-2.006-8.5-2 .809-4.283-1.303-10.098-1-14 .483-6.222 5.856-25.463 9-31 1.519-2.675 19.525-22.74 22-24 15.622-7.952 57.101-5.124 73 3Z"/><path fill="#6F1A24" d="M823 421c-6.681.473-9.818-1.625-13-2 1.003-3.998 1.109-53.992 9.5-51l3.5 53Z"/><path fill="#C15323" d="M241 391c4.654 3.925 9.146 13.086 16 13 .943 1.712 1.353 3.317 3 5 11.953 12.212 14.683 4.254 24.5 7 4.09 1.144 15.458 17.525 11.5 22.5-3.555 5.731-7.065.401-7.5.5-2.307.524-.49 6.863-4 8-6.118 1.982-18.199-10.077-23.5-13-8.567-4.724-30.606-14.973-40-16-10.909-7.126-19.206-21.344-17-34.5.434-2.588 3.338-4.779 4-6.5 12.905-1.585 23.775 6.219 33 14Z"/><path fill="#C15223" d="M723 379c1.015 11.269-5.7 21.7-8 32.5 9.087 4.574 19.833 6.124 29 .5 21.302 3.172 44.057 4.412 66 7 3.182.375 6.319 2.473 13 2 10.734-.76 24.347-7.432 35-10 .82 6.799 4.036 7.562 0 16-5.87 12.272-40.181 21.493-53 24-13.683 2.676-22.745 4.095-37 2l5-5.5-10-4.5c7.301-11.846 8.027-4.965 18.5-9 1.957-.754 23.528-9.952 22-11l-55-6 11.5 14.5c-4.611 5.996-6.303-.205-11-1 12.446 25.204-17.972 11.221-29 6.5-3.927-1.681-7.55-4.482-12-5 .091-5.548-2.693-24.503-5-31 4.066-2.227 11.32-6.959 14-10.5 2.664-3.519 2.174-9.405 6-11.5Z"/><path fill="#C15423" d="M412 393c-.139 9.624-2.187 21.155-8 29-9.185 12.396-28.668 16.965-42 24-3.845 2.029-6.701 1.802-10 7-3.55-.576-4.037-1.599-6.5-2-.407-.066-3.805 2.969-8 2-4.516-1.043-3.878-5.206-4.5-6-4.591-5.854-16.11-1.273-4.5-11 11.553-9.68 26.132-7.637 40.5-22 .708-.708 1.262-1.233 2-2 5.298-5.506 6.135-11.591 9-15 3.325-3.957 23.501-11.092 27.5-10 3.234.883 1.246 6.301 4.5 6Z"/><path fill="#FEFDFD" d="M369 414c-14.368 14.363-28.947 12.32-40.5 22-11.61 9.727-.091 5.146 4.5 11l-38.5 2c-12.573 4.774-36.188 5.567-47.5 11l14-26c5.301 2.923 17.382 14.982 23.5 13 3.51-1.137 1.693-7.476 4-8 .435-.099 3.945 5.231 7.5-.5 3.958-4.975-7.41-21.356-11.5-22.5-9.817-2.746-12.547 5.212-24.5-7 1.564-.308 4.534 1.852 5.5 2 22.833 3.495 63.008-2.98 89-1 5.374.409 10.575.638 14.5 4Z"/><path fill="#FDFDFD" d="M763 443c-1.328 2.155-3.872 3.976-4 7.5 2.391 3.831 5.458 1.979 9 2.5 14.255 2.095 23.317.676 37-2l1 28c-13.154-13.214-81.688-14.473-100-6-.056-4.424-2.109-13.31-2-15 .053-.818.705-1.022 1-2 1.449-4.809 10.836-15.399 15-19 11.028 4.721 41.446 18.704 29-6.5 4.697.795 6.389 6.996 11 1L748.5 417l55 6c1.528 1.048-20.043 10.246-22 11-10.473 4.035-11.199-2.846-18.5 9Z"/><path fill="#F4A029" d="M221 418c9.394 1.027 31.433 11.276 40 16l-14 26c-2.052.986-3.319 3.056-5 4.5-.294 1.031 2.08 3.402 2.5 3.5 1.432.333 23.576-8.079 28-9 26.232-5.464 56.858-9.175 81.5 2-.285 3.353-3.004 7.038-5 9.5-8.174 10.08-35.577 34.408-39 44.5H124l38-84.5c2.244-2.287 3.768-5.666 6.5-7.5 6.13-4.113 44.198-5.907 52.5-5ZM574 428c-.303 3.902 1.809 9.717 1 14-11.39.094-8.506 19.681-4 26.5 4.128 6.247 9.394 5.489 10 6 .604.509 3.851 12.87 5 15 7.817 14.49 16.438 22.32 30 31.5-35.955-.691-73.235-.987-109-4-8.081-.681-17.745-3.602-27-2 6.7-61.628-70.585-84.896-118-59v-10c13.332-7.035 32.815-11.604 42-24 18.502 3.822 71.512-6.257 85.5 1 10.274 5.33 14.707 46.314 19 58 6.497-8.236 15.199-45.032 22-50 7.382-5.393 33.889-1.903 43.5-3Zm-65.5 54c-2.098 7.09 1.379 14.417 7 19l-7-19Z"/><path fill="#D56029" d="M704 458c-.109 1.69 1.944 10.576 2 15 .03 2.351-.967 3.196-1 4-3.35 7.027-14.655 4.28-16.5 5-1.578.616-17.106 26.955-17.5 29-6.458 1.486-11.851 7.02-18.5 9-7.429 2.212-18.673 3.02-26.5 3-2.613-.007-5.779-1.919-10-2-13.562-9.18-22.183-17.01-30-31.5-1.149-2.13-4.396-14.491-5-15-.606-.511-5.872.247-10-6-4.506-6.819-7.39-26.406 4-26.5.76-.006 4.261 3.476 8.5 2 .735-.256 7.397-8.842 11-11 22.513-13.481 71.311-10.905 88.5 11.5 8.319 10.843 1.284 16.577 21 13.5Zm-97.5-12c-19.233 4.008 11.952 9.393 13.5 3.5.976-3.714-11.481-3.921-13.5-3.5Zm49 2-2.5 1.5c21.373 14.674 37.026-.976 2.5-1.5Zm-52 16c-6.199 3.582-6.221 16.019 0 19 10.568 5.065 17.011-20.978 0-19Zm55 5c-3.115 1.517-2.461 14.708 4 14 8.146-.892 3.66-17.73-4-14Zm-25 3c-2.176.873-6.1 21.312 3.5 13.5-3.292-4.227-1.315-7.422 0-12-.805-1.085-2.112-2.057-3.5-1.5Zm-20 17c-9.25 3.402 12.282 20.236 30 14 4.265-1.501 13.997-13.561 6-12-.599.117-6.78 6.386-10 7-12.835 2.449-24.669-9.489-26-9Z"/><path fill="#F4A12A" d="m938 522-267-3c.188-2.492-.428-5.778 0-8 .394-2.045 15.922-28.384 17.5-29 1.845-.72 13.15 2.027 16.5-5-.027.659.001 1.339 0 2-.002 1.185-2.663 2.951.5 5 29.51.926 61.907-1.634 91 3 5.122.816 19.809 10.945 10.5-5-.185-.316-.075-2.07-1-3l-1-28c12.819-2.507 47.13-11.728 53-24 14.296 2.264 28.586-.595 43 0 7.003.289 13.923-2.926 18 5.5 4.609 9.526 14.443 56.928 17 70 1.241 6.343 2.22 12.99 2 19.5Z"/><path fill="#EAD47E" d="M720 437c-4.164 3.601-13.551 14.191-15 19-1.646-7.831 2.876-16.437 3-24 4.45.518 8.073 3.319 12 5Z"/><path fill="#EC9735" d="M768 453c-3.542-.521-6.609 1.331-9-2.5.128-3.524 2.672-5.345 4-7.5l10 4.5-5 5.5Z"/><path fill="#F9D159" d="M480 515c-.1.92-.824 1.029-1 2-3.427 4.42-4.264-7.448-7-11.5-7.839-11.611-28.421-18.862-41.5-22.5-12.118 36.186-43.692 47.926-78 33-4.133 5.075-8.219 1.536-9.5 8.5-3.948 21.464 18.901 12.91 20 14 .792.786 4.019 17.869 6 21.5.106.867-.248.913-1 1-3.163.365-3.534-.864-5 3 .73-2.871-4.593-2.217-7-2-13.96-4.377-46.472-16.219-48-33-.064-.704 1.628-12.904 2-14 3.423-10.092 30.826-34.42 39-44.5 1.996-2.462 4.715-6.147 5-9.5 3.461 3.243 6.009-3.913 8-5 47.415-25.896 124.7-2.628 118 59Z"/><path fill="#FCFCF9" d="M362 446v10c-1.066 1.299-9.325-2.891-10-3 3.299-5.198 6.155-4.971 10-7Z"/><path fill="#681925" d="M606.5 446c2.019-.421 14.476-.214 13.5 3.5-1.548 5.893-32.733.508-13.5-3.5Z"/><path fill="#A9D8CE" d="M333 447c.622.794-.016 4.957 4.5 6 4.195.969 7.593-2.066 8-2 2.463.401 2.95 1.424 6.5 2 .675.109 8.934 4.299 10 3-1.991 1.087-4.539 8.243-8 5-24.642-11.175-55.268-7.464-81.5-2-4.424.921-26.568 9.333-28 9-.42-.098-2.794-2.469-2.5-3.5 1.681-1.444 2.948-3.514 5-4.5 11.312-5.433 34.927-6.226 47.5-11l38.5-2Z"/><path fill="#691927" d="M655.5 448c34.526.524 18.873 16.174-2.5 1.5l2.5-1.5Z"/><path fill="#6C1B24" d="M603.5 464c17.011-1.978 10.568 24.065 0 19-6.221-2.981-6.199-15.418 0-19Z"/><path fill="#ADD6D3" d="M806 479c.925.93.815 2.684 1 3-33.551-9.62-68.142-14.102-102-3 .001-.661-.027-1.341 0-2 .033-.804 1.03-1.649 1-4 18.312-8.473 86.846-7.214 100 6Z"/><path fill="#6B1924" d="M658.5 469c7.66-3.73 12.146 13.108 4 14-6.461.708-7.115-12.483-4-14Z"/><path fill="#651722" d="M633.5 472c1.388-.557 2.695.415 3.5 1.5-1.315 4.578-3.292 7.773 0 12-9.6 7.812-5.676-12.627-3.5-13.5Z"/><path fill="#6E1C26" d="M807 482c9.309 15.945-5.378 5.816-10.5 5-29.093-4.634-61.49-2.074-91-3-3.163-2.049-.502-3.815-.5-5 33.858-11.102 68.449-6.62 102 3Z"/><path fill="#C34F2A" d="m508.5 482 7 19c-5.621-4.583-9.098-11.91-7-19Z"/><path fill="#F2A42D" d="M479 517c-1.047 5.772-9.801 28.207-13.5 31-1.191.899-2.759-1.615-4.5-.5-1.055.676-8.414 17.895-12 22-6.599 7.555-17.251 12.036-26 16.5-5.564.169-10.944 1.331-15 2-2.823.466-9.68.565-11 1-6.401-9.775-22.532-18.978-28-29-1.981-3.631-5.208-20.714-6-21.5-1.099-1.09-23.948 7.464-20-14 1.281-6.964 5.367-3.425 9.5-8.5 34.308 14.926 65.882 3.186 78-33 13.079 3.638 33.661 10.889 41.5 22.5 2.736 4.052 3.573 15.92 7 11.5Zm-74.5 3c-11.271 1.899 9.965 9.671 12.5 5.5.759-2.9-10.277-5.875-12.5-5.5Zm41 0c-.958 5.892 18.168 6.801 16.5 2.5-.619-1.597-14.081-3.253-16.5-2.5Zm1 13c-5.407 1.369-6.905 17.555 2 16 6.06-2.931 7.09-18.301-2-16Zm-48 1c-4.407 1.749-3.981 16.655 4 15 7.38-4.959 6.096-16.698-4-15Zm24 3c-2.361.413-3.168 15.623-1 18l4 1-.5-15.5-2.5-3.5Zm-17 21c-4.282.732 4.934 15.719 20 11 1.72-.539 9.257-6.124 9.5-7.5 1.423-8.066-8.332 2.065-10.5 2.5-7.904 1.584-12.63-2.527-19-6Z"/><path fill="#6A1A27" d="M613.5 489c1.331-.489 13.165 11.449 26 9 3.22-.614 9.401-6.883 10-7 7.997-1.561-1.735 10.499-6 12-17.718 6.236-39.25-10.598-30-14Z"/><path fill="#6D1B25" d="M671 511c-.428 2.222.188 5.508 0 8-.173 2.294.061 4.692 0 7-14.032 3.607-29.708 1.143-43 2l-2-5c7.827.02 19.071-.788 26.5-3 6.649-1.98 12.042-7.514 18.5-9Z"/><path fill="#A8D5D1" d="M310 515c-.372 1.096-2.064 13.296-2 14l-163 5c-10.885-5.623-33.771 2.951-31-16.5 2.478-3.832 6.067-2.14 10-2.5h186Z"/><path fill="#892323" d="M507 517c-6.363 3.066-1.173 6.821-1 10 2.119 38.849.316 78.098 1 117-14.127-1.214-28.373 1.865-42.5 1-9.117-.558-41.174-9.25-46.5-8-.432-4.522-3.816-11.992-7-15-3.372-7.342-.567-11.395 0-18 15.678-5.561 43.148 11.076 56.5 7 5.157-1.574 4.324-15.038 3-16-.487-.354-8.473 1.701-12 1-15.434-3.068-14.31-10.642-35.5-10 8.749-4.464 19.401-8.945 26-16.5 3.586-4.105 10.945-21.324 12-22 1.741-1.115 3.309 1.399 4.5.5 3.699-2.793 12.453-25.228 13.5-31 .176-.971.9-1.08 1-2 9.255-1.602 18.919 1.319 27 2Z"/><path fill="#A9D5D2" d="M616 521c4.221.081 7.387 1.993 10 2l2 5c-2.772.179-8.831.445-6 5-5.284-1.164-13.213 1.099-19 1-19.706-.338-77.363.933-93-4-.652-.206-2.872-2.812-4-3-.173-3.179-5.363-6.934 1-10 35.765 3.013 73.045 3.309 109 4Z"/><path fill="#A6D3D1" d="M938 522c11.264 5.405 1.824 10.273 0 14-82.757-3.874-168.656 1.196-251-6-5.921-.517-9.802-3.718-16 0-1.323-3.675-.042-2.393 0-4 .061-2.308-.173-4.706 0-7l267 3Z"/><path fill="#651828" d="M404.5 520c2.223-.375 13.259 2.6 12.5 5.5-2.535 4.171-23.771-3.601-12.5-5.5Z"/><path fill="#651627" d="M445.5 520c2.419-.753 15.881.903 16.5 2.5 1.668 4.301-17.458 3.392-16.5-2.5Z"/><path fill="#DA652C" d="M671 526c-.042 1.607-1.323.325 0 4 .232.644-.545 2.055 1 2-3.251 2.215-5.815 13.94-15.5 16-14.787 3.145-18.894-2.727-28.5-10-1.784-1.351-2.514-4.232-6-5-2.831-4.555 3.228-4.821 6-5 13.292-.857 28.968 1.607 43-2Z"/><path fill="#BD5627" d="m510 530 2 114c-1.399-.292-3.41.137-5 0-.684-38.902 1.119-78.151-1-117 1.128.188 3.348 2.794 4 3Z"/><path fill="#71B9B4" d="M687 530c19.397 11.101 36.667 29.059 47 49 5.524 10.661 10.237 21.878 11 34-5.96-11.191-25.7-.959-36.5-1-2.178-.647-3.585-8.115-4.5-10-22.775-46.935-9.314 3.956-10 18.5-.338 7.166-2.184 14.869-5 21.5-1.179.252-2.111 1.618-4 1l-98 1c-2.193-1.067-3.86-.987-7-3l18-60.5-2-1c-4.108.713-15.827 22.636-23 22.5-2.556-4.581-25.513-9.601-31-11 14.265-25.988 34.941-43.316 61-57 5.787.099 13.716-2.164 19-1 3.486.768 4.216 3.649 6 5-7.918 5.469-2.967 11.219 3.5 15 9.716 5.681 28.152 5.25 38 0 16.031-8.546 9.72-25.919 2.5-21-1.545.055-.768-1.356-1-2 6.198-3.718 10.079-.517 16 0Z"/><path fill="#6F1D25" d="M308 529c1.528 16.781 34.04 28.623 48 33-14.496 1.31-39.655 21.811-50 32-56.757-1.042-108.222 23.403-160 43-.051-34.348-1.108-68.654-1-103l163-5Z"/><path fill="#701C25" d="M603 534c-26.059 13.684-46.735 31.012-61 57-21.516 39.198-4.316 43.177 21 69-9.671-1.053-23.358 1.839-32.5-1-7.745-2.405-11.607-13.562-18.5-15l-2-114c15.637 4.933 73.294 3.662 93 4Z"/><path fill="#6F1D25" d="M938 536c-5.559 11.358-1.514 22.627-5 36-2.975 11.41-5.253 8.182-8 12l-.5-27-4 12c-62.285 1.445-124.803 1.436-186.5 10-10.333-19.941-27.603-37.899-47-49 82.344 7.196 168.243 2.126 251 6Z"/><path fill="#EEC63F" d="M628 538c9.606 7.273 13.713 13.145 28.5 10 9.685-2.06 12.249-13.785 15.5-16 7.22-4.919 13.531 12.454-2.5 21-9.848 5.25-28.284 5.681-38 0-6.467-3.781-11.418-9.531-3.5-15Z"/><path fill="#6E1B26" d="M446.5 533c9.09-2.301 8.06 13.069 2 16-8.905 1.555-7.407-14.631-2-16Z"/><path fill="#6F1B26" d="M398.5 534c10.096-1.698 11.38 10.041 4 15-7.981 1.655-8.407-13.251-4-15Z"/><path fill="#661727" d="m422.5 537 2.5 3.5.5 15.5-4-1c-2.168-2.377-1.361-17.587 1-18Z"/><path fill="#B34E24" d="M925 584c-1.375 1.911-3.504 4.127-4 6.5-3.689 17.666.115 66.254 0 87.5-.193 35.721 3.156 79.406 0 114-.473 5.183-.104 13.567-5.5 15h-127l-1.5 58c-101.282 11.554-204.945 15.791-307 17l4.5-97 301 5 2 14 1.5-66c7.628-.277 38.542 3.098 40-5.5.759-4.476-2.837-5.522-3-6.5-3.675-22.001-3.894-55.935-9-75.5-.481-1.844-2.74-6.583-4.5-7.5-9.086-4.735-58.211 4.157-71.5-1 3.998-7.901 4.55-20.259 4-29-.763-12.122-5.476-23.339-11-34 61.697-8.564 124.215-8.555 186.5-10l4-12 .5 27Z"/><path fill="#691926" d="M405.5 558c6.37 3.473 11.096 7.584 19 6 2.168-.435 11.923-10.566 10.5-2.5-.243 1.376-7.78 6.961-9.5 7.5-15.066 4.719-24.282-10.268-20-11Z"/><path fill="#EFC53C" d="M368 561c1.012 16.148 10.361 27.761 27 29-4.626 3.297-1.512 24.375-11.5 22-6.512-1.549-1.753-13.164-2.5-15.5-.539-1.686-5.573-2.648-6.5-3.5-7.271-6.679-15.33-18.906-11.5-29 1.466-3.864 1.837-2.635 5-3Z"/><path fill="#6D1A28" d="M397 589c-1.486.49-.945.248-2 1-16.639-1.239-25.988-12.852-27-29 .752-.087 1.106-.133 1-1 5.468 10.022 21.599 19.225 28 29Z"/><path fill="#71B9B4" d="M356 562c2.407-.217 7.73-.871 7 2-3.83 10.094 4.229 22.321 11.5 29 .927.852 5.961 1.814 6.5 3.5.747 2.336-4.012 13.951 2.5 15.5 9.988 2.375 6.874-18.703 11.5-22 1.055-.752.514-.51 2-1 1.32-.435 8.177-.534 11-1 8.578 4.458 3.626 8.701 3 16-.567 6.605-3.372 10.658 0 18-.562-.53-3.137-2.816-4-1.5.755 5.731-9.695 19.839-10 23-.221 2.287 4.391 5.266 5 5.5-2.657-.209-3.35 1.739-3 4-6.001.614-17.325 11.604-21 16.5-.079.762 8.964 10.722 10 11.5-18.395-.443-35.724-8.908-49.5-21-4.65-4.082-17.567-22.585-19-23-7.715-2.232.183 9.526 1.5 11.5 8.521 12.77 24.521 23.975 38 31-12.678 19.922-35.378 41.955-28 68 3.19 11.263 26.754 16.938 36.5 22.5 18.73 10.69 68.388 44.93 75.5 64.5 5.35 14.721 2.565 32.241 1 47.5-10.388-.018-20.55.168-31 0 26.094-69.834-41.034-74.407-86.5-94-4.311-1.858-24.553-16.425-23.5-8.5 1.176 8.853 72.188 30.727 83.5 36.5 30.134 15.378 31.524 35.731 20.5 66-17.159-.342-33.912-1.208-51-2 1.971-8.972 2.951-19.977-7.5-24-18.411-7.086-72.563-4.915-96-8-29.284-3.855-44.512-3.685-44.5-38 .005-15.392 4.981-30.393 9-45 13.447 9.294 114.13 2.421 117-6.5 2.616-8.131-18.912.909-22.5 1.5-30.592 5.043-61.826 5.622-92.5 1 16.923-57.306 43.59-124.247 87-167 10.345-10.189 35.504-30.69 50-32Zm-9.5 16c-2.345 8.359 3.487 15.678 7.5 22.5 8.749 14.874 25.529 35.39 38.5 46.5l-46-69Z"/><path fill="#EBDDA1" d="M921 678c.115-21.246-3.689-69.834 0-87.5.496-2.373 2.625-4.589 4-6.5 2.747-3.818 5.025-.59 8-12 2.566.74 1.881 2.597 2 4.5 1.756 28.021-2.905 61.618-9 89-.7 3.144-1.992 10.923-5 12.5Z"/><path fill="#731823" d="m346.5 578 46 69c-12.971-11.11-29.751-31.626-38.5-46.5-4.013-6.822-9.845-14.141-7.5-22.5Z"/><path fill="#B24922" d="M580 641c-1.482-.95-6.145-1.784-7-4.5-2.506-7.957 3.054-29.028 0-34.5 7.173.136 18.892-21.787 23-22.5l2 1-18 60.5Z"/><path fill="#701D26" d="M704 602c-2.662 17.183 8.168 35.048-15 40 2.816-6.631 4.662-14.334 5-21.5.686-14.544-12.775-65.435 10-18.5Z"/><path fill="#B94E24" d="M411 604c.626-7.299 5.578-11.542-3-16 4.056-.669 9.436-1.831 15-2 21.19-.642 20.066 6.932 35.5 10 3.527.701 11.513-1.354 12-1 1.324.962 2.157 14.426-3 16-13.352 4.076-40.822-12.561-56.5-7Z"/><path fill="#E17533" d="M573 602c3.054 5.472-2.506 26.543 0 34.5.855 2.716 5.518 3.55 7 4.5 3.14 2.013 4.807 1.933 7 3 4.172 2.029 25.315 10.131 26 13.5 2.211 10.878-13.529 4.2-14 5 8.636 7.074 8.518 29.619-2.5 13.5 7.398 22.37-16.095 6.222-22.5-1.5-.258-.311-.265-4.555-3-7.5-2.917-3.141-5.489-4.439-8-7-25.316-25.823-42.516-29.802-21-69 5.487 1.399 28.444 6.419 31 11Z"/><path fill="#B44E24" d="M306 594c-43.41 42.753-70.077 109.694-87 167-.079.267-.721-.649-2 4-4.019 14.607-8.995 29.608-9 45-14.506-1.192-40.149 5.379-53.5 2-8.31-2.103-7.953-15.952-8.5-23-.458-5.896.175-12.066 0-18-1.312-44.494.065-89.459 0-134 51.778-19.597 103.243-44.042 160-43Z"/><path fill="#E27633" d="M745 613c.55 8.741-.002 21.099-4 29-9.26 18.3-28.361 14.239-42.5 19-4.606 1.551-7.132 6.323-10.5 8-6.918 3.445-13.779 7.802-22 8 .583-9.229-3.204-5.32-8-2-8.194-4.666-4.936-10.957 2-15.5-.21-1.465-10.371-1.174-9-6 9.943-8.618 24.813-1.731 34-10.5 1.889.618 2.821-.748 4-1 23.168-4.952 12.338-22.817 15-40 .915 1.885 2.322 9.353 4.5 10 10.8.041 30.54-10.191 36.5 1Z"/><path fill="#78A494" d="M411 622c3.184 3.008 6.568 10.478 7 15-6.484 1.522-1.339 17.628-16 12-.609-.234-5.221-3.213-5-5.5.305-3.161 10.755-17.269 10-23 .863-1.316 3.438.97 4 1.5Z"/><path fill="#6F1D25" d="M388 681c2.273 1.706 8.778 3.291 11 6-5.914 5.774-13.318 32.563-18 41-12.626.449-31.183 1.837-15.5 17 141.204-1.312 282.426-1.874 423.5-7l-1.5 66-2-14-301-5-4.5 97c-12.058.143-23.976.02-36 0 1.565-15.259 4.35-32.779-1-47.5-7.112-19.57-56.77-53.81-75.5-64.5-9.746-5.562-33.31-11.237-36.5-22.5-7.378-26.045 15.322-48.078 28-68-13.479-7.025-29.479-18.23-38-31-1.317-1.974-9.215-13.732-1.5-11.5 1.433.415 14.35 18.918 19 23 13.776 12.092 31.105 20.557 49.5 21Z"/><path fill="#EEC239" d="M507 644c1.59.137 3.601-.292 5 0 6.893 1.438 10.755 12.595 18.5 15 9.142 2.839 22.829-.053 32.5 1 2.511 2.561 5.083 3.859 8 7-4.933 7.254-6.429 16.162-10 24-.648 1.423-1.952 2.661-3 5-.168.374-5.538 1.689-.5 6 39.327.3 78.675-.401 118 0 3.964.04 17.93 3.217 20.5.5 1.731-2.487.008-3.432 0-4.5-.018-2.377-.837-2.871-1-4-1.175-8.122-3.18-17.695-7-25 3.368-1.677 5.894-6.449 10.5-8 14.139-4.761 33.24-.7 42.5-19 13.289 5.157 62.414-3.735 71.5 1 1.76.917 4.019 5.656 4.5 7.5 5.106 19.565 5.325 53.499 9 75.5-129.862-3.692-259.733.492-389.5 3-18.343.355-37.39-1.644-55.5-1 4.682-8.437 12.086-35.226 18-41 .5-.488 4.108-2.908 4.5-3 19.013-4.473 54.395 3.111 74-4 19.008 8.456 50.566-8.447 13.5-16.5 15.633-13.851-1.272-13.991-12.5-9.5-5.01 2.004-8.407 8.769-9 9-2.069.806-23.809-1.535-28-2-9.287-1.03-36.382-8.626-42.5-8-.35-2.261.343-4.209 3-4 14.661 5.628 9.516-10.478 16-12 5.326-1.25 37.383 7.442 46.5 8 14.127.865 28.373-2.214 42.5-1Z"/><path fill="#FDFDFD" d="M685 643c-9.187 8.769-24.057 1.882-34 10.5-1.371 4.826 8.79 4.535 9 6-6.936 4.543-10.194 10.834-2 15.5 3.154 1.796 4.33 2.088 8 2 8.221-.198 15.082-4.555 22-8 3.82 7.305 5.825 16.878 7 25-42.494-15.677-89.732-2.353-134-3 3.571-7.838 5.067-16.746 10-24 2.735 2.945 2.742 7.189 3 7.5 6.405 7.722 29.898 23.87 22.5 1.5 11.018 16.119 11.136-6.426 2.5-13.5.471-.8 16.211 5.878 14-5-.685-3.369-21.828-11.471-26-13.5l98-1Z"/><path fill="#DE6E31" d="M399 687c-2.222-2.709-8.727-4.294-11-6-1.036-.778-10.079-10.738-10-11.5 3.675-4.896 14.999-15.886 21-16.5 6.118-.626 33.213 6.97 42.5 8 4.191.465 25.931 2.806 28 2 .593-.231 3.99-6.996 9-9 11.228-4.491 28.133-4.351 12.5 9.5 37.066 8.053 5.508 24.956-13.5 16.5-19.605 7.111-54.987-.473-74 4-.392.092-4 2.512-4.5 3Z"/><path fill="#ECC174" d="M666 677c-3.67.088-4.846-.204-8-2 4.796-3.32 8.583-7.229 8 2Z"/><path fill="#ABD9D6" d="M695 694c.163 1.129.982 1.623 1 4-45.253-8.93-92.258-4.446-138-2 1.048-2.339 2.352-3.577 3-5 44.268.647 91.506-12.677 134 3Z"/><path fill="#6F1C27" d="M696 698c.008 1.068 1.731 2.013 0 4.5-2.57 2.717-16.536-.46-20.5-.5-39.325-.401-78.673.3-118 0-5.038-4.311.332-5.626.5-6 45.742-2.446 92.747-6.93 138 2Z"/><path fill="#A4D3D2" d="M826 726c.163.978 3.759 2.024 3 6.5-1.458 8.598-32.372 5.223-40 5.5-141.074 5.126-282.296 5.688-423.5 7-15.683-15.163 2.874-16.551 15.5-17 18.11-.644 37.157 1.355 55.5 1 129.767-2.508 259.638-6.692 389.5-3Z"/><path fill="#711B24" d="M217 765c1.279-4.649 1.921-3.733 2-4 30.674 4.622 61.908 4.043 92.5-1 3.588-.591 25.116-9.631 22.5-1.5-2.87 8.921-103.553 15.794-117 6.5Z"/><path fill="#721924" d="M413 882c-1.989-.032-4.011.04-6 0 11.024-30.269 9.634-50.622-20.5-66-11.312-5.773-82.324-27.647-83.5-36.5-1.053-7.925 19.189 6.642 23.5 8.5 45.466 19.593 112.594 24.166 86.5 94Z"/><path fill="#F4A029" d="M146 789c.547 7.048.19 20.897 8.5 23 13.351 3.379 38.994-3.192 53.5-2-.012 34.315 15.216 34.145 44.5 38 23.437 3.085 77.589.914 96 8 10.451 4.023 9.471 15.028 7.5 24-59.954-2.777-120.173-6.607-179.5-16-32.452-5.138-192.034-31.477-78-65 15.424-4.534 31.859-6.359 47.5-10Z"/><path fill="#F4A12A" d="m787 865 1.5-58h127c5.396-1.433 5.027-9.817 5.5-15 44.318 11.253 66.368 28.825 9.5 48-42.284 14.258-98.787 19.899-143.5 25Z"/></svg>