<svg xmlns="http://www.w3.org/2000/svg" width="1024" height="1024"><path fill="none" d="M1023-1v1024H-1V-1h1024ZM289 276c-1.562-34.87-2.736-68.776-43.5-78-54.317-12.291-70.159 26.462-72.5 71.5-.658 12.661-1.921 77.488 1 85.5-19.511 2.218-16.811-7.036-19.5-22-30.664 15.313-58.427 46.847-69.5 79.5-10.891 32.117-12.809 84.652 8 113 18.105 24.665 46.897 20.418 73 30l.5 49.5c-22.854 7.081-50.592-35.949-58.5 5.5-6.845 35.877 5.967 79.281 16 113.5-6.326 2.308-20.669 6.108-24 12-2.76 4.883-3.076 26.573-1 32.5 16.741 47.802 197.963 73.142 243.5 77.5 133.488 12.776 290.209 11.794 422-13 30.976-5.827 142.415-33.584 150.5-68.5 1.455-6.283-.91-24.282-5-29.5-6.599-8.421-28.049-13.812-38-18 .067-5.526-1.042-12.078-1-18 68.397-36.017 89.271-114.359 66-185.5-1.73-5.289-16.324-37.738-19.5-39.5-8.953-4.968-13.5 11.629-18.5 17.5-9.242 10.852-20.589 20.27-34 25.5-5.251-17.177 10.928-19.756 8-36.5-2.745-15.699-16.544-14.172-23.5-19.5-8.56-6.556-.438-17.294-1.5-27 35.717-14.04 79.224-18.394 69-69.5C895.683 257.947 626.626 171.229 532.5 168c-76.295-2.617-148.168 25.107-220 46-9.24 5.809-.466 16.739.5 25.5 2.095 18.997.586 40.518-24 36.5Z"/><path fill="#F3CC61" d="M848 434c-1.903-17.401-21.871-26.183-37.5-22-2.79-1.247 1.628-12.584-.5-17.5-3.407-7.871-5.794-3.062-9-2.5-1.695.297-2.451-.889-4 0-5.027 2.885-2.184 5.607-3 10l-2 1c2.282-67.075-103.363-35.986-94 6.5.634 2.875 7.873 12.068 12 9.5.068.623 4.636 9.24 5 11.5 1.029 6.381-3.471 10.648 1 15.5 2.076 2.252 2.538 3.054 6 1 2.286 8.546 17.757 9.194 18.5 10 .737.8.56 5.748 1.5 8-7.086 1.843-16.533 10.055-19 17-11.485 6.42-35.58 31.92-47.5 34-11.205 1.955-22.719-5.231-38 0-6.997 2.395-24.534 14.211-21.5 23H513.5c-9.723 2.292-13.854 7.694-19.5 15-6.318-5.325-17.803-4.359-24.5-7-3.818-1.505-8.425-6.729-11.5-9 4.024-10.502-31.488-53.217-37.5-55-4.411-1.308-8.015 2.037-8.5 2-3.835-.293-6.931-4.777-11-5-.04-1.088 1.661-.972 0-3 5.167-8.474 8.059 5.819 13.5 5 .66-.099 3.25-3.827 4-4 .218-.05 2.937 2.397 4 2 3.34-1.248 4.103-4.399 5-5 .599-.401 3.409.401 4 0 3.258-2.213 2.167-5.427 3-6 .406-.279 6.355 5.133 8.5-.5 6.157-16.165-17.095-18.244-11.5-31.5h250l5.5-6.5c-4.417-57.332 5.896-123.72 0-180-.787-7.511-1.704-15.882-9.5-19.5h-293l-9.5 6.5-1 144c-9.971 1.598-12.788 6.034-19.5 10.5-1.483.987-5.572-.887-9.5 4.5-5.712 7.833-.722 14.533-2 21-.346 1.75-5.094 6.122-6 9-2.471 7.85-3.685 19.068-8 27-1.567 2.88-8.91 4.907-10 12-2.527 16.441 9.509 9.758 15.5 11.5.272.079 1.286 3.032 4 4 2.04.727 6.492-3.642 8.5 4-18.09 11.382-28.158 25.732-32 47-1.731 2.252-2.491 8.172-4 10.5-4.981 7.688-9.942 15.59-16 22.5-2.145.614-8.16 2.075-10 2-6.436-.262-18.198-4.284-25-6-6.454-11.414-23.651-9.834-27-24-3.228-13.656 4.414-6.763 13.5-12 3.257-1.877 8.696-8.875 8.5-13 2.806.789 7.005-1.675 7-5-.005-3.396-5.489-5.742-6-7.5-1.354-4.662.656-17.411 0-23.5 7.658 14.177 12.685-8.993 11-15.5-2.208-8.529-22.54-15.846-28-22.5 15.717-.27 34.116-2.84 43-17.5 18.148-29.948-10.872-15.651-22.5-14.5-45.195 4.473-92.848-23.061-133.5 5.5 1.047 6.749-.909 38.288 5.5 40.5 6.632 2.289 35.984-13.275 46-15 11.187-1.926 19.923-.007 30.5 0-7.026 5.466-16.888 9.677-22 17.5-12.719 19.466-11.564 67.738 22 62.5 1.404 4.412.955 9.244 2 13-15.966-.668-25.386 25.537-29 38.5-6.361 22.816-4.611 53.213 0 76.5-3.509.474-11.489 1.196-14 3.5-1.207 1.107-15.192 24.714-17 28-.959 1.742-3.185 5.526-2 7.5-6.158 1.617-8.314 13.151-1.5 15 3.884 1.054 13.704-2.132 15.5 2.5.618 1.592-.142 9.722 0 12.5-13.019 1.564-25.702 5.513-38 10-10.033-34.219-22.845-77.623-16-113.5 7.908-41.449 35.646 1.581 58.5-5.5l-.5-49.5c-26.103-9.582-54.895-5.335-73-30-20.809-28.348-18.891-80.883-8-113 11.073-32.653 38.836-64.187 69.5-79.5 2.689 14.964-.011 24.218 19.5 22 1.277 3.502 19.949 17.201 23.5 18 12.156 2.735 72.998 2.017 83-4 6.981-4.199 7.752-11.164 8.5-18.5 2.061-20.212.936-53.599 0-74.5 24.586 4.018 26.095-17.503 24-36.5-.966-8.761-9.74-19.691-.5-25.5 71.832-20.893 143.705-48.617 220-46 94.126 3.229 363.183 89.947 384.5 196.5 10.224 51.106-33.283 55.46-69 69.5Zm-350.5 10c-1.087.483-1.998 2.393-1.5 3.5.963 2.139 42.532 2.435 46.5 1.5 4.135-.974 4.135-4.026 0-5-2.759-.65-42.944-.914-45 0Z"/><path fill="#F09024" d="M289 276c.936 20.901 2.061 54.288 0 74.5-.748 7.336-1.519 14.301-8.5 18.5-10.002 6.017-70.844 6.735-83 4-3.551-.799-22.223-14.498-23.5-18-2.921-8.012-1.658-72.839-1-85.5 2.341-45.038 18.183-83.791 72.5-71.5 40.764 9.224 41.938 43.13 43.5 78Zm-62.5-3c-12.346 1.715-36.017 20.429-28 34 5.524 2.074 13.906-6.95 19-9 9.125-3.672 23.664-5.946 33-2 6.008 2.54 10.835 15.083 18.5 5.5-1.985-20.135-23.979-31.073-42.5-28.5Z"/><path fill="#6E1C1A" d="M401 477c-1.527-1.865-10.081-3.629-8-12.5.646-2.754 32.735-24.536 34-31 2.496-12.757-8.468-7.205-11-16.5-.148-.544.117-1.396 0-2-.571-2.952.132-9.044 0-9.5-.474-1.639-4.212-.358-6.5-1.5-1.595-.796-2.765-3.915-3-4-3.342-1.208-6.843 3.83-8 4-5.085.745-14.732-1.254-20-1-.733.035-1.993 3.87-6 3-.791-.172-4.434-5-5-5-.496 0-7.338 6.031-7.5 6.5-1.139 3.305 1.336 14.013 1 15-1.818 5.346-17.7 2.39-16 13.5.959 6.27 9.4 7.371 10 8 1.753 1.838 14.559 16.435 15 17.5 2.065 4.989.255 9.774 1 14.5-3.768-.164-5.096-1.286-9 0-3.947 1.3-6.575 6.762-10.5 9-.73.416-3.846-.412-4.5 0-2.008-7.642-6.46-3.273-8.5-4-2.714-.968-3.728-3.921-4-4-5.991-1.742-18.027 4.941-15.5-11.5 1.09-7.093 8.433-9.12 10-12 4.315-7.932 5.529-19.15 8-27 .906-2.878 5.654-7.25 6-9 1.278-6.467-3.712-13.167 2-21 3.928-5.387 8.017-3.513 9.5-4.5 6.712-4.466 9.529-8.902 19.5-10.5l1-144 9.5-6.5h293c7.796 3.618 8.713 11.989 9.5 19.5 5.896 56.28-4.417 122.668 0 180l-5.5 6.5h-250c-5.595 13.256 17.657 15.335 11.5 31.5-2.145 5.633-8.094.221-8.5.5-.833.573.258 3.787-3 6-.591.401-3.401-.401-4 0-.897.601-1.66 3.752-5 5-1.063.397-3.782-2.05-4-2-.75.173-3.34 3.901-4 4-5.441.819-8.333-13.474-13.5-5Zm3.5-229c-6.374 1.535-9.419 5.818-11.5 11.5v122c7.498 7.216 23.772 2.624 29 12 2.556 4.584 1.142 9.019 2 11 .7 1.618 4.714 3.98 6 7 .774 1.817-1.394 8.512 1.5 9.5l229-1c1.946-1.296 4.11-2.55 5.5-4.5 4.471-6.273 3.931-120.761 3-137-.319-5.567-1.122-26.965-5.5-29.5l-259-1Z"/><path fill="#5EA2A2" d="m404.5 248 259 1c4.378 2.535 5.181 23.933 5.5 29.5.931 16.239 1.471 130.727-3 137-1.39 1.95-3.554 3.204-5.5 4.5l-229 1c-2.894-.988-.726-7.683-1.5-9.5-1.286-3.02-5.3-5.382-6-7-.858-1.981.556-6.416-2-11-5.228-9.376-21.502-4.784-29-12v-122c2.081-5.682 5.126-9.965 11.5-11.5Z"/><path fill="#FDFDFC" d="M226.5 273c18.521-2.573 40.515 8.365 42.5 28.5-7.665 9.583-12.492-2.96-18.5-5.5-9.336-3.946-23.875-1.672-33 2-5.094 2.05-13.476 11.074-19 9-8.017-13.571 15.654-32.285 28-34Z"/><path fill="#6D1C1A" d="M792 403c-.188 5.538-4.704 18.577-8 23-3.888 5.219-12.073 9.723-18.5 11-2.526-2.018 10.484-22.405-2-25-11.891-2.472-2.79 10.4-11 9-4.217-.719-26.869-28.224-30-29-11.351-2.813-13.227 20.303-12.5 27-4.127 2.568-11.366-6.625-12-9.5-9.363-42.486 96.282-73.575 94-6.5Z"/><path fill="#6E1C1A" d="M848 434c1.062 9.706-7.06 20.444 1.5 27 6.956 5.328 20.755 3.801 23.5 19.5 2.928 16.744-13.251 19.323-8 36.5 1.943 6.357 5.905 6.382 3 15.5-4.698 14.746-24.009 19.903-37.5 14.5-8.133-3.257-9.582-15.527-18.5-16-.979-4.69-6.24-22.591-8-27 10.041-17.848-11.704-24.877-9-39.5 1.062-5.744 7.849-7.382 6-18-.213-1.223-12.631-18.935-14-20.5 5.179-6.937 5.482-15.833 7-24 .816-4.393-2.027-7.115 3-10-1.034 2.202.498 41.047 5.5 37-.007-11.712 2.628-26.262-1.5-37 3.206-.562 5.593-5.371 9 2.5 2.128 4.916-2.29 16.253.5 17.5 15.629-4.183 35.597 4.599 37.5 22Z"/><path fill="#64A3A0" d="M801 392c4.128 10.738 1.493 25.288 1.5 37-5.002 4.047-6.534-34.798-5.5-37 1.549-.889 2.305.297 4 0Z"/><path fill="#CF572E" d="M784 426c.627.088 1.618-.167 2 0-6.57 15.937-21.664 8.422-21 29 .005.15-2.765 2.293 0 3 0 12.58-16.485 22.597-23 7-.94-2.252-.763-7.2-1.5-8-.743-.806-16.214-1.454-18.5-10-.185-.69 3.121-9.828-1.5-12-2.834-.449-4.674 9.037-4.5 11-4.471-4.852.029-9.119-1-15.5-.364-2.26-4.932-10.877-5-11.5-.727-6.697 1.149-29.813 12.5-27 3.131.776 25.783 28.281 30 29 8.21 1.4-.891-11.472 11-9 12.484 2.595-.526 22.982 2 25 6.427-1.277 14.612-5.781 18.5-11Zm-57.5-11c-8.281 3.277 13.59 8.113 16.5 3.5.468-3.188-14.244-4.393-16.5-3.5Zm35 3c-1.339.91-.882 7.959 2 6 1.339-.91.882-7.959-2-6Zm-27 5c-3.161.729-4.127 6.897-.5 8.5 7.486 3.308 6.195-9.813.5-8.5Z"/><path fill="#FEFEFD" d="M239 438c-9.583.165-20.524-.993-31-1-10.577-.007-19.313-1.926-30.5 0-10.016 1.725-39.368 17.289-46 15-6.409-2.212-4.453-33.751-5.5-40.5 40.652-28.561 88.305-1.027 133.5-5.5 11.628-1.151 40.648-15.448 22.5 14.5-8.884 14.66-27.283 17.23-43 17.5Z"/><path fill="#D0582E" d="M416 415c-9.596-7.76-13.715 2.265 0 2 2.532 9.295 13.496 3.743 11 16.5-1.265 6.464-33.354 28.246-34 31-2.081 8.871 6.473 10.635 8 12.5 1.661 2.028-.04 1.912 0 3 .041 1.107-.666 9.558-1.5 10-1.714.909-19.848 1.555-22 1-6.681-1.724-5.746-10.214-6.5-15-.745-4.726 1.065-9.511-1-14.5-.441-1.065-13.247-15.662-15-17.5 3.412-7.713-2.856-12.109-10-8-1.7-11.11 14.182-8.154 16-13.5.336-.987-2.139-11.695-1-15 .162-.469 7.004-6.5 7.5-6.5.566 0 4.209 4.828 5 5 4.007.87 5.267-2.965 6-3 5.268-.254 14.915 1.745 20 1 1.157-.17 4.658-5.208 8-4 .235.085 1.405 3.204 3 4 2.288 1.142 6.026-.139 6.5 1.5.132.456-.571 6.548 0 9.5Zm-31.5-5c-2.207.296-9.508 7.097-5 9 5.668 2.392 15.974-10.473 5-9Zm25 12c-4.714 1.356-1.065 10.73 3 9 3.276-1.394 1.535-10.304-3-9Zm-17 9c-6.298 2.44 8.276 12.68 10.5 6.5.696-1.933-8.279-7.361-10.5-6.5Zm-6 14c-3.967 2.757 8.181 13.073 10.5 7.5 1.258-3.022-9.939-7.89-10.5-7.5Z"/><path fill="#61A4A4" d="M787 426c-.137-.157-.696.133-1 0-.382-.167-1.373.088-2 0 3.296-4.423 7.812-17.462 8-23l2-1c-1.518 8.167-1.821 17.063-7 24Z"/><path fill="#ED9022" d="M384.5 410c10.974-1.473.668 11.392-5 9-4.508-1.903 2.793-8.704 5-9Z"/><path fill="#EA8C1E" d="M416 415c.117.604-.148 1.456 0 2-13.715.265-9.596-9.76 0-2Z"/><path fill="#671618" d="M726.5 415c2.256-.893 16.968.312 16.5 3.5-2.91 4.613-24.781-.223-16.5-3.5Z"/><path fill="#922C24" d="M761.5 418c2.882-1.959 3.339 5.09 2 6-2.882 1.959-3.339-5.09-2-6Z"/><path fill="#540E15" d="M409.5 422c4.535-1.304 6.276 7.606 3 9-4.065 1.73-7.714-7.644-3-9Z"/><path fill="#4B070F" d="M734.5 423c5.695-1.313 6.986 11.808-.5 8.5-3.627-1.603-2.661-7.771.5-8.5Z"/><path fill="#F3CC61" d="M804 504c-8.307-20.809-23.914-32.624-39-48v-1c-.664-20.578 14.43-13.063 21-29 .304.133.863-.157 1 0 1.369 1.565 13.787 19.277 14 20.5 1.849 10.618-4.938 12.256-6 18-2.704 14.623 19.041 21.652 9 39.5Z"/><path fill="#E78922" d="M392.5 431c2.221-.861 11.196 4.567 10.5 6.5-2.224 6.18-16.798-4.06-10.5-6.5Z"/><path fill="#E98721" d="M355 444c-.6-.629-9.041-1.73-10-8 7.144-4.109 13.412.287 10 8Z"/><path fill="#E57E24" d="M722 447c-3.462 2.054-3.924 1.252-6-1-.174-1.963 1.666-11.449 4.5-11 4.621 2.172 1.315 11.31 1.5 12Z"/><path fill="#F1A92D" d="M239 438c5.46 6.654 25.792 13.971 28 22.5 1.685 6.507-3.342 29.677-11 15.5-.295-2.738-.185-5.934-2.5-8-.283 15.534-9.357 7.546-13 8-.606.075-6.748 6.431-10 7-3.929.688-6.125-2.309-7-2-.51.18-3.744 8.822-6 9-1.102.087-14.914-11.174-17.5 2.5-1.092 5.773 5.732 17.371 8 24.5-33.564 5.238-34.719-43.034-22-62.5 5.112-7.823 14.974-12.034 22-17.5 10.476.007 21.417 1.165 31 1Z"/><path fill="#6D1E13" d="M497.5 444c2.056-.914 42.241-.65 45 0 4.135.974 4.135 4.026 0 5-3.968.935-45.537.639-46.5-1.5-.498-1.107.413-3.017 1.5-3.5Z"/><path fill="#FBF4E1" d="M386.5 445c.561-.39 11.758 4.478 10.5 7.5-2.319 5.573-14.467-4.743-10.5-7.5Z"/><path fill="#99796E" d="M765 456v2c-2.765-.707.005-2.85 0-3v1Z"/><path fill="#5DA2A1" d="M804 504c1.76 4.409 7.021 22.31 8 27 3.269 15.665 5.523 37.203 3 53-1.964 12.3-4.124 16.9-14.5 24-17.097 11.7-40.882 15.261-60.5 20-11.127.486-29.257-1.536-33 9-6.278 17.669-2.561 38.64-5 57-1.121.174-3.245 2.74-4 3-3.442-.656-7.333 1.638-11.5 1-4.548-.697-9.985-2.705-14.5-4-.542-.155-1.481.163-2 0-8.769-2.75-7.075-4.081-13-7 .273-2.525-.805-4.51-1-7-.051-.655.029-1.342 0-2 2.554-.74 1.898-2.593 2-4.5.928-17.271-2.769-52.856 6-67 11.208-18.078 68.203-16.002 86.5-28.5 1.083-2.885-14.353 1.352-17.5 2 14.88-22.534 65.125-49.327 54-81.5-2.49-7.2-11.258-17.313-19.5-12.5L724 552.5c-2.834 3.083-3.798.499-4 .5 1.482-5.484 1.395-12.843 1-18.5-.182-2.603-2.994-10.906-3-11.5-.062-6.39 2.98-35.314 5-41 2.467-6.945 11.914-15.157 19-17 6.515 15.597 23 5.58 23-7v-2c15.086 15.376 30.693 27.191 39 48Z"/><path fill="#CF572E" d="M256 476c.656 6.089-1.354 18.838 0 23.5.511 1.758 5.995 4.104 6 7.5-15.385-9.282-12.878 3.348-7 5 .196 4.125-5.243 11.123-8.5 13-9.086 5.237-16.728-1.656-13.5 12-7.954 7.69-19.98 3.851-23-7-1.045-3.756-.596-8.588-2-13-2.268-7.129-9.092-18.727-8-24.5 2.586-13.674 16.398-2.413 17.5-2.5 2.256-.178 5.49-8.82 6-9 .875-.309 3.071 2.688 7 2 3.252-.569 9.394-6.925 10-7 3.643-.454 12.717 7.534 13-8 2.315 2.066 2.205 5.262 2.5 8Zm-17.5 9c-1.313.186-8.273 5.57-6 8 2.048 1.247 16.084-3.625 10-8-1.305.122-2.713-.182-4 0Zm-29 8c-4.316 1.48 1.811 7.964 3 7 2.032-1.648-.648-7.807-3-7Zm28 2c-4.462 1.364-2.542 9.694 3 8 4.462-1.364 2.542-9.694-3-8Z"/><path fill="#F3CC61" d="M871 699c.058-8.236-1.267-59.643 0-62.5 1.815-4.094 20.598 3.926 12-13-.747-1.471-3.626-1.91-4-2.5-2.765-4.362-26.784-33.466-29.5-35-6.261-3.537-26.807-1.15-34.5-2 2.523-15.797.269-37.335-3-53 8.918.473 10.367 12.743 18.5 16 13.491 5.403 32.802.246 37.5-14.5 2.905-9.118-1.057-9.143-3-15.5 13.411-5.23 24.758-14.648 34-25.5 5-5.871 9.547-22.468 18.5-17.5 3.176 1.762 17.77 34.211 19.5 39.5 23.271 71.141 2.397 149.483-66 185.5Z"/><path fill="#F9EED5" d="M371 476c.754 4.786-.181 13.276 6.5 15 2.152.555 20.286-.091 22-1 .834-.442 1.541-8.893 1.5-10 4.069.223 7.165 4.707 11 5-.605 9.746-.789 21.94-8.5 29-9.23-3.001-6.483-11.173-12.5-16.5 5.749 31.058 6.995 63.805 3 95 1.212 2.656 34.969 2.361 40 2.5 8.362.232 16.643.894 25 1 1.809 1.248 3.115 2.902 5 4-.258 5.565 8.123 11.131 8 17l-203-1c1.941-5.074 3.944-14.069 10-16 5.2-1.658 14.497 1.418 18.5 1 8.646-.903 20.514-5.749 28-5 .334.033 3.994 2.838 6 3 8.333.674 24.257 2.398 29.5-6l26.5 1c4.323-1.907 3.864-49.355 3.5-56.5-.356-6.999-2.239-32.543-4-38-.097-.301-1.5-1.981-2-1 1.487 3.629-4.556 14.703-7.5 15.5-10.59 2.867-11.638-14.207-13.5-20.5-2.027-6.849-8.416-7.461-2-17.5 3.904-1.286 5.232-.164 9 0Zm-85.5 129c-1.412.313-4.97 1.463-3 4l9 1 168.5-1.5c-.107-2.667-1.778-2.197-3.5-2.5-14.684-2.585-158.445-3.781-171-1Z"/><path fill="#5DA2A1" d="M362 476c-6.416 10.039-.027 10.651 2 17.5 1.862 6.293 2.91 23.367 13.5 20.5 2.944-.797 8.987-11.871 7.5-15.5.5-.981 1.903.699 2 1 1.761 5.457 3.644 31.001 4 38 .364 7.145.823 54.593-3.5 56.5l-26.5-1c9.98-15.986-15.986-15.431-17-19.5 7.398-7.619 7.997-12.305-5-9.5l4-20c2.802-2.679 5.863-9.981 5-13.5-1.61-6.564-27.386-5.803-33 1.5 3.842-21.268 13.91-35.618 32-47 .654-.412 3.77.416 4.5 0 3.925-2.238 6.553-7.7 10.5-9Z"/><path fill="#BA4120" d="M723 482c-2.02 5.686-5.062 34.61-5 41-9.885 2.76-23.552 10.824-33.5 12-12.067 1.427-23.383-4.156-35.5-6-3.908-.595-3.033-4.16-9 0-.116.081-1.955 1.866-2 2l-9 3.5 4 6.5c-.854-3.071-7.368-4.163-6.5 0h5.5c-1.25 4.737 16.227.679 11 6-8.307-5.131-23.217 2.957-27-8-3.034-8.789 14.503-20.605 21.5-23 15.281-5.231 26.795 1.955 38 0 11.92-2.08 36.015-27.58 47.5-34Z"/><path fill="#5DA1A1" d="M458 538c-6.238-4.607-27.916-26.563-31-9.5-1.034 5.72 1.696 11.954 2 17.5.901 16.435 2.346 32.765 5 49-5.031-.139-38.788.156-40-2.5 3.995-31.195 2.749-63.942-3-95 6.017 5.327 3.27 13.499 12.5 16.5 7.711-7.06 7.895-19.254 8.5-29 .485.037 4.089-3.308 8.5-2 6.012 1.783 41.524 44.498 37.5 55Z"/><path fill="#ED9523" d="M238.5 485c1.287-.182 2.695.122 4 0 6.084 4.375-7.952 9.247-10 8-2.273-2.43 4.687-7.814 6-8Z"/><path fill="#CE562E" d="M733 580c-1.885.388-4.036 1.419-7 2-11.986-5.791-25.223-8.684-38-14-5.381-2.239-18.023-11.598-22.5-12-3.942-.354-9.172 2.896-12 3-4.569.168-20.952-.224-14-6-4.445.001-10.289.362-13.5-3.5.448-2.874 15.179-.646 17-2.5 5.227-5.321-12.25-1.263-11-6h1l-4-6.5 9-3.5c-1.956 5.862 5.41 4.393 9.5 5l-7.5-7c5.967-4.16 5.092-.595 9 0 6.099 2.383 14.625 11.952 19.5 14 5.385 2.262 45.423 10.026 51.5 10 .202-.001 1.166 2.583 4-.5l43.5-66.5c8.242-4.813 17.01 5.3 19.5 12.5 11.125 32.173-39.12 58.966-54 81.5Z"/><path fill="#A4311E" d="M209.5 493c2.352-.807 5.032 5.352 3 7-1.189.964-7.316-5.52-3-7Z"/><path fill="#4C080F" d="M237.5 495c5.542-1.694 7.462 6.636 3 8-5.542 1.694-7.462-6.636-3-8Z"/><path fill="#E07321" d="M262 507c.005 3.325-4.194 5.789-7 5-5.878-1.652-8.385-14.282 7-5Z"/><path fill="#CC542D" d="M458 538c3.075 2.271 7.682 7.495 11.5 9 6.697 2.641 18.182 1.675 24.5 7-3.772 4.881-6.943 12.952-11 18-5.06-2.004-16.794-1.46-22.5-4l-1.5 10c-.331.026-.671-.034-1 0-.548-2.578.76-8.567 0-10.5-.661-1.68-25.598-18.612-29-21.5-.304-5.546-3.034-11.78-2-17.5 3.084-17.063 24.762 4.893 31 9.5Z"/><path fill="#F3CD62" d="M718 523c.006.594 2.818 8.897 3 11.5.395 5.657.482 13.016-1 18.5-6.077.026-46.115-7.738-51.5-10-4.875-2.048-13.401-11.617-19.5-14 12.117 1.844 23.433 7.427 35.5 6 9.948-1.176 23.615-9.24 33.5-12Z"/><path fill="#BF4523" d="M343 544c-2.699 2.581-7.586 3.872-12 8.5-1.786 1.873-3.605 8.768-7 11.5-8.778 7.063-7.24-2.185-13.5-4-6.007-1.742-10.917 3.688-15.5 5 6.058-6.91 11.019-14.812 16-22.5 1.509-2.328 2.269-8.248 4-10.5 5.614-7.303 31.39-8.064 33-1.5.863 3.519-2.198 10.821-5 13.5Z"/><path fill="#F6D363" d="M638 531c.045-.134 1.884-1.919 2-2l7.5 7c-4.09-.607-11.456.862-9.5-5Z"/><path fill="#5DA2A1" d="M210 530c3.02 10.851 15.046 14.69 23 7 3.349 14.166 20.546 12.586 27 24-11.614-2.93-29.753-11.453-40.5-9-7.302 1.667-10.742 11.75-8.5 18.5 3.241 9.757 26.747 14.547 36 17.5l-5 40.5 23 1.5c2.424 8.494 27.26 9.708 34 10l-12 77.5c.994.577 3.799-3.59 4-4 4.163-8.475 11.714-52.258 12-62.5 8.326 3.709 13.338 11.035 15 20l-9 65.5c-2.325 6.607-16.33 1.593-22 4.5-.157-6.835.711-13.762-1-20.5-.778-.731-4.219 1.837-5 2.5-5.684-4.824-17.195-2.215-23.5-4-2.065-.585-15.954-11.276-17.5-8.5 2.675 6.744 15.012 8.6 18 13 1.208 1.779 7.977 21.634 3.5 21.5-4.388-.131-28.605-24.017-32.5-29 5.822-8.084 6.47-4.697 11-9 3.097-2.942 5.186-8.157 7-12 .662-1.403 5.821-10.288 4.5-11-11.849-.161-23.679-1.625-35.5-2-6.703-4.086-22.071-5.173-27-11.5-1.506-1.933-7.333-22.132-8-25.5-4.611-23.287-6.361-53.684 0-76.5 3.614-12.963 13.034-39.168 29-38.5Zm33.5 189c-3.196.859-.176 5.853 3 5 3.196-.859.176-5.853-3-5Z"/><path fill="#F8F1DC" d="M633 541h-6.5c-.868-4.163 5.646-3.071 6.5 0Z"/><path fill="#F9EFD7" d="M616 539c3.783 10.957 18.693 2.869 27 8-1.821 1.854-16.552-.374-17 2.5 3.211 3.862 9.055 3.501 13.5 3.5-6.952 5.776 9.431 6.168 14 6 2.828-.104 8.058-3.354 12-3 4.477.402 17.119 9.761 22.5 12l3 9c-67.992-.07-136.027.068-204 1 1.249-1.86-3.491-5.798-4-6 4.057-5.048 7.228-13.119 11-18 5.646-7.306 9.777-12.708 19.5-15H616Zm-73.5 10c-1.009.16-3.763 1.508-5.5 1.5-2.082 2.798 23.38 3.381 26.5 3.5 4.144.158 56.506.328 56.5-2.5-1.116-1.296-5.004-2.278-6.5-2.5-10.496-1.56-60.674-1.636-71 0Zm-14 11c-4.802.336-10.22 1.121-15 2l5 3 110.5-1.5c-.01-1.142-8.148-2.362-9.5-2.5-23.265-2.382-67.49-2.647-91-1Z"/><path fill="#F1CD63" d="M339 564c-1.902.41-8.015 5.458-10 7l-5-7c3.395-2.732 5.214-9.627 7-11.5 4.414-4.628 9.301-5.919 12-8.5l-4 20Z"/><path fill="#F3CC61" d="M458 578c-6.884.704-13.584 1.083-10 11.5.657 1.91 8.27 4.617 11 6.5-8.357-.106-16.638-.768-25-1-2.654-16.235-4.099-32.565-5-49 3.402 2.888 28.339 19.82 29 21.5.76 1.933-.548 7.922 0 10.5Z"/><path fill="#6C1A16" d="M542.5 549c10.326-1.636 60.504-1.56 71 0 1.496.222 5.384 1.204 6.5 2.5.006 2.828-52.356 2.658-56.5 2.5-3.12-.119-28.582-.702-26.5-3.5 1.737.008 4.491-1.34 5.5-1.5Z"/><path fill="#CD552E" d="M260 561c6.802 1.716 18.564 5.738 25 6-9.424 5.627 8.707 17.761 13.5 19 4.094 1.059 5.688-2.054 6-2 1.883.326 4.431 5.628 10 4 4.751-1.389 5.057-11.004 5.5-11.5 1.1-1.233 4.953-.011 5.5-.5 2.042-1.828.771-2.881 3.5-5 1.985-1.542 8.098-6.59 10-7 12.997-2.805 12.398 1.881 5 9.5 1.014 4.069 26.98 3.514 17 19.5-5.243 8.398-21.167 6.674-29.5 6-2.006-.162-5.666-2.967-6-3-7.486-.749-19.354 4.097-28 5-4.003.418-13.3-2.658-18.5-1-7.988-7.492-21.958-8.795-32-12-9.253-2.953-32.759-7.743-36-17.5-2.242-6.75 1.198-16.833 8.5-18.5 10.747-2.453 28.886 6.07 40.5 9Z"/><path fill="#E77D22" d="m324 564 5 7c-2.729 2.119-1.458 3.172-3.5 5-.547.489-4.4-.733-5.5.5-.443.496-.749 10.111-5.5 11.5-5.569 1.628-8.117-3.674-10-4-.312-.054-1.906 3.059-6 2-4.793-1.239-22.924-13.373-13.5-19 1.84.075 7.855-1.386 10-2 4.583-1.312 9.493-6.742 15.5-5 6.26 1.815 4.722 11.063 13.5 4Z"/><path fill="#6B1D17" d="M528.5 560c23.51-1.647 67.735-1.382 91 1 1.352.138 9.49 1.358 9.5 2.5L518.5 565l-5-3c4.78-.879 10.198-1.664 15-2Z"/><path fill="#F2CC5C" d="M483 572c.509.202 5.249 4.14 4 6-9.046.124-19.157-.692-28 0l1.5-10c5.706 2.54 17.44 1.996 22.5 4Z"/><path fill="#F4CF61" d="M726 582c-8.956 1.754-18.104 2.958-27 5 3.083-4.179-4.34-9.406-8-10l-3-9c12.777 5.316 26.014 8.209 38 14Z"/><path fill="#F4EFD7" d="M656 678c-.058-1.321.037-2.677 0-4l-1-56c.456-3.442 2.583-7.637 3-10 2.346-.434 3.548-4.249 5-6 9.969-12.019 21.789-11.739 36-15 8.896-2.042 18.044-3.246 27-5 2.964-.581 5.115-1.612 7-2 3.147-.648 18.583-4.885 17.5-2-18.297 12.498-75.292 10.422-86.5 28.5-8.769 14.144-5.072 49.729-6 67-.102 1.907.554 3.76-2 4.5Z"/><path fill="#6D1C1A" d="M691 577c3.66.594 11.083 5.821 8 10-14.211 3.261-26.031 2.981-36 15l-3-2c-.318-11.868-11.608-10.245-21-7.5-1.213 32.786 1.18 65.792 1 98.5-.029 5.302.037 10.744 0 16-.099 14.209 1.481 65.939-1 75.5-2.322 8.95-20.282 8.062-27.5 8.5-19.753 1.198-84.913 4.373-101 1-4.667-.978-9.6-6.88-10.5-11.5-3.608-18.519.148-63.82 0-85.5-.229-33.483.171-67.004 0-100.5-.854-1.924-31.033-2.203-32.5-1.5-.353.169-3.482 6.609-3.5 7-1.885-1.098-3.191-2.752-5-4-2.73-1.883-10.343-4.59-11-6.5-3.584-10.417 3.116-10.796 10-11.5.329-.034.669.026 1 0 8.843-.692 18.954.124 28 0 67.973-.932 136.008-1.07 204-1Z"/><path fill="#F9EFD6" d="M879 621c-.457 1.885-4.062 3.776-5.5 4-38.263 5.964-93.208 1.24-133.5 3 19.618-4.739 43.403-8.3 60.5-20 10.376-7.1 12.536-11.7 14.5-24 7.693.85 28.239-1.537 34.5 2 2.716 1.534 26.735 30.638 29.5 35Z"/><path fill="#F3CC60" d="M279 600c-6.056 1.931-8.059 10.926-10 16-1.423 3.72-5.821 7.619-4 14l-23-1.5 5-40.5c10.042 3.205 24.012 4.508 32 12Z"/><path fill="#F2CB60" d="M660 600c.049 1.835-1.599 5.73-2 8-.417 2.363-2.544 6.558-3 10-1.478 11.159-5.137 42.923-3 52.5.093.417 3.076 3.211 4 3.5.037 1.323-.058 2.679 0 4 .029.658-.051 1.345 0 2-4.746-1.156-3.476 3.374-4 4-2.486 2.972-7.905 6.983-12 7 .18-32.708-2.213-65.714-1-98.5 9.392-2.745 20.682-4.368 21 7.5Z"/><path fill="#F2CC61" d="M500 695h-33c.102-18.12.724-36.43-1-54.5 2.901-4.302 9.408-1.396 12.5-2.5 6.725-2.4.352-20.1-6.5-21 .123-5.869-8.258-11.435-8-17 .018-.391 3.147-6.831 3.5-7 1.467-.703 31.646-.424 32.5 1.5.171 33.496-.229 67.017 0 100.5Z"/><path fill="#3B919C" d="M663 602c-1.452 1.751-2.654 5.566-5 6 .401-2.27 2.049-6.165 2-8l3 2Z"/><path fill="#6F1A19" d="M285.5 605c12.555-2.781 156.316-1.585 171 1 1.722.303 3.393-.167 3.5 2.5L291.5 610l-9-1c-1.97-2.537 1.588-3.687 3-4Z"/><path fill="#6D1C1A" d="M472 617c6.852.9 13.225 18.6 6.5 21-3.092 1.104-9.599-1.802-12.5 2.5 1.724 18.07 1.102 36.38 1 54.5-.193 34.151.144 68.337 0 102.5-4.022 5.06-8.834 2.346-10-3-4.188-19.198.163-75.965 0-99.5-.126-18.151.093-36.336 0-54.5-1.167-2.633-8.57-1.18-11-1.5-15.587-2.053-31.989-1.244-47.5 0-.996.706-.271 2.069-.5 3-1.684 6.829.019 42.754 0 53-.024 13.395.732 26.679 1 40 .263 13.082 3.458 26.384-15 14.5 1.625-2.468 2.593.709 4-2.5 2.377-5.423-.23-7.599 0-11 .055-.817.89-1.128 1-3 .134-2.272-1.058-5.977-1-8 .031-1.096-.021-2.092 0-3 .623-27.117 1.55-54.298 1-81.5-2.019-5.207-26.478-1.533-32-1.5-18.235.11-36.789.609-55 0-1.939-.065-2.215 1.034-3 1-6.74-.292-31.576-1.506-34-10-1.821-6.381 2.577-10.28 4-14l203 1Zm-76.5 81c-.386-.057-6.638 3.833-5 6l6-3c1.344-.857-.404-2.912-1-3Z"/><path fill="#4C9EAA" d="M656 674c-.924-.289-3.907-3.083-4-3.5-2.137-9.577 1.522-41.341 3-52.5l1 56Z"/><path fill="#6D1C19" d="M871 699c-.042 5.922 1.067 12.474 1 18-.086 7.095.118 39.648-1 43.5-1.703 5.869-8.576 4.983-10-1-2.062-8.666.167-35.511 0-46.5-.04-2.654.038-5.346 0-8-.315-22.124-.883-44.402 0-66.5l-2.5-2.5-126 1-3.5 2.5c.629 18.305 2.094 37.234 2 55.5-.068 13.086 1.188 75.303-1 82.5-2 6.579-8.66 4.117-10-3-3.369-17.891.197-58.813 0-79.5-.092-9.684 1.901-48.692 0-54.5-1.466-4.477-9.113-3.542-13-3.5 3.743-10.536 21.873-8.514 33-9 40.292-1.76 95.237 2.964 133.5-3 1.438-.224 5.043-2.115 5.5-4 .374.59 3.253 1.029 4 2.5 8.598 16.926-10.185 8.906-12 13-1.267 2.857.058 54.264 0 62.5Z"/><path fill="#F3CC61" d="M861 705c-3.338 1.377-10.087 3.196-11 6-12.429-3.068-25.378-6.947-38-9l29-22.5c-19.718-19.336-61.933-4.073-75 17.5-11.62-.984-23.332-1.69-35-2 .094-18.266-1.371-37.195-2-55.5l3.5-2.5 126-1 2.5 2.5c-.883 22.098-.315 44.376 0 66.5Z"/><path fill="#F4CE63" d="M720 695c-4.929.911-14.281-1.576-18-1 2.439-18.36-1.278-39.331 5-57 3.887-.042 11.534-.977 13 3.5 1.901 5.808-.092 44.816 0 54.5Z"/><path fill="#CE572D" d="M388 722c-5.966-.009-15.028-.623-18 5.5l18-2.5c-.058 2.023 1.134 5.728 1 8-2.204-2.148-17.752-.219-18 1.5 3.904 4.957 11.602 1.674 17 1.5-.23 3.401 2.377 5.577 0 11-4.068-3.464-7.066 1.078-7.5 1-1.552-.28-8.801-12.019-10.5-7-4.271-11.826-.563-15.588 1-28 3.424.677 12.758.124 15-3.5l-22-3.5c-.523-2.975 1.039-2.847 1-3l14-1.5-15-2.5c-.122-.174-2.803-2.921-3-3l-4-57c5.522-.033 29.981-3.707 32 1.5.55 27.202-.377 54.383-1 81.5Z"/><path fill="#CF572E" d="M446 639c-.233 18.559-2.038 37.782-5 56-.409 2.513-.468 9.23-1 10.5-1.054 2.517-9.215 1.952-11 5-1.003 4.998 5.456 3.405 6 4 .32.351-.847 6.215 0 9.5-1.193 2.707-3.671 2.743-5 4-6.38-1.555-16.071-4.43-21 1-.452-.522-1.38 1.665-2 .5 4.908-9.517-.979-18.428-3.5-26.5l1.5 1 34-2.5c2.873-3.551-22.491-2.724-24.5-2.5-2.536.283-6.929 2.044-9.5 3 .409-2.588.892-4.053 1-7 .292-7.929-.639-45.398-3-50.5-.714-1.543-3.13-3.005-5-2.5.229-.931-.496-2.294.5-3 15.511-1.244 31.913-2.053 47.5 0Zm-31.5 79c-.494.105-3.299 1.463-4 2-2.109 3.114 20.269 2.895 22.5-.5-.011-2.087-16.799-1.862-18.5-1.5Z"/><path fill="#F6EFD7" d="M302 639c-1.097 3.497 1.073 9.4 1 12-.286 10.242-7.837 54.025-12 62.5-.201.41-3.006 4.577-4 4l12-77.5c.785.034 1.061-1.065 3-1Z"/><path fill="#F3CC61" d="m357 639 4 57c-9.174-3.682-32.332.716-43-1 .515-8.023 1.485-15.989 0-24-1.662-8.965-6.674-16.291-15-20 .073-2.6-2.097-8.503-1-12 18.211.609 36.765.11 55 0Z"/><path fill="#F3CE63" d="M457 695h-16c2.962-18.218 4.767-37.441 5-56 2.43.32 9.833-1.133 11 1.5.093 18.164-.126 36.349 0 54.5Z"/><path fill="#F3CD60" d="M406 695h-8c.019-10.246-1.684-46.171 0-53 1.87-.505 4.286.957 5 2.5 2.361 5.102 3.292 42.571 3 50.5Z"/><path fill="#F8EFD5" d="M181 645c.667 3.368 6.494 23.567 8 25.5 4.929 6.327 20.297 7.414 27 11.5-14.643-.465-55.44-1.297-68 2-1.185-1.974 1.041-5.758 2-7.5 1.808-3.286 15.793-26.893 17-28 2.511-2.304 10.491-3.026 14-3.5Z"/><path fill="#F8EFD9" d="M318 695c-.47 7.322-4.571 41.256-8 45.5-1.887 2.336-5.413 2.146-8 2.5-3.402.466-8.343 0-12 0h-3c-.077-.644.015-1.344 0-2 5.67-2.907 19.675 2.107 22-4.5l9-65.5c1.485 8.011.515 15.977 0 24Z"/><path fill="#FEFDFD" d="M812 702c-14.966-2.434-30.864-3.718-46-5 13.067-21.573 55.282-36.836 75-17.5L812 702Z"/><path fill="#F2E6D0" d="M656 680c.195 2.49 1.273 4.475 1 7-1.25-.616-5.355 1.19-5-3 .524-.626-.746-5.156 4-4Z"/><path fill="#6E1C1A" d="M216 682c11.821.375 23.651 1.839 35.5 2 1.321.712-3.838 9.597-4.5 11-18.044.205-36.055 1.341-54 3-6.438.595-13.089-.784-19.5 1-3.17 1.712-1.345 7.856-1.5 12-.726 19.404 1.436 40.394 0 59.5-.138 1.842-4.707 3.886-1.5 5.5 135.138 38.914 284.501 42.59 425 37 64.251-2.556 136.493-8.562 199-23 41.566-9.601 85.672-23.174 115.5-55 4.09 5.218 6.455 23.217 5 29.5-8.085 34.916-119.524 62.673-150.5 68.5-131.791 24.794-288.512 25.776-422 13-45.537-4.358-226.759-29.698-243.5-77.5-2.076-5.927-1.76-27.617 1-32.5 18.581 16.177 39.244 28.542 62.5 37-1.61-19.567.5-39.427-.5-59-.142-2.778.618-10.908 0-12.5-1.796-4.632-11.616-1.446-15.5-2.5-6.814-1.849-4.658-13.383 1.5-15 12.56-3.297 53.357-2.465 68-2Z"/><path fill="#BA4123" d="M657 687c5.925 2.919 4.231 4.25 13 7-2.1 3.16 1.375 2.344 2 0 4.515 1.295 9.952 3.303 14.5 4 4.167.638 8.058-1.656 11.5-1-2.284.787-2.808 2.859-7 3-15.519.521-25.43-6.456-40 8l-11-1c.037-5.256-.029-10.698 0-16 4.095-.017 9.514-4.028 12-7-.355 4.19 3.75 2.384 5 3Zm-4.5 4c-4.715-.081-3.065 5.699 1 5 4.209-.724 2.688-4.937-1-5Z"/><path fill="#F9F5EB" d="M652.5 691c3.688.063 5.209 4.276 1 5-4.065.699-5.715-5.081-1-5Z"/><path fill="#F19125" d="M457 695c.163 23.535-4.188 80.302 0 99.5 1.166 5.346 5.978 8.06 10 3 .144-34.163-.193-68.349 0-102.5h33c.148 21.68-3.608 66.981 0 85.5.9 4.62 5.833 10.522 10.5 11.5 16.087 3.373 81.247.198 101-1 7.218-.438 25.178.45 27.5-8.5 2.481-9.561.901-61.291 1-75.5l11 1c-30.647 30.407 29.79 22.501 45.5 12 2.912-1.946 6.879-3.942 4-8-4.792 6.768-52.185 12.423-52.5 6.5 13.501-13.513 23.97-17.064 43-16.5 1.733.051 10.081 2.34 10.5 2 1.442-3.595.452-6.247-3.5-7 .755-.26 2.879-2.826 4-3 3.719-.576 13.071 1.911 18 1 .197 20.687-3.369 61.609 0 79.5 1.34 7.117 8 9.579 10 3 2.188-7.197.932-69.414 1-82.5 11.668.31 23.38 1.016 35 2 15.136 1.282 31.034 2.566 46 5 12.622 2.053 25.571 5.932 38 9 3.281.81 7.57 1.103 11 2 .167 10.989-2.062 37.834 0 46.5 1.424 5.983 8.297 6.869 10 1 1.118-3.852.914-36.405 1-43.5 9.951 4.188 31.401 9.579 38 18-29.828 31.826-73.934 45.399-115.5 55-62.507 14.438-134.749 20.444-199 23-140.499 5.59-289.862 1.914-425-37-3.207-1.614 1.362-3.658 1.5-5.5 1.436-19.106-.726-40.096 0-59.5 7.762.536 16.954-3.238 24-4 13.598-1.471 30.337-1.35 44 0-4.53 4.303-5.178.916-11 9-.382.53-4.761.146-4 5.5.64 4.503 28.819 29.91 33.5 30.5 11.367 1.432 11.389-20.149 6.5-27.5l13 2.5c-.883 4.041-.568 49.457 1 51.5 9.504 12.387 7.496-16.695 8.5-17.5 7.623.701 27.161 20.609 32.5 11.5.786-1.342-1.051-2.815-1-3.5.677-9.183-6.811-24.185-17-26 2.587-.354 6.113-.164 8-2.5 3.429-4.244 7.53-38.178 8-45.5 10.668 1.716 33.826-2.682 43 1 .197.079 2.878 2.826 3 3 .118.169.823 3.304 1 4 .039.153-1.523.025-1 3 .155.882-1.542 1.373-1 2.5.199.414 7.55 4.411 8 4.5-1.563 12.412-5.271 16.174-1 28 10.446 28.92 41.337 25.821 29-6-.268-13.321-1.024-26.605-1-40h8c-.108 2.947-.591 4.412-1 7-.1.634.047 1.35 0 2l-1.5-1c2.521 8.072 8.408 16.983 3.5 26.5.62 1.165 1.548-1.022 2-.5.208.24-.128 2.184 0 3-.896-.156-2.022-1.676-3-1-9.252 6.395 26.436 46.066 32 16 2.217-11.981-.388-12.868-3-23-.847-3.285.32-9.149 0-9.5-.544-.595-7.003.998-6-4 1.785-3.048 9.946-2.483 11-5 .532-1.27.591-7.987 1-10.5h16Zm219.5 12-7.5 3.5c3.036 5.929 10.391-1.912 7.5-3.5Zm15 2c-.612.793-1.708.914-1 2 1.391 2.132 2.238-.164 1-2Z"/><path fill="#DABA9C" d="M672 694c-.625 2.344-4.1 3.16-2 0 .519.163 1.458-.155 2 0Z"/><path fill="#A2C9CA" d="M247 695c-1.814 3.843-3.903 9.058-7 12-13.663-1.35-30.402-1.471-44 0l-3-9c17.945-1.659 35.956-2.795 54-3Z"/><path fill="#56A8A4" d="M691 702v-2c4.192-.141 4.716-2.213 7-3 3.952.753 4.942 3.405 3.5 7-.419.34-8.767-1.949-10.5-2Z"/><path fill="#EFCE68" d="m193 698 3 9c-7.046.762-16.238 4.536-24 4 .155-4.144-1.67-10.288 1.5-12 6.411-1.784 13.062-.405 19.5-1Z"/><path fill="#F8F0DF" d="M365 703c-.177-.696-.882-3.831-1-4l15 2.5-14 1.5Z"/><path fill="#F5EFE6" d="M395.5 698c.596.088 2.344 2.143 1 3l-6 3c-1.638-2.167 4.614-6.057 5-6Z"/><path fill="#F9EFD9" d="M691 700v2c-19.03-.564-29.499 2.987-43 16.5.315 5.923 47.708.268 52.5-6.5 2.879 4.058-1.088 6.054-4 8-15.71 10.501-76.147 18.407-45.5-12 14.57-14.456 24.481-7.479 40-8Z"/><path fill="#FAF2DF" d="M405 704c.047-.65-.1-1.366 0-2 2.571-.956 6.964-2.717 9.5-3 2.009-.224 27.373-1.051 24.5 2.5l-34 2.5Z"/><path fill="#FCF8F2" d="M861 705c.038 2.654-.04 5.346 0 8-3.43-.897-7.719-1.19-11-2 .913-2.804 7.662-4.623 11-6Z"/><path fill="#F8F3E5" d="M371 713c-.45-.089-7.801-4.086-8-4.5-.542-1.127 1.155-1.618 1-2.5l22 3.5c-2.242 3.624-11.576 4.177-15 3.5Z"/><path fill="#F8F4E9" d="M676.5 707c2.891 1.588-4.464 9.429-7.5 3.5l7.5-3.5Z"/><path fill="#F9FFFE" d="M691.5 709c1.238 1.836.391 4.132-1 2-.708-1.086.388-1.207 1-2Z"/><path fill="#F8EFD7" d="M281 723c-1.819 1.544-2.41 1.3-3 4l-13-2.5c4.889 7.351 4.867 28.932-6.5 27.5-4.681-.59-32.86-25.997-33.5-30.5-.761-5.354 3.618-4.97 4-5.5 3.895 4.983 28.112 28.869 32.5 29 4.477.134-2.292-19.721-3.5-21.5-2.988-4.4-15.325-6.256-18-13 1.546-2.776 15.435 7.915 17.5 8.5 6.305 1.785 17.816-.824 23.5 4Z"/><path fill="#F19025" d="M162 714c1 19.573-1.11 39.433.5 59-23.256-8.458-43.919-20.823-62.5-37 3.331-5.892 17.674-9.692 24-12 12.298-4.487 24.981-8.436 38-10Z"/><path fill="#F9F5EB" d="M414.5 718c1.701-.362 18.489-.587 18.5 1.5-2.231 3.395-24.609 3.614-22.5.5.701-.537 3.506-1.895 4-2Z"/><path fill="#F7F6E8" d="M243.5 719c3.176-.853 6.196 4.141 3 5-3.176.853-6.196-4.141-3-5Z"/><path fill="#6B191A" d="M287 741c.015.656-.077 1.356 0 2 .089.75.131 1.107 1 1-4.119 7.367.396 7.997 4 11 1.366 1.138 1.885.915 2 1 7.087 5.209 16.632 11.129 25 13-.051.685 1.786 2.158 1 3.5-5.339 9.109-24.877-10.799-32.5-11.5-1.004.805 1.004 29.887-8.5 17.5-1.568-2.043-1.883-47.459-1-51.5.59-2.7 1.181-2.456 3-4 .781-.663 4.222-3.231 5-2.5 1.711 6.738.843 13.665 1 20.5Z"/><path fill="#FAF4E6" d="M388 722c-.021.908.031 1.904 0 3l-18 2.5c2.972-6.123 12.034-5.509 18-5.5Z"/><path fill="#59A2A3" d="M438 747c-13.584 4.572-26.79-2.636-32-16 .978-.676 2.104.844 3 1 .319.056 2.726.874 3 1 3.672 1.689 4.371 3.978 6 5-5.165 3.771 5.651 4.752 7.5 4-.318-3.793-3.936-2.316-6.5-4 4.25 1.14 6.554-4.062 10-8 .185-.211.863-1.871 1-2 1.329-1.257 3.807-1.293 5-4 2.612 10.132 5.217 11.019 3 23Zm-6.5-10c-.981-.73-4.29 6.023-1 6 1.449-.01 2.267-5.056 1-6Z"/><path fill="#FAF4E9" d="M430 728c-.137.129-.815 1.789-1 2l-17 3c-.274-.126-2.681-.944-3-1-.128-.816.208-2.76 0-3 4.929-5.43 14.62-2.555 21-1Z"/><path fill="#9E4933" d="M429 730c-3.446 3.938-5.75 9.14-10 8-.233-.153-.761.15-1 0-1.629-1.022-2.328-3.311-6-5l17-3Z"/><path fill="#F7F1DF" d="M438 747c-5.564 30.066-41.252-9.605-32-16 5.21 13.364 18.416 20.572 32 16Z"/><path fill="#FBF6EA" d="M389 733c-.11 1.872-.945 2.183-1 3-5.398.174-13.096 3.457-17-1.5.248-1.719 15.796-3.648 18-1.5Z"/><path fill="#62A8A9" d="M370 741c1.699-5.019 8.948 6.72 10.5 7 .434.078 3.432-4.464 7.5-1-1.407 3.209-2.375.032-4 2.5 18.458 11.884 15.263-1.418 15-14.5 12.337 31.821-18.554 34.92-29 6Z"/><path fill="#F1E5E1" d="M431.5 737c1.267.944.449 5.99-1 6-3.29.023.019-6.73 1-6Z"/><path fill="#EEEFEA" d="M418 738c.239.15.767-.153 1 0 2.564 1.684 6.182.207 6.5 4-1.849.752-12.665-.229-7.5-4Z"/><path fill="#A4906C" d="M290 743c.139 1.522-1.929.872-2 1-.869.107-.911-.25-1-1h3Z"/><path fill="#59A0A2" d="M302 743c10.189 1.815 17.677 16.817 17 26-8.368-1.871-17.913-7.791-25-13l4.5-3c-2.564.357-7.009-1.339-6.5 2-3.604-3.003-8.119-3.633-4-11 .071-.128 2.139.522 2-1 3.657 0 8.598.466 12 0Zm7.5 16c-.844.793-.783 2.384 0 3 .558-1.404 2.475-3.223 0-3Z"/><path fill="#D8E4D8" d="M294 756c-.115-.085-.634.138-2-1-.509-3.339 3.936-1.643 6.5-2l-4.5 3Z"/><path fill="#E9DED2" d="M309.5 759c2.475-.223.558 1.596 0 3-.783-.616-.844-2.207 0-3Z"/></svg>