<svg xmlns="http://www.w3.org/2000/svg" width="1024" height="1024"><path fill="none" d="M1023-1v1024H-1V-1h1024ZM118 711c-5.56.952-9.823 3.545-11 9.5-1.215 6.146-.405 45.653 2 50 6.635 11.994 51.932 8.45 65 8.5-.167 15.646.225 31.356 0 47-.126 8.757-3.019 75.438.5 77 169.571.703 338.98-.92 508.5-1 54.755-.026 109.687 2.099 164.5 1 2.747-35.837 1.5-72.078 1.5-108v-19c13.311-.514 42.536.706 53.5-2 15.896-3.923 14.939-41.865 12.5-54.5-3.759-19.474-42.765-13.493-58-13.5 37.854-54.075 69.854-119.734 76-186.5 14.636-158.997-93.04-345.528-250.5-390.5-154.931-44.25-244.584 59.878-363 133-62.221 38.422-131.883 63.094-178.5 122.5-72.788 92.756-60.752 221.616-23 326.5Z"/><path fill="#EDBC4C" d="M857 706c-65.636-.029-131.353.194-197 0 1.299-4.723 1.772-10.401 3-15 3.741-14.007 9.223-28.024 13-42 15.463-.243 68.274-12.566 72-29.5 4.671-21.228-18.306-55.219-31-71.5.416-.76.144-2.673 2-3.5-39.854-37.121-83.117-65.576-140-66.5-4.296-2.286-12.163-4.716-17-3-.387-.993-1.838-6.865-2-8-.316-2.212.22-4.743 0-7 6-2.094 22.831-12.027 28.5-16 7.222-5.061 26.211-27.151 28-28 1.868-.887 7.224 1.811 8.5-2 11.937 11.619 17.934.209 29-5 24.923-.358 29.76-59.751 5.5-68-4.612-1.568-10.946.153-11.5 0-.379-1.969-.121-2.64-1-5 1.449-14.943-5.764-33.2-13-46.5-27.754-51.016-83.206-71.491-139.5-57.5-28.388 7.055-66.214 67.468-73.5 94.5-.501 1.86-.655 11.506-1 12-.399.572-9.418 1.097-13.5 3.5-19.559 11.516-14.236 67.846 15.5 61 1.962 10.52 15.652 18.238 23 10 1.579 3.889 7.052 1.115 9.5 2 .997.361 5.971 8.955 7.5 10.5 13.18 13.32 30.583 29.928 49 35.5.111 1.69-.493 3.443-1 5-1.216 3.731-2.854 6.73-5 10-3.431-2.418-10.75-.02-14 2-16.34.52-38.035 1.63-53.5 7-22.428 7.788-66.72 43.258-83.5 61-15.194 16.065-49.474 61.765-29.5 82 6.499 6.584 20.905 11.586 29.5 15-18.983-1.67-43.323 4.291-63-1 31.029-6.137 33.876-48.693 4.5-60l-146-1c-2.161 2.111-2.924 3.848-1.5 6.5 1.56 2.398 3.884 1.203 6 1.5-.097 1.659.886 2.167 1 4 .021.332-.022.668 0 1 .067 1.008-.033 2.631 0 4 .008.333-.008.667 0 1 .023.895-.022 2.025 0 3 .009.385-.093.876 0 2 .027.331-.034.67 0 1 .132 1.295-.195 2.725 0 4 .05.326-.056.677 0 1 .213 1.226-.299 2.963 0 4 .095.33-.117.75 0 1 1.643 3.519 4.116 1.511 4 2.5-.136 1.155-2.988-.495-4 1.5-.182.358.162 1.447 0 2-.284.971.119 2.746 0 4-.031.325-.001.671 0 1 .001.96-.166 2.145 0 3 .067.344-.098.739 0 1 .366.975-.445.85 1 2l-2 3c-7.713 1.131-9.786 7.103-3.5 9 8.66 2.614 43.136-.955 54.5-1-29.179 17.306-29.836 49.014 0 66-24.611.155-63.907-1.955-87 2-37.752-104.884-49.788-233.744 23-326.5 46.617-59.406 116.279-84.078 178.5-122.5 118.416-73.122 208.069-177.25 363-133C839.96 173.972 947.636 360.503 933 519.5c-6.146 66.766-38.146 132.425-76 186.5ZM727 383c-.537 16.675-2.782 60.42 0 74.5 3.92 19.838 22.31-10.271 29.5-15.5 17.777-12.93 52.272-5.128 75-7 15.471-1.274 34.196-5.137 38.5-22.5l-122.5-.5c-1.701-.541-1.353-2.92-1.5-3l124.5-1c.997-.537 2.785-21.003 2.5-22.5-.641-3.364-5.217 3.206-7-1 1.547-10.388 2.489-23.029-4-32-1.936-2.677-17.97-12.969-20.5-13.5-8.545-1.795-83.797.323-92 3-.908.296-2.82 3.364-4 4-1.502.81-3.173-1.484-4-1-4.794 2.803-11.491 34.211-10.5 6.5-5.601 9.752-3.654 20.764-4 31.5Zm126.5-44c2.616 3.035 7.446 7.648 11.5 8.5-2.975-3.786-6.765-7.136-11.5-8.5ZM208 475c19.65 20.092 74.217 15.743 100.5 14 6.863 6.609 27.426 34.594 37 34 14.52-.9-7.889-33.8-2.5-43 5.026-1.021 13.819-7.133 15-12.5 2.11-9.589.355-65.908-3-75-15.457-41.895-127.488-40.231-148-8-6.837 10.742-8.674 68.216-6 81 .586 2.8 4.902 7.355 7 9.5Zm626 216c-.083-1.312.129-2.697 0-4-.098-.987-.979-1.075-1-2-.002-.103.045-.183 0-1-.053-.958 1.164-1.156 1-2-.212-1.088-.736-5.557-1-6-2.462-4.127-54.048 2.388-62-.5l61.5-2.5c1.502-2.537-.566-1.74-2-2-7.691-1.396-18.474 1.434-26.5-.5 0-1.457 24.663-1.166 26.5-1.5 1.433-.26 3.502.537 2-2-24.846.765-49.682 1.905-74.5 3 3.624-2.676 13.926-2.829 18.5-3 8.686-.325 52.326.247 56.5-2.5.308-.203-.306-3.146 0-3.5.154-.179 3.625-.621 4-2.5.991-4.962-7.066-3.503-10.5-3.5-20.839.016-93.289 1.577-110 6-18.816 4.98-18.507 34.572 0 40l119-5c4.842-3.097 2.845-4.133-1.5-5Z"/><path fill="#5D1B2B" d="M647 336c-1.656-4.445-5.465-5.023-7-9-4.867-12.613-6.3-26.807-15-38.5-2.984-1.72-1.884 10.202-2 11.5-.736 8.245-2.181 44.891-8.5 48-.502.247-9.767 1.856-11 2-34.202 4.008-72.528-14.354-90-44-7.921 9.208-21.385 16.931-28.5 26.5-5.064 6.811-6.181 22.177-22.5 20.5-11.832-1.216-7.938-13.217-9.5-19.5-2.1-8.449-5.241-16.905-7-25.5 1.019-5.24-.368-9.276 0-14.5-9.184 8.367-14.693 22.125-17 34.5-4.262 1.786-6.764 8.656-6 13-2.032 7.703-2.277 52.435-1 61 .049.326-.06.679 0 1-29.736 6.846-35.059-49.484-15.5-61 4.082-2.403 13.101-2.928 13.5-3.5.345-.494.499-10.14 1-12 7.286-27.032 45.112-87.445 73.5-94.5 56.294-13.991 111.746 6.484 139.5 57.5 7.236 13.3 14.449 31.557 13 46.5Z"/><path fill="#EDBF4F" d="M640 327c-2.26 2.91-7.556-.09-8 0-.319-8.895-3.242-19.973-9-27 .116-1.298-.984-13.22 2-11.5 8.7 11.693 10.133 25.887 15 38.5Z"/><path fill="#EEBF4F" d="M446 308c-.883 4.54-7.878 13.14-5 19-2.388-.435-9.766.064-12 1 2.307-12.375 7.816-26.133 17-34.5-.368 5.224 1.019 9.26 0 14.5Z"/><path fill="#D16024" d="M632 327c-1.647.334-7.395 1.961-8 3.5l1 83.5c-1.276 3.811-6.632 1.113-8.5 2-1.789.849-20.778 22.939-28 28-5.669 3.973-22.5 13.906-28.5 16-14.803 5.165-34.005 5.537-49 1-18.417-5.572-35.82-22.18-49-35.5-1.529-1.545-6.503-10.139-7.5-10.5-2.448-.885-7.921 1.889-9.5-2 .117-.131 1.741-.708 2-1.5v-81c-1.57-3.322-2.973-2.949-6-3.5-2.878-5.86 4.117-14.46 5-19 1.759 8.595 4.9 17.051 7 25.5 1.562 6.283-2.332 18.284 9.5 19.5 16.319 1.677 17.436-13.689 22.5-20.5 7.115-9.569 20.579-17.292 28.5-26.5 17.472 29.646 55.798 48.008 90 44 1.233-.144 10.498-1.753 11-2 6.319-3.109 7.764-39.755 8.5-48 5.758 7.027 8.681 18.105 9 27Zm-141.5 32c-5.487.681-21.013 6.662-23 12-4.277 11.49 18.71.729 22 0 3.671-.814 34.326-4.045 22-11-2.44-1.377-17.611-1.42-21-1Zm69 0c-1.505.311-6.369 2.613-6.5 4.5-.392 5.64 18.403 6.414 22.5 7.5 4.575 1.213 23.471 10.501 25.5 3.5 3.239-11.18-33.943-17.064-41.5-15.5Zm10 16c-11.894 1.622-10.564 21.852 3 21 13.28-.834 11.614-22.993-3-21Zm-73 1c-11.704 1.734-9.951 23.919 6 20 10.858-2.668 7.426-21.989-6-20Zm29 28c-.419.074-2.945 1.844-3.5 2.5-4.077 9.94 18.589 13.138 21 8 3.22-6.862-9.124-4.94-10.5-5.5-1.352-.551-2.533-5.786-7-5Zm-6 26c-5.02 3.741 8.529 8.68 11 9 3.523.456 20.286-1.393 20.5-5.5.306-5.867-9.487.433-10.5.5-8.526.56-13.297-.809-21-4Z"/><path fill="#FBEA85" d="M441 327c3.027.551 4.43.178 6 3.5v81c-.259.792-1.883 1.369-2 1.5-7.348 8.238-21.038.52-23-10-.06-.321.049-.674 0-1 3.968 3.037 4.327 9.938 10.5 11 12.516 2.153 9.896-10.187 10.5-20.5 1.172-20-2.986-40.023 0-60-7.948-6.905-17.575-.696-20 8.5-.764-4.344 1.738-11.214 6-13 2.234-.936 9.612-1.435 12-1Z"/><path fill="#F8E77F" d="M640 327c1.535 3.977 5.344 4.555 7 9 .879 2.36.621 3.031 1 5-1.237-.341-9.628-18.694-20-7.5 1.72 19.296-.947 38.653 0 58 .49 10.019-2.247 26.565 10.5 24.5 5.369-.87 6.762-7.381 10.5-10 .227.911-.493 2.36.5 3 1.501-.014 3.01.021 4.5 0-11.066 5.209-17.063 16.619-29 5l-1-83.5c.605-1.539 6.353-3.166 8-3.5.444-.09 5.74 2.91 8 0Z"/><path fill="#78B6B7" d="M422 402c-1.277-8.565-1.032-53.297 1-61 2.425-9.196 12.052-15.405 20-8.5-2.986 19.977 1.172 40 0 60-.604 10.313 2.016 22.653-10.5 20.5-6.173-1.062-6.532-7.963-10.5-11Z"/><path fill="#77B6B6" d="M648 341c3.62 18.819-2.869 49.482 1 65-3.738 2.619-5.131 9.13-10.5 10-12.747 2.065-10.01-14.481-10.5-24.5-.947-19.347 1.72-38.704 0-58 10.372-11.194 18.763 7.159 20 7.5Z"/><path fill="#A5342C" d="M746 409c-4.635-2.515-10.332-6.918-13-11.5-2.709-4.652-2.892-10.676-6-14.5.346-10.736-1.601-21.748 4-31.5-.991 27.711 5.706-3.697 10.5-6.5.827-.484 2.498 1.81 4 1 1.18-.636 3.092-3.704 4-4 8.203-2.677 83.455-4.795 92-3 2.53.531 18.564 10.823 20.5 13.5 6.489 8.971 5.547 21.612 4 32 1.783 4.206 6.359-2.364 7 1 .285 1.497-1.503 21.963-2.5 22.5L746 409Zm9.5-50v4c11.549-2.348 95.328 3.267 98.5-.5.655-.778-.506-3.07-1.5-3.5h-97Zm3 12c-.815.536-.815 3.464 0 4 9.171-2.085 77.936 3.154 79.5-.5.48-1.123-.407-3.027-1.5-3.5-3.579-1.549-74.742-2.144-78 0Zm44 12c-7.024.075-32.273-.149-37 1-1.457.354-2.608.706-2.5 2.5l74.5 1.5 2.5-2.5c0-3.934-32.288-2.556-37.5-2.5Z"/><path fill="#AF5132" d="M853.5 339c4.735 1.364 8.525 4.714 11.5 8.5-4.054-.852-8.884-5.465-11.5-8.5Z"/><path fill="#5D1B2B" d="M654 409c-1.49.021-2.999-.014-4.5 0-.993-.64-.273-2.089-.5-3-3.869-15.518 2.62-46.181-1-65 .554.153 6.888-1.568 11.5 0 24.26 8.249 19.423 67.642-5.5 68Z"/><path fill="#5D1B2C" d="M490.5 359c3.389-.42 18.56-.377 21 1 12.326 6.955-18.329 10.186-22 11-3.29.729-26.277 11.49-22 0 1.987-5.338 17.513-11.319 23-12Z"/><path fill="#5E1A2C" d="M559.5 359c7.557-1.564 44.739 4.32 41.5 15.5-2.029 7.001-20.925-2.287-25.5-3.5-4.097-1.086-22.892-1.86-22.5-7.5.131-1.887 4.995-4.189 6.5-4.5Z"/><path fill="#EDE587" d="M755.5 359h97c.994.43 2.155 2.722 1.5 3.5-3.172 3.767-86.951-1.848-98.5.5v-4Z"/><path fill="#A8362C" d="M343 480c-17.982 3.651-40.193-3.472-58.5-3-8.249.213-17.707 3.642-26 4-17.179.741-34.315.029-50.5-6-2.098-2.145-6.414-6.7-7-9.5-2.674-12.784-.837-70.258 6-81 20.512-32.231 132.543-33.895 148 8 3.355 9.092 5.11 65.411 3 75-1.181 5.367-9.974 11.479-15 12.5Zm-93.5-92c-2.034.831-2.09 3.761 0 5 7.736-3.218 67.477 1.769 68.5-1.5.726-2.32-2.239-3.2-3.5-3.5-3.704-.883-61.991-1.229-65 0Zm-25 22c-2.849 2.109-.951 3.127 1 5 7.899-4.584 113.52 4.175 113.5-1.5-.02-5.728-106.229-2.617-114.5-3.5Zm1 16v5l111.5-1.5c.738-2.824-11.87-3.301-14.5-3.5-31.289-2.366-65.407 1.767-97 0Zm-1 14c-1.187.752-.666 4.173 1 5 13.598-5.4 111.957 4.061 115.5-.5.226-.29.19-2.968-.5-3.5-13.716.707-111.097-4.106-116-1Zm16 19c-2.039.833-2.039 4.167 0 5 3.032 1.239 64.667 1.668 65.5-1.5.007-2.652-5.732-3.271-7.5-3.5-5.386-.697-55.315-1.097-58 0Z"/><path fill="#EDEA8E" d="M758.5 371c3.258-2.144 74.421-1.549 78 0 1.093.473 1.98 2.377 1.5 3.5-1.564 3.654-70.329-1.585-79.5.5-.815-.536-.815-3.464 0-4Z"/><path fill="#510F23" d="M569.5 375c14.614-1.993 16.28 20.166 3 21-13.564.852-14.894-19.378-3-21Z"/><path fill="#511023" d="M496.5 376c13.426-1.989 16.858 17.332 6 20-15.951 3.919-17.704-18.266-6-20Z"/><path fill="#5E1B2B" d="M746 409c.147.08-.201 2.459 1.5 3l122.5.5c-4.304 17.363-23.029 21.226-38.5 22.5-22.728 1.872-57.223-5.93-75 7-7.19 5.229-25.58 35.338-29.5 15.5-2.782-14.08-.537-57.825 0-74.5 3.108 3.824 3.291 9.848 6 14.5 2.668 4.582 8.365 8.985 13 11.5Z"/><path fill="#EBE888" d="M802.5 383c5.212-.056 37.5-1.434 37.5 2.5l-2.5 2.5-74.5-1.5c-.108-1.794 1.043-2.146 2.5-2.5 4.727-1.149 29.976-.925 37-1Z"/><path fill="#EDEB92" d="M249.5 388c3.009-1.229 61.296-.883 65 0 1.261.3 4.226 1.18 3.5 3.5-1.023 3.269-60.764-1.718-68.5 1.5-2.09-1.239-2.034-4.169 0-5Z"/><path fill="#59172D" d="M525.5 404c4.467-.786 5.648 4.449 7 5 1.376.56 13.72-1.362 10.5 5.5-2.411 5.138-25.077 1.94-21-8 .555-.656 3.081-2.426 3.5-2.5Z"/><path fill="#EDEA95" d="M224.5 410c8.271.883 114.48-2.228 114.5 3.5.02 5.675-105.601-3.084-113.5 1.5-1.951-1.873-3.849-2.891-1-5Z"/><path fill="#F1F095" d="M225.5 426c31.593 1.767 65.711-2.366 97 0 2.63.199 15.238.676 14.5 3.5L225.5 431v-5Z"/><path fill="#4C0F25" d="M519.5 430c7.703 3.191 12.474 4.56 21 4 1.013-.067 10.806-6.367 10.5-.5-.214 4.107-16.977 5.956-20.5 5.5-2.471-.32-16.02-5.259-11-9Z"/><path fill="#EBE78B" d="M224.5 440c4.903-3.106 102.284 1.707 116 1 .69.532.726 3.21.5 3.5-3.543 4.561-101.902-4.9-115.5.5-1.666-.827-2.187-4.248-1-5Z"/><path fill="#EFEB97" d="M240.5 459c2.685-1.097 52.614-.697 58 0 1.768.229 7.507.848 7.5 3.5-.833 3.168-62.468 2.739-65.5 1.5-2.039-.833-2.039-4.167 0-5Z"/><path fill="#5C1A2D" d="M560 460c.22 2.257-.316 4.788 0 7-15.998 8.436-34.319 8.215-50-1 .507-1.557 1.111-3.31 1-5 14.995 4.537 34.197 4.165 49-1Z"/><path fill="#D16024" d="M560 467c.162 1.135 1.613 7.007 2 8 3.479 8.916 9.426 9.51 17 13.5-22.45 21.638-65.484 23.555-87 0 5.756-3.69 9.186-6.688 13-12.5 2.146-3.27 3.784-6.269 5-10 15.681 9.215 34.002 9.436 50 1Z"/><path fill="#5D1B2B" d="M343 480c-5.389 9.2 17.02 42.1 2.5 43-9.574.594-30.137-27.391-37-34-26.283 1.743-80.85 6.092-100.5-14 16.185 6.029 33.321 6.741 50.5 6 8.293-.358 17.751-3.787 26-4 18.307-.472 40.518 6.651 58.5 3Z"/><path fill="#FAE17F" d="M579 478c21.076 11.214-11.705 31.062-24.5 34-13.612 3.125-32.83 2.66-46-2-10.824-3.83-33.681-21.944-17.5-32 3.25-2.02 10.569-4.418 14-2-3.814 5.812-7.244 8.81-13 12.5 21.516 23.555 64.55 21.638 87 0-7.574-3.99-13.521-4.584-17-13.5 4.837-1.716 12.704.714 17 3Z"/><path fill="#2E8286" d="M491 478c-16.181 10.056 6.676 28.17 17.5 32 13.17 4.66 32.388 5.125 46 2 12.795-2.938 45.576-22.786 24.5-34 56.883.924 100.146 29.379 140 66.5-1.856.827-1.584 2.74-2 3.5-3.135 5.728-16.122 16.401-20 22 1.656-9.702-4.264-16.952-12.5-21-93.911 5.25-194.982-6.564-288-1-12.685.759-25.526 6.063-24.5 21l-18-23c16.78-17.742 61.072-53.212 83.5-61 15.465-5.37 37.16-6.48 53.5-7Z"/><path fill="#D05F24" d="M372 569c.166 2.413 1.956 3.781 2 4 4.964 24.931 14.27 53.022 21 78-4.229 1.755-9.472.97-14 1 .55-4.329-1.19-2.463-3.5-3-6.124-1.425-18.495-5.56-23.5-6-8.595-3.414-23.001-8.416-29.5-15-19.974-20.235 14.306-65.935 29.5-82l18 23Z"/><path fill="#FBE686" d="M697 570c-.228.33.012 4.646-2 5 .553-10.39-3.477-15.849-12.5-20h-295c-8.029 3.025-13.267 9.224-13.5 18-.044-.219-1.834-1.587-2-4-1.026-14.937 11.815-20.241 24.5-21 93.018-5.564 194.089 6.25 288 1 8.236 4.048 14.156 11.298 12.5 21Z"/><path fill="#D05F24" d="M676 649c4.28-15.837 18.302-60.89 19-74 2.012-.354 1.772-4.67 2-5 3.878-5.599 16.865-16.272 20-22 12.694 16.281 35.671 50.272 31 71.5-3.726 16.934-56.537 29.257-72 29.5Z"/><path fill="#7BB9B9" d="M695 575c-.698 13.11-14.72 58.163-19 74-3.777 13.976-9.259 27.993-13 42H406c-1.423-5.361-3.575-10.727-5-16-2.138-7.912-3.859-16.056-6-24-6.73-24.978-16.036-53.069-21-78 .233-8.776 5.471-14.975 13.5-18h295c9.023 4.151 13.053 9.61 12.5 20Zm-164.5 49c-14.153 3.526-11.159 30.423 7 28 17.5-2.335 14.564-33.372-7-28Z"/><path fill="#30456F" d="M291 642c-21.621 4.276-62.227.905-86 1-11.364.045-45.84 3.614-54.5 1-6.286-1.897-4.213-7.869 3.5-9 39.064-5.727 99.242 7.22 136.5-1 18.015-3.975 22.698-32.645 6-42-16.528-9.259-114.965.862-142.5-3-2.116-.297-4.44.898-6-1.5-1.424-2.652-.661-4.389 1.5-6.5l146 1c29.376 11.307 26.529 53.863-4.5 60Z"/><path fill="#F4E990" d="m154 635 2-3c.183.146.68-.121 1 0l131.5 1c3.173-2.027.422-3.814.5-4 .515-1.234.837-1.353 1-3 .032-.327-.007-.669 0-1 .003-.158 1.598-.127 1-3-.186-.893.464-2.499-.5-3H155c1.012-1.995 3.864-.345 4-1.5.116-.989-2.357 1.019-4-2.5l136-.5-136-.5c-.299-1.037.213-2.774 0-4l136-.5-136-.5c-.195-1.275.132-2.705 0-4l136-.5-136-.5c-.093-1.124.009-1.615 0-2l135-3c-5.61-1.821-12.148-.999-18-1H155c-.033-1.369.067-2.992 0-4l136-.5-136-.5c-.114-1.833-1.097-2.341-1-4 27.535 3.862 125.972-6.259 142.5 3 16.698 9.355 12.015 38.025-6 42-37.258 8.22-97.436-4.727-136.5 1Z"/><path fill="#8D6D62" d="M155 594c-.022-.332.021-.668 0-1l136 .5-136 .5Z"/><path fill="#F0FECC" d="M272 598c-34.984-.004-70.016 0-105 0h105Z"/><path fill="#87677E" d="M167 598c34.984 0 70.016-.004 105 0 5.852.001 12.39-.821 18 1H155c-.008-.333.008-.667 0-1h12Z"/><path fill="#C5B680" d="m290 599-135 3c-.022-.975.023-2.105 0-3h135Z"/><path fill="#905FA3" d="M155 605c-.034-.33.027-.669 0-1l136 .5-136 .5Z"/><path fill="#9A757A" d="M155 610c-.056-.323.05-.674 0-1l136 .5-136 .5Z"/><path fill="#875E98" d="M155 615c-.117-.25.095-.67 0-1l136 .5-136 .5Z"/><path fill="#856589" d="m291 622-136-1c.162-.553-.182-1.642 0-2h135.5c.964.501.314 2.107.5 3Z"/><path fill="#D0DD77" d="M291 622c.598 2.873-.997 2.842-1 3H155c.119-1.254-.284-3.029 0-4l136 1Z"/><path fill="#F9E78D" d="M530.5 624c21.564-5.372 24.5 25.665 7 28-18.159 2.423-21.153-24.474-7-28Z"/><path fill="#966B4B" d="M290 625c-.007.331.032.673 0 1H155c-.001-.329-.031-.675 0-1h135Z"/><path fill="#F1FFD5" d="M290 626c-.163 1.647-.485 1.766-1 3H155c-.166-.855.001-2.04 0-3h135Z"/><path fill="#A5A167" d="M289 629c-.078.186 2.673 1.973-.5 4L157 632v-1l131.5-1H155c-.098-.261.067-.656 0-1h134Z"/><path fill="#A0A0AF" d="M157 631v1c-.32-.121-.817.146-1 0-1.445-1.15-.634-1.025-1-2h1l1 1Z"/><path fill="#DCE38A" d="m157 631-1-1h132.5L157 631Z"/><path fill="#EF831E" d="M354 643c5.005.44 17.376 4.575 23.5 6 2.31.537 4.05-1.329 3.5 3-.661.004-1.339-.003-2 0-47.025.22-115.305-5.555-159.5 0-31.129 3.913-35.627 39.097-5 47 54.665-.206 109.336.276 164 0 .814-.004.397-2 .5-2 7.645-.027 25.717-1.219 25 9-2.78.026-2.35 2.989-3.5 3-65.178.626-130.389-.409-195.5 0-29.836-16.986-29.179-48.694 0-66 23.773-.095 64.379 3.276 86-1 19.677 5.291 44.017-.67 63 1Z"/><path fill="#E6C15C" d="M401 675c-3.18.631-20.312-.843-21.5 0-.95.674-.5 15.386-.5 18H221.5l156-2v-4l-157.5-.5 156.5-.5v-5l-155.5-.5 155.5-.5 1.5-3.5-166-2 164.5-.5c1.951-1.873 3.849-2.891 1-5l-156.5-.5 156.5-.5v-4L221 662.5c18.688-4.363 151.076 4.055 157.5-.5 1.204-.854.146-8.032.5-10 .661-.003 1.339.004 2 0 4.528-.03 9.771.755 14-1 2.141 7.944 3.862 16.088 6 24Z"/><path fill="#DDE8A6" d="M379 652c-.354 1.968.704 9.146-.5 10-6.424 4.555-138.812-3.863-157.5.5l156.5 1.5v4l-156.5.5 156.5.5c2.849 2.109.951 3.127-1 5l-164.5.5 166 2-1.5 3.5-155.5.5 155.5.5v5l-156.5.5 157.5.5v4l-156 2H379v4c-.103 0 .314 1.996-.5 2-54.664.276-109.335-.206-164 0-30.627-7.903-26.129-43.087 5-47 44.195-5.555 112.475.22 159.5 0Z"/><path fill="#631B2D" d="m833 661-114.5 5c-17.074 6.141-14.767 28.335 3.5 30 30.011 2.735 86.402-10.107 112-5 4.345.867 6.342 1.903 1.5 5l-119 5c-18.507-5.428-18.816-35.02 0-40 16.711-4.423 89.161-5.984 110-6 3.434-.003 11.491-1.462 10.5 3.5-.375 1.879-3.846 2.321-4 2.5Z"/><path fill="#E6E8A2" d="M833 661c-.306.354.308 3.297 0 3.5-4.174 2.747-47.814 2.175-56.5 2.5-4.574.171-14.876.324-18.5 3-.99.044-2.01-.043-3 0h-35.5c-.935.435-.299 1.639-.5 2-.177.317.148 1.415 0 2-.076.3.029.678 0 1-.175 1.92.978 2.087 1 3 .01.415-.316-.303 0 1 .255 1.049-1.329.395 0 2 .421.508-1.776 1.661-.5 2l110-5-1 3c-21.82.403-43.726.906-65.5 2-12.076.606-29.168.352-40.5 2-1.145.167-3.649-.204-3 2 15.156-.911 30.338-1.377 45.5-2 22.975-.944 45.996-2.518 69-3 .164.844-1.053 1.042-1 2l-111.5 5 44.5.5c-13.188 5.286-31.645.205-44.5 3.5-3.786.97.227 1.963.5 3-18.267-1.665-20.574-23.859-3.5-30l114.5-5Z"/><path fill="#CFE7C5" d="m833 676-113 5c-1.329-1.605.255-.951 0-2l49-3.5-49 2.5c-.022-.913-1.175-1.08-1-3l73-4.5-73 3.5c.148-.585-.177-1.683 0-2 11.954-.672 24.045-1.479 36-2 .99-.043 2.01.044 3 0 24.818-1.095 49.654-2.235 74.5-3 1.502 2.537-.567 1.74-2 2-1.837.334-26.5.043-26.5 1.5 8.026 1.934 18.809-.896 26.5.5 1.434.26 3.502-.537 2 2l-61.5 2.5c7.952 2.888 59.538-3.627 62 .5Z"/><path fill="#BFB468" d="M755 670c-11.955.521-24.046 1.328-36 2 .201-.361-.435-1.565.5-2H755Z"/><path fill="#CBB365" d="M719 675c.029-.322-.076-.7 0-1l73-3.5-73 4.5Z"/><path fill="#CB5725" d="M401 675c1.425 5.273 3.577 10.639 5 16 1.323 4.986 2.52 10.059 4 15-1.989.018-4.011-.018-6 0 .717-10.219-17.355-9.027-25-9v-4c0-2.614-.45-17.326.5-18 1.188-.843 18.32.631 21.5 0Z"/><path fill="#C3AF5A" d="M720 679c-.316-1.303.01-.585 0-1l49-2.5-49 3.5Z"/><path fill="#BEB466" d="M833 676c.264.443.788 4.912 1 6-23.004.482-46.025 2.056-69 3l-2-2c21.774-1.094 43.68-1.597 65.5-2l1-3-110 5c-1.276-.339.921-1.492.5-2l113-5Z"/><path fill="#BEAA6D" d="M765 685c-15.162.623-30.344 1.089-45.5 2-.649-2.204 1.855-1.833 3-2 11.332-1.648 28.424-1.394 40.5-2l2 2Z"/><path fill="#C1CF88" d="M833 684c.045.817-.002.897 0 1l-66 4.5c-.269 2.441 1.962 1.121 3 1.5 4.478 1.635 4.45.15 8 0 18.585-.785 37.5-2.008 56-4 .129 1.303-.083 2.688 0 4-25.598-5.107-81.989 7.735-112 5-.273-1.037-4.286-2.03-.5-3 12.855-3.295 31.312 1.786 44.5-3.5l-44.5-.5 111.5-5Z"/><path fill="#DDEAB9" d="M834 687c-18.5 1.992-37.415 3.215-56 4h-8c-1.038-.379-3.269.941-3-1.5l66-4.5c.021.925.902 1.013 1 2Z"/><path fill="#2A7A7D" d="M663 691c-1.228 4.599-1.701 10.277-3 15-83.165-.246-166.745-.774-250 0-1.48-4.941-2.677-10.014-4-15h257Z"/><path fill="#967E5C" d="M778 691c-3.55.15-3.522 1.635-8 0h8Z"/><path fill="#5D1B2B" d="M404 706c1.989-.018 4.011.018 6 0 83.255-.774 166.835-.246 250 0 65.647.194 131.364-.029 197 0 15.235.007 54.241-5.974 58 13.5 2.439 12.635 3.396 50.577-12.5 54.5-10.964 2.706-40.189 1.486-53.5 2-221.387 8.551-452.763 3.848-675 3-13.068-.05-58.365 3.494-65-8.5-2.405-4.347-3.215-43.854-2-50 1.177-5.955 5.44-8.548 11-9.5 23.093-3.955 62.389-1.845 87-2 65.111-.409 130.322.626 195.5 0 1.15-.011.72-2.974 3.5-3Zm426 15c-8.022-4.811-26.992-2.292-30 8.5-5.968 21.416 25.192 34.696 34 13.5 15.992 12.681 77.065 18.32 69-15.5-4.137-17.346-57.74-16.626-69.5-10.5-1.602.834-2.066 3.053-3.5 4Zm-117 25c6.679 13.019 33.315 8.911 36-4.5 4.417-22.06-28.361-30.41-36-9.5-5.366-9.65-23.354-24.825-32-10.5-10.046 16.645 16.896 44.621 32 24.5Zm57.5-25c-26.638 4.926-7.011 37.722 12 32 16.516-4.971 17.676-37.488-12-32Z"/><path fill="#B23B2B" d="M834 743c2.758-6.637 2.939-17.839-4-22 1.434-.947 1.898-3.166 3.5-4 11.76-6.126 65.363-6.846 69.5 10.5 8.065 33.82-53.008 28.181-69 15.5Z"/><path fill="#AA362C" d="M713 732c-1.904 5.212-2.706 8.725 0 14-15.104 20.121-42.046-7.855-32-24.5 8.646-14.325 26.634.85 32 10.5Z"/><path fill="#EDBD4C" d="M830 721c6.939 4.161 6.758 15.363 4 22-8.808 21.196-39.968 7.916-34-13.5 3.008-10.792 21.978-13.311 30-8.5ZM713 746c-2.706-5.275-1.904-8.788 0-14 7.639-20.91 40.417-12.56 36 9.5-2.685 13.411-29.321 17.519-36 4.5Z"/><path fill="#AE392C" d="M770.5 721c29.676-5.488 28.516 27.029 12 32-19.011 5.722-38.638-27.074-12-32Z"/><path fill="#A02F2B" d="M849 776v19c-138.548-11.443-278.585-10.582-417.5-3-81.536 4.45-173.253 10.384-250.5 34-.335.102-5.856-.558-7 0 .225-15.644-.167-31.354 0-47 222.237.848 453.613 5.551 675-3Z"/><path fill="#C75627" d="M849 795c0 35.922 1.247 72.163-1.5 108-54.813 1.099-109.745-1.026-164.5-1-89.143-10.599-176.057-31.846-265.5-41-34.987-3.581-70.86-6.521-106-8-31.798-1.338-88.672 4.007-116-1-12.104-2.217-16.258-15.441-14.5-26 77.247-23.616 168.964-29.55 250.5-34 138.915-7.582 278.952-8.443 417.5 3Z"/><path fill="#5D1B2B" d="M181 826c-1.758 10.559 2.396 23.783 14.5 26 27.328 5.007 84.202-.338 116 1 35.14 1.479 71.013 4.419 106 8 89.443 9.154 176.357 30.401 265.5 41-169.52.08-338.929 1.703-508.5 1-3.519-1.562-.626-68.243-.5-77 1.144-.558 6.665.102 7 0Z"/></svg>