<svg version="1.0" xmlns="http://www.w3.org/2000/svg"
viewBox="0 0 1024.000000 1024.000000"
preserveAspectRatio="xMidYMid meet">

<g transform="translate(0.000000,1024.000000) scale(0.100000,-0.100000)"
fill="#0d2098" stroke="none">
<path d="M8005 10040 c-118 -17 -261 -69 -380 -138 -71 -41 -138 -105 -620
-587 -482 -481 -546 -549 -589 -623 -183 -309 -202 -672 -52 -988 24 -51 62
-118 84 -148 21 -30 165 -184 318 -342 153 -157 298 -314 322 -347 220 -315
223 -744 7 -1066 -36 -53 -384 -409 -1350 -1379 -716 -719 -1334 -1334 -1374
-1367 -187 -156 -381 -228 -621 -228 -190 0 -382 59 -537 164 -26 18 -176 159
-333 314 -306 303 -379 361 -541 431 -133 58 -241 78 -414 77 -129 0 -164 -4
-250 -27 -119 -31 -221 -78 -330 -151 -110 -75 -900 -866 -969 -972 -64 -99
-113 -208 -144 -322 -23 -85 -26 -114 -25 -256 0 -139 4 -173 26 -257 66 -249
216 -462 421 -600 96 -64 345 -193 486 -251 566 -233 1089 -318 1690 -277
1120 78 2328 661 3555 1716 465 400 1045 987 1446 1464 1072 1274 1653 2534
1697 3678 22 575 -70 1094 -285 1606 -186 441 -343 640 -613 776 -182 92 -422
130 -625 100z"/>
</g>
</svg>
