<svg xmlns="http://www.w3.org/2000/svg" width="1024" height="1024"><path fill="none" d="M1023-1v1024H-1V-1h1024ZM607 240 367 390c-74.672-25.565-156.65-14.163-229.5 12-28.13 10.102-74.697 22.33-42.5 59.5 60.293 59.544 119.306 120.377 179 180.5-4.666 6.076-8.618 12.741-13 19-52.711 75.289-106.109 153.364-152 233-7.891 13.693-16.783 26.854-23 41.5 12.507-4.791 23.54-12.782 35-19.5 7.095-4.159 13.983-8.737 21-13 80.817-49.103 159.44-101.987 237-156l180.5 180c34.734 31.639 50.723-20.822 60.5-46.5 26.873-70.577 39.253-151.623 10-223.5l151-241c18.001 9.751 75.047 36.66 93.5 33 3.484-.691 41.225-29.518 46.5-34 7.945-6.751 13.886-8.656 16-20.5 7.69-43.087-40.757-113.626-67-146.5-31.211-39.097-71.934-79.656-112.5-109-28.156-20.368-110.216-72.128-143-48-3.537 2.603-41.974 55.882-42.5 59.5-2.738 18.815 24.91 71.74 35 89.5Z"/><path fill="#E6A027" d="M870 248c-20.465 10.643-11.295 37.931-13 57.5-1.585 18.188-5.496 29.728-17 43.5-6.156-9.226-19.14-12.403-28.5-18-42.953-25.684-128.2-92.973-133.5-145.5-5.47-54.216 43.307-27.892 68.5-11.5 20.492 13.333 38.31 31.381 57 47 5.669-.011 7.639-3.7 5.5-8.5-5.352-12.008-75.04-64.153-89.5-72.5-21.153-12.211-51.101-27.008-69.5-1.5-24.185 33.528 24.829 88.336 47 113 36.338 40.423 80.66 76.222 127 104.5-11.785 2.45-22.402 8.138-36 7-69.39-49.49-127.191-115.429-165.5-192-2.284-.678-5.344.968-5.5 3.5-.137 2.211 18.257 34.468 21 39 15.039 24.852 33.834 47 52 69.5-2.458.09-1.95-1.867-4.5 0-8.047 5.892-17.44 23.464-26.5 30-6.475-7.571-14.045-15.062-20-23-5.19-6.918-10.179-14.774-15-22-5.988-8.975-11.667-18.613-17-28-10.09-17.76-37.738-70.685-35-89.5.526-3.618 38.963-56.897 42.5-59.5 32.784-24.128 114.844 27.632 143 48 40.566 29.344 81.289 69.903 112.5 109Z"/><path fill="#F8F6DC" d="M840 349c-1.447 1.732-.953 6.707-5.5 8-3.256.926-9.181-1.274-10.5-1-46.34-28.278-90.662-64.077-127-104.5-22.171-24.664-71.185-79.472-47-113 18.399-25.508 48.347-10.711 69.5 1.5 14.46 8.347 84.148 60.492 89.5 72.5 2.139 4.8.169 8.489-5.5 8.5-18.69-15.619-36.508-33.667-57-47-25.193-16.392-73.97-42.716-68.5 11.5 5.3 52.527 90.547 119.816 133.5 145.5 9.36 5.597 22.344 8.774 28.5 18Z"/><path fill="#550E13" d="M788 363c38.437 27.414 83.477 57.631 133 52-5.275 4.482-43.016 33.309-46.5 34-18.453 3.66-75.499-23.249-93.5-33-8.601-4.659-16.815-9.644-25-15-10.636-14.299-20.54-29.231-28-45.5-6.695-14.6-10.815-36.909-17-49-2.804-5.482-16.067-17.391-21-23.5-18.166-22.5-36.961-44.648-52-69.5-2.743-4.532-21.137-36.789-21-39 .156-2.532 3.216-4.178 5.5-3.5 38.309 76.571 96.11 142.51 165.5 192Z"/><path fill="#539FA2" d="M624 268 394.5 413c-12.47 9.22-3.477 34.129 13 25L639 290c5.955 7.938 13.525 15.429 20 23 15.946 18.644 32.591 36.778 51 53-24.958 45.322-68.069 83.498-109.5 114-52.092 38.351-110.305 68.953-171.5 90-14.179-18.396-26.893-38.056-38-58.5-8.572-15.778-47.561-95.666-43-109l19-12.5 240-150c5.333 9.387 11.012 19.025 17 28Z"/><path fill="#C46229" d="M921 415c-49.523 5.631-94.563-24.586-133-52 13.598 1.138 24.215-4.55 36-7 1.319-.274 7.244 1.926 10.5 1 4.547-1.293 4.053-6.268 5.5-8 11.504-13.772 15.415-25.312 17-43.5 1.705-19.569-7.465-46.857 13-57.5 26.243 32.874 74.69 103.413 67 146.5-2.114 11.844-8.055 13.749-16 20.5Z"/><path fill="#FBF6D4" d="M639 290 407.5 438c-16.477 9.129-25.47-15.78-13-25L624 268c4.821 7.226 9.81 15.082 15 22Z"/><path fill="#D88129" d="M690 283c4.933 6.109 18.196 18.018 21 23.5 6.185 12.091 10.305 34.4 17 49 7.46 16.269 17.364 31.201 28 45.5-16.088-10.528-31.588-22.3-46-35-18.409-16.222-35.054-34.356-51-53 9.06-6.536 18.453-24.108 26.5-30 2.55-1.867 2.042.09 4.5 0Z"/><path fill="#415259" d="M756 401c8.185 5.356 16.399 10.341 25 15L630 657l-7.5 10c-44.597 5.091-90.417-8.607-127.5-33-25.004-16.448-47.823-40.416-66-64 61.195-21.047 119.408-51.649 171.5-90 41.431-30.502 84.542-68.678 109.5-114 14.412 12.7 29.912 24.472 46 35Z"/><path fill="#E7A127" d="m367 390-19 12.5c-4.561 13.334 34.428 93.222 43 109 11.107 20.444 23.821 40.104 38 58.5 18.177 23.584 40.996 47.552 66 64-10.735 20.365-3.541 63.91-23.5 77-21.585 14.157-64.434 1.295-88-5-16.894-4.512-31.505-17.369-47.5-3-20.484-20.471-41.597-40.451-62-61-59.694-60.123-118.707-120.956-179-180.5-32.197-37.17 14.37-49.398 42.5-59.5 72.85-26.163 154.828-37.565 229.5-12Zm-118.5 18c-15.047.658-74.228 11.17-86 18-7.888 4.577-6.238 20.727 0 24 6.452 3.385 35.855-8.096 45-10 25.136-5.234 48.188-7.251 74-6 8.824.428 30.1 6.312 37 5 8.779-1.669 12.437-19.124 2-24-10.876-5.081-58.664-7.583-72-7Zm52 49c-30.586.514-75.588 9.035-105 18-11.577 3.529-30.68 5.93-28.5 20.5 3.28 21.921 32.721 4.601 45.5 1.5a654.402 654.402 0 0 1 78-14c8.827-1.035 34.119 2.278 36.5-7.5 5.17-21.232-12.242-18.74-26.5-18.5Zm19 51c-15.379.286-87.303 13.704-99 21-10.46 6.525-3.596 24.482 8 24 10.139-.421 42.14-12.361 56-15 10.505-2 45.17-3.504 51-6 8.977-3.844 4.647-22.015-3-24-2.334-.606-9.919-.057-13 0Z"/><path fill="#CEEBEA" d="M248.5 408c13.336-.583 61.124 1.919 72 7 10.437 4.876 6.779 22.331-2 24-6.9 1.312-28.176-4.572-37-5-25.812-1.251-48.864.766-74 6-9.145 1.904-38.548 13.385-45 10-6.238-3.273-7.888-19.423 0-24 11.772-6.83 70.953-17.342 86-18Z"/><path fill="#CFEBEA" d="M300.5 457c14.258-.24 31.67-2.732 26.5 18.5-2.381 9.778-27.673 6.465-36.5 7.5a654.402 654.402 0 0 0-78 14c-12.779 3.101-42.22 20.421-45.5-1.5-2.18-14.57 16.923-16.971 28.5-20.5 29.412-8.965 74.414-17.486 105-18Z"/><path fill="#CEEBEA" d="M319.5 508c3.081-.057 10.666-.606 13 0 7.647 1.985 11.977 20.156 3 24-5.83 2.496-40.495 4-51 6-13.86 2.639-45.861 14.579-56 15-11.596.482-18.46-17.475-8-24 11.697-7.296 83.621-20.714 99-21Z"/><path fill="#A93F27" d="M630 657c29.253 71.877 16.873 152.923-10 223.5-9.777 25.678-25.766 78.139-60.5 46.5L379 747c-14.497-14.453-28.52-29.529-43-44 15.995-14.369 30.606-1.512 47.5 3 23.566 6.295 66.415 19.157 88 5 19.959-13.09 12.765-56.635 23.5-77 37.083 24.393 82.903 38.091 127.5 33l7.5-10Z"/><path fill="#560E13" d="M336 703c14.48 14.471 28.503 29.547 43 44-77.56 54.013-156.183 106.897-237 156 1.253-5.293-1.113-11.739 0-17 2.383-11.263 51.399-48.66 62.5-59 35.487-33.052 68.44-68.104 100.5-104.5L261 661c4.382-6.259 8.334-12.924 13-19 20.403 20.549 41.516 40.529 62 61Z"/><path fill="#CBB6A0" d="M142 886c-9.294 2.747-17.976 7.431-25 14-.226-.446-6.755-5.504-8-6 45.891-79.636 99.289-157.711 152-233l44 61.5c-32.06 36.396-65.013 71.448-100.5 104.5-11.101 10.34-60.117 47.737-62.5 59Zm105.5-172c-7.196 2.03-72.006 110.284-85.5 122.5-2.876 12.328 1.897 13.371 10 5 29.918-30.909 54.107-82.121 85-114 1.55-3.648 3.111-6.007 1-10-1.637-3.026-7.461-4.357-10.5-3.5Z"/><path fill="#FAF6DA" d="M247.5 714c3.039-.857 8.863.474 10.5 3.5 2.111 3.993.55 6.352-1 10-30.893 31.879-55.082 83.091-85 114-8.103 8.371-12.876 7.328-10-5 13.494-12.216 78.304-120.47 85.5-122.5Z"/><path fill="#40535A" d="M142 886c-1.113 5.261 1.253 11.707 0 17-7.017 4.263-13.905 8.841-21 13-2.442-2.59-3.127-14.274-4-16 7.024-6.569 15.706-11.253 25-14Z"/><path fill="#3B8A90" d="M117 900c.873 1.726 1.558 13.41 4 16-11.46 6.718-22.493 14.709-35 19.5 6.217-14.646 15.109-27.807 23-41.5 1.245.496 7.774 5.554 8 6Z"/></svg>