<svg xmlns="http://www.w3.org/2000/svg" width="1024" height="1024"><path fill="none" d="M1023-1v1024H-1V-1h1024ZM324 207c-11.349-1.678-25.201 7.606-27 19l-48 34c-3.056.031-7.848-1.095-12-1-47.18 1.079-50.71 22.716-52 64-33.878 41.323-71.54 94.009-90 144.5-17.473 47.791-10.353 72.572 40.5 39.5 16.766-10.903 33.083-26.312 49.5-38-.089 25.981-.068 52.019 0 78-49.67 36.684-92.834 112.417-76 175.5 14.693 55.06 60.382 76.472 110 91.5 1.497.453 6.191 1.871 6 4-31.872.131-94.494-6.443-122.5-1-10.575 2.055-15.195 13.276-2 17 267.46 1.015 535.629 2.979 803-1 8.066-6.167 5.308-13.294-4-16l-107.5.5c105.778-45.733 143.254-171.59 72-265.5 51.512-33.418 63.877-106.213 56-163.5-11.384-82.791-71.776-146.561-146.5-178.5-88.293-37.738-154.933-65.934-254-59-67.086 4.696-138.102 20.287-195.5 56Z"/><path fill="#E8CE6F" d="M864 552c-4.556-6.005-14.833-14.139-18-20 3.856-.774 8.132-1.091 12-1 2.297.054 4.214 6.192 6-4.5 5.325-31.872-23.189-48.799-51.5-45.5-6.312.736-25.655 6.042-16 14 9.164 7.553 33.866 16.154 45 23l1.5 1.5-3.5 6.5c-22.653-17.102-47.363-30.324-75.5-36 2.53-1.802 1.79-1.786 2-4.5 2.144-27.768-1.003-56.701-1-84.5.004-28.472 6.667-89.922-6-113.5-18.135-33.755-54.741-27.392-87-27.5.255-15.484 1.526-37.187-11.5-47-8.695-6.55-15.43-8.518-25-2-14.591 9.937-10.159 32.656-10.5 48l-62 1c.866-16.464 1.859-50.821-21.5-53-28.015-2.613-25.362 34.085-25.5 52h-62c.375-18.889 2.123-57.055-28.5-51-21.726 4.296-17.44 36.014-17.5 52l-63 1c.811-16.855 1.212-50.717-21-54 57.398-35.713 128.414-51.304 195.5-56 99.067-6.934 165.707 21.262 254 59 74.724 31.939 135.116 95.709 146.5 178.5 7.877 57.287-4.488 130.082-56 163.5Z"/><path fill="#6EA8AE" d="M324 207c22.212 3.283 21.811 37.145 21 54-.216 4.488-2.767 17.67-4 24-3.375 17.33-10.672 44.643-34.5 37-13.407-4.301-8.349-19.233-8.5-29-.168-10.874-1.065-22.247-1-33 .058-9.661-1.382-25.249 0-34 1.799-11.394 15.651-20.678 27-19Z"/><path fill="#6EA8AD" d="M563 260c-.395 7.512-2.451 20.379-4 28-2.103 10.348-6.074 28.474-17.5 32-12.586 3.884-26.575-1.269-25.5-16 1.557-16.522-.121-29.339 0-45 .138-17.915-2.515-54.613 25.5-52 23.359 2.179 22.366 36.536 21.5 53Z"/><path fill="#6EA8AE" d="M672 260c-.182 11.069-1.716 24.125-4 35-2.191 10.429-4.436 23.729-16.5 27-12.815 3.475-28.793 1.503-27.5-15 .878-16.106.642-31.908 1-48 .341-15.344-4.091-38.063 10.5-48 9.57-6.518 16.305-4.55 25 2 13.026 9.813 11.755 31.516 11.5 47Z"/><path fill="#6EA8AD" d="M454 259c-.183 9.219-.554 19.883-2 29-1.651 10.413-6.966 28.257-17.5 32-14.168 5.034-23.793 1.27-25.5-14-1.346-12.036-1.048-33.245-1-46 .06-15.986-4.226-47.704 17.5-52 30.623-6.055 28.875 32.111 28.5 51Z"/><path fill="#E8CD6E" d="M297 226c-1.382 8.751.058 24.339 0 34-15.982.12-32.019-.162-48 0l48-34Z"/><path fill="#C05028" d="M237 259c3.387 3.556 12.571-.098 13 4-56.97-1.652-43.257 101.311-45 137.5-.266 5.534.867 12.05 2 17.5-3.626 81.705-.772 170.706 0 253 .385 41.101-11.856 95.173 35.5 113 115.396 2 233.542 6.782 349 3 6.511-.213 15.186-.625 21.5-2 14.249 12.677 33.281 22.168 49.5 32-145.833-.633-291.705.401-437.5 1 .191-2.129-4.503-3.547-6-4-15.09-12.19-28.721-23.212-33-43.5-1.96-74.455-.805-149.022-1-223.5-.068-25.981-.089-52.019 0-78 .165-48.53-1.514-97.527 0-146 1.29-41.284 4.82-62.921 52-64Z"/><path fill="#A84428" d="M249 260c15.981-.162 32.018.12 48 0-.065 10.753.832 22.126 1 33-2.207-.526-2.867 6.271-3 7.5-2.173 20.078 1.647 44.798 28.5 40.5 24.548-3.929 20.462-38.135 17.5-56 1.233-6.33 3.784-19.512 4-24l63-1c-.048 12.755-.346 33.964 1 46-15.299 24.974 21.039 47.039 38 24.5 7.961-10.579 6.618-29.803 5-42.5 1.446-9.117 1.817-19.781 2-29h62c-.121 15.661 1.557 28.478 0 45-.023.245-1.95 4.068-2 4.5-3.866 33.562 32.23 43.3 45 13V288c1.549-7.621 3.605-20.488 4-28l62-1c-.358 16.092-.122 31.894-1 48-.269 4.931-3.435 10.682-2 17.5 1.604 7.624 14.006 16.693 21.5 17.5 27.686 2.983 29.738-26.926 24.5-47 2.284-10.875 3.818-23.931 4-35 32.259.108 68.865-6.255 87 27.5 12.667 23.578 6.004 85.028 6 113.5-167.302.933-334.702-1.245-502 0-19.084-42.084-35.802-95.736-7-137.5-.542-.931-4.778-.465-6-.5-.429-4.098-9.613-.444-13-4 4.152-.095 8.944 1.031 12 1Z"/><path fill="#892E28" d="M250 263c1.222.035 5.458-.431 6 .5-28.802 41.764-12.084 95.416 7 137.5-17.817.133-35.67-.098-53.5 0-3.707 1.493-2.332 13.21-2.5 17-1.133-5.45-2.266-11.966-2-17.5 1.743-36.189-11.97-139.152 45-137.5Z"/><path fill="#65191F" d="M298 293c.151 9.767-4.907 24.699 8.5 29 23.828 7.643 31.125-19.67 34.5-37 2.962 17.865 7.048 52.071-17.5 56-26.853 4.298-30.673-20.422-28.5-40.5.133-1.229.793-8.026 3-7.5ZM409 306c1.707 15.27 11.332 19.034 25.5 14 10.534-3.743 15.849-21.587 17.5-32 1.618 12.697 2.961 31.921-5 42.5-16.961 22.539-53.299.474-38-24.5ZM516 304c-1.075 14.731 12.914 19.884 25.5 16 11.426-3.526 15.397-21.652 17.5-32v33.5c-12.77 30.3-48.866 20.562-45-13 .05-.432 1.977-4.255 2-4.5Z"/><path fill="#66191F" d="M624 307c-1.293 16.503 14.685 18.475 27.5 15 12.064-3.271 14.309-16.571 16.5-27 5.238 20.074 3.186 49.983-24.5 47-7.494-.807-19.896-9.876-21.5-17.5-1.435-6.818 1.731-12.569 2-17.5Z"/><path fill="#E8CD6F" d="M185 469c-16.417 11.688-32.734 27.097-49.5 38-50.853 33.072-57.973 8.291-40.5-39.5 18.46-50.491 56.122-103.177 90-144.5-1.514 48.473.165 97.47 0 146Z"/><path fill="#F2BB32" d="M263 401c167.298-1.245 334.698.933 502 0-.003 27.799 3.144 56.732 1 84.5-.21 2.714.53 2.698-2 4.5-19.42-3.918-33.048-4.895-53-3-.995-18.081 5.773-41.476-16.5-48h-402c-6.767 2.16-14.114 7.939-15.5 15.5-3.671 20.018-.878 71.875-1 95.5-.237 45.939-4.304 119.091 1 162-25.934-7.672-51.266-21.016-70-41-.772-82.294-3.626-171.295 0-253 .168-3.79-1.207-15.507 2.5-17 17.83-.098 35.683.133 53.5 0Z"/><path fill="#F2E8AE" d="M711 487c-5.328.506-10.734 1.124-16 2-1.37-5.091-2-8.62-2-14 0-6.532 4.114-15.562-2.5-20h-112c-4.527 1.616-2.249 17.365-2.5 22-.018.332.016.668 0 1-.366 7.444-2.886 30.949 0 36.5 3.82 7.349 20.021 1.149 27 3.5 2.189 2.925 4.941 7.323 5 11-39.698-.416-79.712-1.644-119.5-2-13.656-.122-27.139 1.368-39.5 2-3.406.174-3.626-1.551-5-2 .164-1.214-1.686-1.677-2-2-.675-.693-1.364-2.354-2.5-3h-144c-.726 1.107-3.092 2.552-3.5 3.5-1.378 3.202-1.783 35.029-2 41.5l-14-17c.122-23.625-2.671-75.482 1-95.5 1.386-7.561 8.733-13.34 15.5-15.5h402c22.273 6.524 15.505 29.919 16.5 48Zm-409.5-32c-2.789 1.444-4.819 3.354-5.5 6.5-.724 3.349-.734 44.797 0 48 .581 2.532 2.548 4.834 4.5 6.5l137 2c.757-1.204 4.238-3.618 4.5-4.5.768-2.588.84-51.434 0-54-.077-.235-3.265-3.423-3.5-3.5l-137-1Zm216 4c-2.487.472-5.676 1.59-6.5 4.5-1.337 4.721-1.57 41.875 1 45 3.545 4.311 43.667 7.597 46 0 .675-2.199.737-43.821 0-46-.248-.734-3.764-3.304-4.5-3.5-2.237-.595-33.112-.547-36 0Zm-58 1c-.485.147-3.287 1.972-3.5 2.5-.822 2.041-1.035 42.059 0 44 2.872 5.389 35.599 6.595 38-4 .76-3.354.24-35.675-1-38-2.181-4.091-28.859-5.911-33.5-4.5Z"/><path fill="#C6601F" d="m301.5 455 137 1c.235.077 3.423 3.265 3.5 3.5.84 2.566.768 51.412 0 54-.262.882-3.743 3.296-4.5 4.5l-137-2c-1.952-1.666-3.919-3.968-4.5-6.5-.734-3.203-.724-44.651 0-48 .681-3.146 2.711-5.056 5.5-6.5Zm36 26c-3.783.737-2.805 18.237-2 19 2.959 2.802 79.847 3.225 81.5-.5.662-1.492 1.777-16.489-.5-17.5l-79-1Z"/><path fill="#C7601E" d="m693 475-117 2c.251-4.635-2.027-20.384 2.5-22h112c6.614 4.438 2.5 13.468 2.5 20Z"/><path fill="#C6601F" d="M517.5 459c2.888-.547 33.763-.595 36 0 .736.196 4.252 2.766 4.5 3.5.737 2.179.675 43.801 0 46-2.333 7.597-42.455 4.311-46 0-2.57-3.125-2.337-40.279-1-45 .824-2.91 4.013-4.028 6.5-4.5Z"/><path fill="#C7611F" d="M459.5 460c4.641-1.411 31.319.409 33.5 4.5 1.24 2.325 1.76 34.646 1 38-2.401 10.595-35.128 9.389-38 4-1.035-1.941-.822-41.959 0-44 .213-.528 3.015-2.353 3.5-2.5Z"/><path fill="#E3B059" d="M693 475c0 5.38.63 8.909 2 14-8.561 1.423-17.005 6.071-26 7-4.509.466-11.653.467-16-1 4.44-2.637 16.177-6.28 6.5-13-4.933-3.426-30.99-3.877-37.5-3l-46-1c.016-.332-.018-.668 0-1l117-2Z"/><path fill="#C55F1E" d="M622 479c-15.155 2.042-33.632 16.051-33 32.5.828 1.169 9.095.959 10.5 1.5 4.534 1.745 2.859 4.144 3.5 5-6.979-2.351-23.18 3.849-27-3.5-2.886-5.551-.366-29.056 0-36.5l46 1Z"/><path fill="#661A20" d="M653 495c-11.676 6.933-25.72 14.239-38.5 19-1.048.652-.186 2.461-.5 3-1.433 2.454-4.183 5.143-.5 9 1.443.564 9.583-5.936 11.5-7 14.496-8.047 29.311-15.34 44-23 8.995-.929 17.439-5.577 26-7 5.266-.876 10.672-1.494 16-2 19.952-1.895 33.58-.918 53 3 28.137 5.676 52.847 18.898 75.5 36l3.5-6.5-1.5-1.5c-11.134-6.846-35.836-15.447-45-23-9.655-7.958 9.688-13.264 16-14 28.311-3.299 56.825 13.628 51.5 45.5-1.786 10.692-3.703 4.554-6 4.5l-8.5-10c-.536.116-5.49 8.951-5.5 9.5-.044 2.367 1.895 1.306 2 1.5 3.167 5.861 13.444 13.995 18 20 71.254 93.91 33.778 219.767-72 265.5l107.5-.5c9.308 2.706 12.066 9.833 4 16-267.371 3.979-535.54 2.015-803 1-13.195-3.724-8.575-14.945 2-17 28.006-5.443 90.628 1.131 122.5 1 145.795-.599 291.667-1.633 437.5-1-16.219-9.832-35.251-19.323-49.5-32-11.01-9.796-33.581-38.022-40-51-7.262-14.681-12.711-38.655-15-55-.592-4.227-2.877-14.188-3-17-.146-3.334.839-10.783 1-15 .025-.659-.036-1.342 0-2 .117-2.167.74-5.431 1-8 .217-2.146.828-3.662 1-5 .243-1.892-.303-4.168 0-6 .32-1.934 2.387-7.251 3-10 .548-2.457.782-9.223 1-10 .049-.174 1.59-1.689 2-3 .932-2.979 2.82-6.871 4-10 .602-1.597.726-3.327 1-4 .765-1.878 1.512-4.935 2-6 .279-.609 2.075-3.171 3-5 1.472-2.913 3.361-6.14 5-9 .943-1.646 2.004-3.38 3-5 1.804-2.936 4.049-6.107 6-9 .833-1.235 2.025-2.603 3-4 2.385-3.418 5.492-6.591 8-10 .991-1.347 2.021-2.644 3-4 2.401-3.325 6.055-4.579 6-8-.059-3.677-2.811-8.075-5-11-.641-.856 1.034-3.255-3.5-5-1.405-.541-9.672-.331-10.5-1.5-.632-16.449 17.845-30.458 33-32.5 6.51-.877 32.567-.426 37.5 3 9.677 6.72-2.06 10.363-6.5 13Zm67.5 27c-163.184 6.031-170.685 259.538-5 273 184.407 14.983 203.988-280.354 5-273Z"/><path fill="#F2E8AC" d="m337.5 481 79 1c2.277 1.011 1.162 16.008.5 17.5-1.653 3.725-78.541 3.302-81.5.5-.805-.763-1.783-18.263 2-19Z"/><path fill="#C4621E" d="M669 496c-14.689 7.66-29.504 14.953-44 23l-11-2c.314-.539-.548-2.348.5-3 12.78-4.761 26.824-12.067 38.5-19 4.347 1.467 11.491 1.466 16 1Z"/><path fill="#EACB78" d="M625 519c-1.917 1.064-10.057 7.564-11.5 7-3.683-3.857-.933-6.546.5-9l11 2Z"/><path fill="#FCFBFB" d="M858 531c-3.868-.091-8.144.226-12 1-.105-.194-2.044.867-2-1.5.01-.549 4.964-9.384 5.5-9.5l8.5 10Z"/><path fill="#C6611F" d="M442 525c-.142.744-.657 1.319-1 2-10.46 20.749 2.912 99.807-3 126.5-.26 1.176-2.243 5.051-3.5 5.5l-140 1c-4.348-1.423-4.176-18.116-4.5-23.5-1.287-21.382-.722-47.921 0-69.5.217-6.471.622-38.298 2-41.5.408-.948 2.774-2.393 3.5-3.5h144c1.136.646 1.825 2.307 2.5 3Zm-141.5 5c-4.386 2.618-1.632 19.901 1 21l131.5-.5c-.741-4.562 2.008-17.752-2.5-19.5l-130-1Zm111 43c-27.74-.74-56.148 2.63-84 1-1.964.872-2.088 16.178-1.5 17.5 1.88 4.228 82.14.823 92.5 2.5l.5-19.5c-1.735-2.365-5.004-1.433-7.5-1.5Zm-103 39c-3.014 1.024.205 18.443 1 19 4.484 3.142 96.976.172 109.5-1.5l-2.5-16.5-108-1Z"/><path fill="#6EA8AE" d="M720.5 522c198.988-7.354 179.407 287.983-5 273-165.685-13.462-158.184-266.969 5-273Zm12 7c-15.348-1.854-6.657 28.532-6.5 36.5.481 24.369-1.643 48.628-1 73-31.657 16.914-7.126 56.171 19.5 30.5l74-4 2.5-2.5c.003-2.014-12.882-4.992-15.5-5.5-17.233-3.346-41.484-1.674-57-5-4.889-1.048-11.088-8.922-15.5-11.5 2.557-22.919-3.744-49.759-2-72 .971-12.378 5.631-9.218 7-15 1.245-5.262 1.282-23.681-5.5-24.5Zm-89 32c-1.701.14-6.913 9.393-6.5 11.5.184.937 12.57 13.284 13.5 13.5 4.703 1.092 9.831-5.365 11.5-9.5-.166-1.337-17.283-15.6-18.5-15.5Zm173 5c-2.353.093-16.617 16.303-16.5 17.5.095.969 3.925 2.88 5 4 .274.285-.787 3.413 1.5 4.5 6.056 2.879 20.12-13.161 18.5-19.5-.306-1.199-7.527-6.538-8.5-6.5Zm-216 83c-4.162 1.615-2.35 12.9 0 14 1.939.908 22.38 1.407 23.5-.5.326-.554.148-11.722-.5-12.5-.788-.947-21.33-1.648-23-1Zm244 3c-32.519.168-6.878 20.162 9 14 3.666-1.423 3.665-12.578 0-14-1.078-.418-7.056-.01-9 0Zm-193 76c-1.203 0-17.28 15.318-17.5 16.5-.486 2.615 6.056 10.259 9.5 9.5 1.139-.251 12.745-15.343 16.5-16.5.114-1.096-7.863-9.5-8.5-9.5Zm150 2c-.837.008-7.347 5.792-7.5 6.5 3.608 8.497 16.031 24.877 25 12 .179-1.944-15.386-18.52-17.5-18.5Zm-79 32c.942 7.86-6.737 25.061 6 24 10.068-.839 11.106-31.236-6-24Z"/><path fill="#BBA877" d="M444 527c-.733-.24-2.065.143-3 0 .343-.681.858-1.256 1-2 .314.323 2.164.786 2 2Z"/><path fill="#9BC9CE" d="M444 527c1.374.449 1.594 2.174 5 2l2 129.5 104 3.5c.123 2.812 2.408 12.773 3 17-6.37 1.72-28.753-3.363-31 3.5-.669 2.044-1.562 40.924-1 43 2.44 9.007 34.986 5.494 43 9.5l-280.5-8c-8.407-3.037-10.459-6.577-11.5-15-5.304-42.909-1.237-116.061-1-162l14 17c-.722 21.579-1.287 48.118 0 69.5.324 5.384.152 22.077 4.5 23.5l140-1c1.257-.449 3.24-4.324 3.5-5.5 5.912-26.693-7.46-105.751 3-126.5.935.143 2.267-.24 3 0ZM298.5 667c-1.712.442-5.058 3.788-5.5 5.5-.709 2.745-2.616 39.042-2 41 1.726 5.49 35.765 6.557 40.5 4.5 6.86-2.98 7.373-39.963 5.5-45.5-1.448-4.281-33.836-6.704-38.5-5.5Zm62 7c-6.465 2.04-6.431 42.162-1 44h130c4.249-1.391 5.956-33.052 4.5-37.5-.077-.235-3.265-3.423-3.5-3.5l-130-3Z"/><path fill="#C6601E" d="M608 529c.055 3.421-3.599 4.675-6 8l-148 2.5 1.5 4.5 143.5-3c-2.508 3.409-5.615 6.582-8 10l-137 1.5.5 3.5 133.5-1c-1.951 2.893-4.196 6.064-6 9-14.565 2.262-123.95-3.456-128 1.5-.593.726.095 3.879 1.5 4.5l123.5-1c-1.639 2.86-3.528 6.087-5 9-14.137 1.42-115.427-5.258-119-.5-.212.282-.207 4 .5 4.5l115.5 1c-.488 1.065-1.235 4.122-2 6l-114 2.5 113 1.5c-1.18 3.129-3.068 7.021-4 10l-109 1.5 107 1.5c-.218.777-.452 7.543-1 10l-107 .5.5 9.5H558c-.303 1.832.243 4.108 0 6-10.645 5.841-102.54-1.494-104 3.5-.408 1.394-.011 3.801 1.5 4.5l101.5-3c-.26 2.569-.883 5.833-1 8l-101 3.5 101-1.5c-.161 4.217-1.146 11.666-1 15l-104-3.5-2-129.5c12.361-.632 25.844-2.122 39.5-2 39.788.356 79.802 1.584 119.5 2Z"/><path fill="#651A1F" d="M732.5 529c6.782.819 6.745 19.238 5.5 24.5-1.369 5.782-6.029 2.622-7 15-1.744 22.241 4.557 49.081 2 72 4.412 2.578 10.611 10.452 15.5 11.5 15.516 3.326 39.767 1.654 57 5 2.618.508 15.503 3.486 15.5 5.5l-2.5 2.5-74 4c-26.626 25.671-51.157-13.586-19.5-30.5-.643-24.372 1.481-48.631 1-73-.157-7.968-8.848-38.354 6.5-36.5Z"/><path fill="#F2E8AE" d="m300.5 530 130 1c4.508 1.748 1.759 14.938 2.5 19.5l-131.5.5c-2.632-1.099-5.386-18.382-1-21Z"/><path fill="#E2B056" d="M602 537c-.979 1.356-2.009 2.653-3 4l-143.5 3-1.5-4.5 148-2.5Z"/><path fill="#E8CE6F" d="M219 814c-49.618-15.028-95.307-36.44-110-91.5-16.834-63.083 26.33-138.816 76-175.5.195 74.478-.96 149.045 1 223.5 4.279 20.288 17.91 31.31 33 43.5Z"/><path fill="#E2B65A" d="M591 551c-.975 1.397-2.167 2.765-3 4l-133.5 1-.5-3.5 137-1.5Z"/><path fill="#64191F" d="M643.5 561c1.217-.1 18.334 14.163 18.5 15.5-1.669 4.135-6.797 10.592-11.5 9.5-.93-.216-13.316-12.563-13.5-13.5-.413-2.107 4.799-11.36 6.5-11.5Z"/><path fill="#E2AE5A" d="M582 564c-.996 1.62-2.057 3.354-3 5l-123.5 1c-1.405-.621-2.093-3.774-1.5-4.5 4.05-4.956 113.435.762 128-1.5Z"/><path fill="#641A1F" d="M816.5 566c.973-.038 8.194 5.301 8.5 6.5 1.62 6.339-12.444 22.379-18.5 19.5-2.287-1.087-1.226-4.215-1.5-4.5-1.075-1.12-4.905-3.031-5-4-.117-1.197 14.147-17.407 16.5-17.5Z"/><path fill="#F2E7AC" d="M411.5 573c2.496.067 5.765-.865 7.5 1.5l-.5 19.5c-10.36-1.677-90.62 1.728-92.5-2.5-.588-1.322-.464-16.628 1.5-17.5 27.852 1.63 56.26-1.74 84-1Z"/><path fill="#E2AE54" d="M574 578c-.925 1.829-2.721 4.391-3 5l-115.5-1c-.707-.5-.712-4.218-.5-4.5 3.573-4.758 104.863 1.92 119 .5Z"/><path fill="#E0AE57" d="M569 589c-.274.673-.398 2.403-1 4l-113-1.5 114-2.5Z"/><path fill="#E3AE56" d="M564 603c-.41 1.311-1.951 2.826-2 3l-107-1.5 109-1.5Z"/><path fill="#F2E8AE" d="m308.5 612 108 1 2.5 16.5c-12.524 1.672-105.016 4.642-109.5 1.5-.795-.557-4.014-17.976-1-19Z"/><path fill="#E3AE59" d="M561 616c-.613 2.749-2.68 8.066-3 10H454.5l-.5-9.5 107-.5Z"/><path fill="#E1AD52" d="M558 632c-.172 1.338-.783 2.854-1 5l-101.5 3c-1.511-.699-1.908-3.106-1.5-4.5 1.46-4.994 93.355 2.341 104-3.5Z"/><path fill="#DEAE53" d="M556 645c-.036.658.025 1.341 0 2l-101 1.5 101-3.5Z"/><path fill="#64191E" d="M600.5 649c1.67-.648 22.212.053 23 1 .648.778.826 11.946.5 12.5-1.12 1.907-21.561 1.408-23.5.5-2.35-1.1-4.162-12.385 0-14Z"/><path fill="#641A1F" d="M844.5 652c1.944-.01 7.922-.418 9 0 3.665 1.422 3.666 12.577 0 14-15.878 6.162-41.519-13.832-9-14Z"/><path fill="#C6601F" d="M298.5 667c4.664-1.204 37.052 1.219 38.5 5.5 1.873 5.537 1.36 42.52-5.5 45.5-4.735 2.057-38.774.99-40.5-4.5-.616-1.958 1.291-38.255 2-41 .442-1.712 3.788-5.058 5.5-5.5Z"/><path fill="#E89825" d="M277 712c1.041 8.423 3.093 11.963 11.5 15l280.5 8 4-1c6.419 12.978 28.99 41.204 40 51-6.314 1.375-14.989 1.787-21.5 2-115.458 3.782-233.604-1-349-3-47.356-17.827-35.115-71.899-35.5-113 18.734 19.984 44.066 33.328 70 41Z"/><path fill="#C66020" d="m360.5 674 130 3c.235.077 3.423 3.265 3.5 3.5 1.456 4.448-.251 36.109-4.5 37.5h-130c-5.431-1.838-5.465-41.96 1-44Z"/><path fill="#C6601F" d="M558 679c2.289 16.345 7.738 40.319 15 55l-4 1c-8.014-4.006-40.56-.493-43-9.5-.562-2.076.331-40.956 1-43 2.247-6.863 24.63-1.78 31-3.5Z"/><path fill="#63171D" d="M651.5 728c.637 0 8.614 8.404 8.5 9.5-3.755 1.157-15.361 16.249-16.5 16.5-3.444.759-9.986-6.885-9.5-9.5.22-1.182 16.297-16.5 17.5-16.5Z"/><path fill="#63171E" d="M801.5 730c2.114-.02 17.679 16.556 17.5 18.5-8.969 12.877-21.392-3.503-25-12 .153-.708 6.663-6.492 7.5-6.5Z"/><path fill="#63191E" d="M722.5 762c17.106-7.236 16.068 23.161 6 24-12.737 1.061-5.058-16.14-6-24Z"/></svg>