<svg xmlns="http://www.w3.org/2000/svg" width="1024" height="1024"><path fill="none" d="M1023-1v1024H-1V-1h1024ZM401 170c-19.256 13.616-43.718 14.761-65.5 22-69.538 23.111-179.45 75.883-207.5 148.5-4.388 11.361-4.615 24.223-8 34-3.435 9.92-17.571 28.183-23 40-35.875 78.08-41.55 194.981-17 277 2.806 9.375 11.067 22.682 13 31 3.678 15.823.416 35.94 9 51.5-10.936 4.129-22.216 10.734-33 15.5 14.28 31.198 14.002 65.219 8 98.5-10.263.663-21.186.941-28 10.5-8.979 12.597-2.29 23.489 9.5 30.5 129.69 9.221 262.276 1.421 393 4 40.128 16.213 89.803 16.576 130 0h368c30.483-3.912 40.037-41.381 8.5-45-6.769-32.64-7.453-68.047 8-98.5-.673-3.382-56.775-23.292-64-25.5 5.058-9.311 4.863-22.209 8-31.5 3.746-11.094 11.745-22.561 15-35 14.101-53.885-3.977-100.457-44.5-136.5-10.595 19.09-33.372 31.422-53 17-12.935-9.504-19.302-36.73-3-45 17.935-9.099 20.243 13.939 38 11 31.977-5.293 14.497-90.731 8.5-111.5C841.653 330.864 750.179 235.87 653 197c-15.809-65.218-51.131-113.204-123.5-119-81.351-6.516-103.302 22.996-128.5 92Zm428.5-27c-68.347 8.539-64.5 132.365 18 124 80.842-8.197 73.397-135.419-18-124Zm-674 27c-42.409 5.784-43.324 72.629-2 79 63.698 9.821 66.138-87.747 2-79Z"/><path fill="#7E282E" d="M653 197c2.126 8.769 1.661 18.792 4 28-2.647.309-5.995-.438-8.5 0-11.811 2.064-20.462 14.031-25.5 24 2.362-34.73-41.933-54.389-69-34-35.731-2.709-69.039-18.913-92.5-46-5.129 17.294-13.454 31.908-24.5 46-2.514 1.976-6.341 7.022-8 10-4.569-.613-8.014 13.473-9.5 14-41.635-45.064-51.301 33.789-14 44 2.78.761 13.007.155 15 1 1.96.831 17.752 29.306 23.5 35.5 5.419 5.839 18.246 16.669 25 20.5 1.058 5.343-1.002 12.233-1 17-43.825 2.765-128.827-2.699-117-66.5 4.157-22.427 25.235-45.785 34-67 7.056-17.078 9.678-36.188 16-53.5 25.198-69.004 47.149-98.516 128.5-92 72.369 5.796 107.691 53.782 123.5 119Z"/><path fill="#EEAD33" d="M829.5 143c91.397-11.419 98.842 115.803 18 124-82.5 8.365-86.347-115.461-18-124Z"/><path fill="#DC742D" d="M554 215c-7.639 5.755-11.755 17.637-15.5 26-9.037-7.903-22.47-5.994-32 0-6.398-32.876-43.283-46.608-69.5-26 11.046-14.092 19.371-28.706 24.5-46 23.461 27.087 56.769 43.291 92.5 46Z"/><path fill="#EEAC32" d="M155.5 170c64.138-8.747 61.698 88.821-2 79-41.324-6.371-40.409-73.216 2-79Z"/><path fill="#EEAD33" d="M401 170c-6.322 17.312-8.944 36.422-16 53.5-8.765 21.215-29.843 44.573-34 67-11.827 63.801 73.175 69.265 117 66.5.003 6.557 2.061 13.754 1 20.5-1.216 2.553-7.589 1.754-9.5 2.5-2.756 1.076-2.318 2.93-2.5 3-.399.154-5.748-.142-8.5 1-3.657 1.518-10.006 6.397-11.5 7-17.833 7.197-38.238 11.136-55 22-.956-.173-4.254-1.995-4.5-2-9.055-.202-28.629 17.382-35.5 23-.174.142-1.912-2.28-4.5 0-10.975 9.668-30.462 51.209-38.5 66.5-14.657 27.883-66.724 124.883-69 150-2.653 29.277 15.369 54.879 46.5 51.5 28.04-3.044 49.3-39.966 70-56l-4.5 99c-76.053-10.781-168.264 1.914-240 29-8.584-15.56-5.322-35.677-9-51.5-1.933-8.318-10.194-21.625-13-31-24.55-82.019-18.875-198.92 17-277 5.429-11.817 19.565-30.08 23-40 3.385-9.777 3.612-22.639 8-34 28.05-72.617 137.962-125.389 207.5-148.5 21.782-7.239 46.244-8.384 65.5-22ZM212.5 343c-47.293 3.746-46.882 84.338 11 76 46.191-6.654 38.912-79.953-11-76Zm-62 187c-30.398 4.552-31.044 50.832-2 58 48.808 12.047 53.041-65.643 2-58Zm50 162c-29.679 1.168-32.798 43.179 0 47 37.331 4.349 30.65-48.206 0-47ZM902 764c-66.244-20.241-142.032-29.198-211-19l-1-105c.35-.593.896-1.318 1-2 26.196 26.217 55.138 85.804 100.5 56 19.619-12.89 25.397-36.495 19.5-58.5-5.444-20.315-37.795-80.495-49-103-17.234-34.616-34.1-77.708-63-100.5-9.743-7.683-21.077-20.811-34.5-20-.829.05-6.654 2.58-8.5 3-15.272-13.137-35.06-17.647-53-25-7.669-3.143-11.561-5.047-20-8-4.213-1.474-8.379-3.675-13-4.5-.258-6.473.353-13.049 0-19.5 45.322 1.692 131.263-10.652 108-75.5-3.188-8.888-11.898-20.079-14-29.5-1.22-5.47.492-11.619-1-17.5-.997-3.93-5.41-8.176-6-10.5-2.339-9.208-1.874-19.231-4-28 97.179 38.87 188.653 133.864 218 235.5 5.997 20.769 23.477 106.207-8.5 111.5-17.757 2.939-20.065-20.099-38-11-16.302 8.27-9.935 35.496 3 45 19.628 14.422 42.405 2.09 53-17 40.523 36.043 58.601 82.615 44.5 136.5-3.255 12.439-11.254 23.906-15 35-3.137 9.291-2.942 22.189-8 31.5ZM730.5 321c-28.297 3.687-28.87 48.238-3 53 43.082 7.93 42.345-58.126 3-53Z"/><path fill="#FDFCFA" d="M554 215c27.067-20.389 71.362-.73 69 34-5.431 10.746-1.351 16.425-14.5 27-22.89 18.409-53.458 13.525-67.5-12.5-4.186-7.759-1.372-18.099-14.5-20.5-20.923-3.826-18.882 13.62-25.5 25.5-24.231 43.501-101.462 9.393-72-43.5 1.659-2.978 5.486-8.024 8-10 26.217-20.608 63.102-6.876 69.5 26 9.53-5.994 22.963-7.903 32 0 3.745-8.363 7.861-20.245 15.5-26Zm-99 65c8.321 1.847 16.069 1.517 24-1 32.217-10.224 25.765-69.032-16.5-67-39.56 1.902-46.533 59.334-7.5 68Zm112-1c12.099 3.722 14.173 2.18 25-2 43.67-16.859 21.976-68.462-17.5-64-33.956 3.838-40.943 55.713-7.5 66Z"/><path fill="#DB752E" d="M479 279c6.835-20.479-33.161-20.434-24 1-39.033-8.666-32.06-66.098 7.5-68 42.265-2.032 48.717 56.776 16.5 67Zm-16.5-53c-9.343 2.037-9.326 26.577 6 23 10.07-2.35 8.236-26.104-6-23ZM592 277c1.693-18.379-29.646-17.174-25 2-33.443-10.287-26.456-62.162 7.5-66 39.476-4.462 61.17 47.141 17.5 64Zm-19.5-51c-6.925 1.956-7.829 18.691-1 22 15.227 7.379 19.745-27.294 1-22Z"/><path fill="#DC742E" d="M429 225c-29.462 52.893 47.769 87.001 72 43.5 6.618-11.88 4.577-29.326 25.5-25.5 13.128 2.401 10.314 12.741 14.5 20.5 14.042 26.025 44.61 30.909 67.5 12.5 13.149-10.575 9.069-16.254 14.5-27 5.038-9.969 13.689-21.936 25.5-24 2.505-.438 5.853.309 8.5 0 .59 2.324 5.003 6.57 6 10.5 1.492 5.881-.22 12.03 1 17.5-8.411 11.267-6.789 25.124-22.5 30-4.69 1.456-15.31.849-19 3-2.181 1.271-13.784 22.896-17.5 27.5-9.594 11.884-21.596 20.475-35 27.5-33.644 17.634-67.68 17.899-101-1-6.754-3.831-19.581-14.661-25-20.5-5.748-6.194-21.54-34.669-23.5-35.5-1.993-.845-12.22-.239-15-1-37.301-10.211-27.635-89.064 14-44 1.486-.527 4.931-14.613 9.5-14Zm-23.5 23c-2.18 1.523 9.728 24.012 11 28 6.191.783-4.387-27.198-7-28-.467-.143-3.836-.115-4 0Zm115 1c-5.936-1.231-16.638 39.158 9 32 2.325-4.062-5.649-3.338-8-5-11.588-8.191 4.887-25.78-1-27Zm34 46c-14.505 28.101-50.189 27.49-67 2-9.138-.759 10.632 18.085 15 20 10.529 4.617 28.748 4.422 39-1 4.67-2.47 21.728-22.582 13-21Z"/><path fill="#7F272E" d="M462.5 226c14.236-3.104 16.07 20.65 6 23-15.326 3.577-15.343-20.963-6-23Z"/><path fill="#80272E" d="M572.5 226c18.745-5.294 14.227 29.379-1 22-6.829-3.309-5.925-20.044 1-22Z"/><path fill="#D5632E" d="M405.5 248c.164-.115 3.533-.143 4 0 2.613.802 13.191 28.783 7 28-1.272-3.988-13.18-26.477-11-28Z"/><path fill="#7C252E" d="M520.5 249c5.887 1.22-10.588 18.809 1 27 2.351 1.662 10.325.938 8 5-25.638 7.158-14.936-33.231-9-32Z"/><path fill="#78262C" d="M664 253c2.102 9.421 10.812 20.612 14 29.5 23.263 64.848-62.678 77.192-108 75.5-.287-5.246-3.951-12.373 0-17 13.404-7.025 25.406-15.616 35-27.5 3.716-4.604 15.319-26.229 17.5-27.5 3.69-2.151 14.31-1.544 19-3 15.711-4.876 14.089-18.733 22.5-30Z"/><path fill="#80272D" d="M479 279c-7.931 2.517-15.679 2.847-24 1-9.161-21.434 30.835-21.479 24-1Z"/><path fill="#7F272E" d="M592 277c-10.827 4.18-12.901 5.722-25 2-4.646-19.174 26.693-20.379 25-2Z"/><path fill="#7D232E" d="M554.5 295c8.728-1.582-8.33 18.53-13 21-10.252 5.422-28.471 5.617-39 1-4.368-1.915-24.138-20.759-15-20 16.811 25.49 52.495 26.101 67-2Z"/><path fill="#EFEEE5" d="M730.5 321c39.345-5.126 40.082 60.93-3 53-25.87-4.762-25.297-49.313 3-53Z"/><path fill="#CF552D" d="M570 341c-3.951 4.627-.287 11.754 0 17 .353 6.451-.258 13.027 0 19.5 4.621.825 8.787 3.026 13 4.5-21.998 38.277-103.231 39.579-126 1 .182-.07-.256-1.924 2.5-3 1.911-.746 8.284.053 9.5-2.5 1.061-6.746-.997-13.943-1-20.5-.002-4.767 2.058-11.657 1-17 33.32 18.899 67.356 18.634 101 1Z"/><path fill="#EFEEE7" d="M212.5 343c49.912-3.953 57.191 69.346 11 76-57.882 8.338-58.293-72.254-11-76Z"/><path fill="#F2E4A1" d="M457 383c22.769 38.579 104.002 37.277 126-1 8.439 2.953 12.331 4.857 20 8-37.484 47.131-129.283 50.925-166 1 1.494-.603 7.843-5.482 11.5-7 2.752-1.142 8.101-.846 8.5-1Z"/><path fill="#7F272E" d="M656 415c-31.919 7.262-69.553 20.286-101.5 30-5.241 1.594-32.182 13.083-34 13-1.476-.068-22.114-10.452-27-12-32.276-10.223-79.576-27.214-111.5-33 16.762-10.864 37.167-14.803 55-22 36.717 49.925 128.516 46.131 166-1 17.94 7.353 37.728 11.863 53 25Z"/><path fill="#F2E5A1" d="M382 413c31.924 5.786 79.224 22.777 111.5 33 4.886 1.548 25.524 11.932 27 12 1.818.083 28.759-11.406 34-13 31.947-9.714 69.581-22.738 101.5-30 1.846-.42 7.671-2.95 8.5-3 13.423-.811 24.757 12.317 34.5 20l1 6-150 39c-1.859-.691-3.005.906-4 1-.111.01.451-1.164-2-1-5.38-19.636-37.245-18.302-44-1-2.1-.256-4.369.177-6.5 0L343 437c.503-1.476-.784-1.899-1-3 6.871-5.618 26.445-23.202 35.5-23 .246.005 3.544 1.827 4.5 2Zm-23.5 10-2.5 2.5c44.284 12.101 88.587 27.863 134 36l-11.5-6.5-120-32Zm319 1c-18.699 1.631-69.595 18.549-90 25-9.272 2.931-18.797 6.078-27.5 10.5 19.081.562 38.917-9.343 57.5-14.5 21.668-6.013 43.887-10.23 65-18 4.006-3.028-2.821-3.19-5-3Z"/><path fill="#83222A" d="m358.5 423 120 32 11.5 6.5c-45.413-8.137-89.716-23.899-134-36l2.5-2.5Z"/><path fill="#852228" d="M677.5 424c2.179-.19 9.006-.028 5 3-21.113 7.77-43.332 11.987-65 18-18.583 5.157-38.419 15.062-57.5 14.5 8.703-4.422 18.228-7.569 27.5-10.5 20.405-6.451 71.301-23.369 90-25Z"/><path fill="#7F272E" d="M691 638c.729-4.767-2.656-15.723 0-22 17.385 18.226 78.55 102.215 104 55.5 18.463-33.89-25.128-63.605-47.5-83.5-4.259-3.787-32.92-25.412-33.5-27.5-2.801-10.079 10.261-51.277-15-46.5 2.829-23.905 1.074-50.35 4-74.5l-3-1.5-1-6c28.9 22.792 45.766 65.884 63 100.5 11.205 22.505 43.556 82.685 49 103 5.897 22.005.119 45.61-19.5 58.5-45.362 29.804-74.304-29.783-100.5-56Z"/><path fill="#80282E" d="M342 434c.216 1.101 1.503 1.524 1 3-3.852 11.31-1.731 61.917 0 77-25.552-1.594-10.312 35.988-13 46.5-1.273 4.976-70.2 56.825-77 68-23.316 32.7-3.401 74.184 38.5 50.5 18.177-10.274 34.723-35.778 48.5-51.5 1.382-1.577 5.385-6.967 8-5.5-.283 2.309.374 17.982 1 19.5 2.925 7.095 130.994 35.447 147.5 41.5-.496-62.161-1.444-124.424-4.5-186.5-.097-1.962-5.417-18.886 1.5-16.5.779.269 1.624 7.001 10 10 9.054 3.242 49.72 6.448 42.5-12 .995-.094 2.141-1.691 4-1l-3.5 205-.5-187.5-50-2 5 191c19.603 12.537 37.644.338 55.5-4.5 37.864-10.259 87.37-19.706 123-33 2.359-.88 9.363-4.071 10.5-6l1 105c-63.812 9.436-140.487 41.555-174.5 99-36.58-60.07-107.026-89.435-174.5-99l4.5-99c-20.7 16.034-41.96 52.956-70 56-31.131 3.379-49.153-22.223-46.5-51.5 2.276-25.117 54.343-122.117 69-150 8.038-15.291 27.525-56.832 38.5-66.5 2.588-2.28 4.326.142 4.5 0Z"/><path fill="#55969D" d="M500 476c14.615 1.784 29.272 1.986 44 1 2.451-.164 1.889 1.01 2 1 7.22 18.448-33.446 15.242-42.5 12-8.376-2.999-9.221-9.731-10-10-6.917-2.386-1.597 14.538-1.5 16.5 3.056 62.076 4.004 124.339 4.5 186.5-16.506-6.053-144.575-34.405-147.5-41.5-.626-1.518-1.283-17.191-1-19.5 1.794-14.62 31.219-28.421 42.5-38 10.794-9.166 25.629-24.665 29.5-38.5 8.412-30.06-19.165-27.791-36.5-14.5-6.702 5.138-20.772 25.774-32 16-2.183-1.901-7.985-28.509-8.5-33-1.731-15.083-3.852-65.69 0-77l150.5 39c2.131.177 4.4-.256 6.5 0Z"/><path fill="#55969D" d="m700 438 3 1.5c-2.926 24.15-1.171 50.595-4 74.5-.948 8.007-3.531 32.341-12.5 34-17.095 3.163-24.436-23.268-42-26-20.157-3.135-26.918 7.265-20.5 25.5 8.86 25.174 47.19 47.731 67 68.5-2.656 6.277.729 17.233 0 22-.104.682-.65 1.407-1 2-1.137 1.929-8.141 5.12-10.5 6-35.63 13.294-85.136 22.741-123 33-17.856 4.838-35.897 17.037-55.5 4.5l-5-191 50 2 .5 187.5 3.5-205 150-39Z"/><path fill="#EEAC34" d="M544 477c-14.728.986-29.385.784-44-1 6.755-17.302 38.62-18.636 44 1Z"/><path fill="#DB732D" d="M691 616c-19.81-20.769-58.14-43.326-67-68.5-6.418-18.235.343-28.635 20.5-25.5 17.564 2.732 24.905 29.163 42 26 8.969-1.659 11.552-25.993 12.5-34 25.261-4.777 12.199 36.421 15 46.5.58 2.088 29.241 23.713 33.5 27.5 22.372 19.895 65.963 49.61 47.5 83.5-25.45 46.715-86.615-37.274-104-55.5ZM343 514c.515 4.491 6.317 31.099 8.5 33 11.228 9.774 25.298-10.862 32-16 17.335-13.291 44.912-15.56 36.5 14.5-3.871 13.835-18.706 29.334-29.5 38.5-11.281 9.579-40.706 23.38-42.5 38-2.615-1.467-6.618 3.923-8 5.5-13.777 15.722-30.323 41.226-48.5 51.5-41.901 23.684-61.816-17.8-38.5-50.5 6.8-11.175 75.727-63.024 77-68 2.688-10.512-12.552-48.094 13-46.5Z"/><path fill="#EFEEE7" d="M150.5 530c51.041-7.643 46.808 70.047-2 58-29.044-7.168-28.398-53.448 2-58Z"/><path fill="#EEEDE5" d="M200.5 692c30.65-1.206 37.331 51.349 0 47-32.798-3.821-29.679-45.832 0-47Z"/><path fill="#F2E3A0" d="M342 745c67.474 9.565 137.92 38.93 174.5 99 34.013-57.445 110.688-89.564 174.5-99 68.968-10.198 144.756-1.241 211 19 7.225 2.208 63.327 22.118 64 25.5-15.453 30.453-14.769 65.86-8 98.5l-385.5 1c-31.875-28.395-64.875-30.581-101-9-2.694 1.609-9.66 9.575-12 10-8.759 1.589-36.108-1.972-47-2-107.595-.279-229.625-6.84-335.5 0 6.002-33.281 6.28-67.302-8-98.5 10.784-4.766 22.064-11.371 33-15.5 71.736-27.086 163.947-39.781 240-29Zm-91.5 20c-50.992 2.788-105.817 17.972-152 39 21.672-3.18 42.516-13.403 64-19 82.034-21.373 188.39-23.193 267 12 19.064 8.535 34.725 26.84 55.5 30.5-64.239-49.277-154.48-66.875-234.5-62.5Zm481 0c-51.721 2.777-116.333 19.471-161 46-9.234 5.484-22.006 13.311-27 23 89.697-69.669 218.816-78.778 326-50 22.124 5.94 43.241 17.226 65.5 20.5-63.378-28.798-133.526-43.257-203.5-39.5Zm-9 27c-43.364 2.3-89.407 14.34-127 36-5.273 3.038-12.803 7.647-17 12 68.42-41.056 149.523-51.876 228-39 35.98 5.903 70.383 19.891 105.5 27.5-58.399-25.696-125.063-39.918-189.5-36.5Zm-467 1c-38.049 2.562-77.091 14.058-113 26l-23 11c15.585-.759 29.266-9.706 44-14 84.32-24.574 184.944-31.174 265 11 4.168 2.196 24.183 18.687 26.5 15.5-51.185-45.706-133.022-53.976-199.5-49.5Zm474 31c-1.296.029-26.872 1.447-19 4 6.903 2.239 43.976-.127 56 1 31.937 2.994 63.011 14.889 94.5 17.5-41.662-13.848-87.111-23.506-131.5-22.5Zm-466 1c-27.561 1.891-58.751 10.505-84.5 19.5 12.303 2.554 23.767-4.117 35.5-6.5 37.727-7.663 75.329-10.776 114-10 1.657-1.281-1.379-2.824-2-3-5.827-1.655-54.029-.615-63 0Zm663 7c-.886 4.436 8.762 5.395 11.5 4.5l-11.5-4.5Z"/><path fill="#812026" d="M250.5 765c80.02-4.375 170.261 13.223 234.5 62.5-20.775-3.66-36.436-21.965-55.5-30.5-78.61-35.193-184.966-33.373-267-12-21.484 5.597-42.328 15.82-64 19 46.183-21.028 101.008-36.212 152-39Z"/><path fill="#801A23" d="M731.5 765c69.974-3.757 140.122 10.702 203.5 39.5-22.259-3.274-43.376-14.56-65.5-20.5-107.184-28.778-236.303-19.669-326 50 4.994-9.689 17.766-17.516 27-23 44.667-26.529 109.279-43.223 161-46Z"/><path fill="#812026" d="M722.5 792c64.437-3.418 131.101 10.804 189.5 36.5-35.117-7.609-69.52-21.597-105.5-27.5-78.477-12.876-159.58-2.056-228 39 4.197-4.353 11.727-8.962 17-12 37.593-21.66 83.636-33.7 127-36Z"/><path fill="#812128" d="M255.5 793c66.478-4.476 148.315 3.794 199.5 49.5-2.317 3.187-22.332-13.304-26.5-15.5-80.056-42.174-180.68-35.574-265-11-14.734 4.294-28.415 13.241-44 14l23-11c35.909-11.942 74.951-23.438 113-26Z"/><path fill="#801E25" d="M729.5 824c44.389-1.006 89.838 8.652 131.5 22.5-31.489-2.611-62.563-14.506-94.5-17.5-12.024-1.127-49.097 1.239-56-1-7.872-2.553 17.704-3.971 19-4Z"/><path fill="#802126" d="M263.5 825c8.971-.615 57.173-1.655 63 0 .621.176 3.657 1.719 2 3-38.671-.776-76.273 2.337-114 10-11.733 2.383-23.197 9.054-35.5 6.5 25.749-8.995 56.939-17.609 84.5-19.5Z"/><path fill="#841924" d="m926.5 832 11.5 4.5c-2.738.895-12.386-.064-11.5-4.5Z"/><path fill="#55969C" d="M958 888c31.537 3.619 21.983 41.088-8.5 45h-368c-40.197 16.576-89.872 16.213-130 0-130.724-2.579-263.31 5.221-393-4-11.79-7.011-18.479-17.903-9.5-30.5 6.814-9.559 17.737-9.837 28-10.5 105.875-6.84 227.905-.279 335.5 0 10.892.028 38.241 3.589 47 2 2.34-.425 9.306-8.391 12-10 36.125-21.581 69.125-19.395 101 9l385.5-1Z"/></svg>