<svg width="24" height="24" viewBox="0 0 24 24" fill="none" xmlns="http://www.w3.org/2000/svg">
<path fill-rule="evenodd" clip-rule="evenodd" d="M2.3749 10.8879C7.74359 8.62993 11.3236 7.14133 13.1148 6.42212C18.2292 4.36862 19.2919 4.0119 19.9846 4.00013C20.1369 3.99753 20.4776 4.03398 20.6982 4.20682C20.8845 4.35275 20.9358 4.5499 20.9603 4.68826C20.9848 4.82663 21.0154 5.14183 20.9911 5.38811C20.714 8.1992 19.5147 15.021 18.9046 18.1694C18.6465 19.5017 18.1382 19.9484 17.6461 19.9921C16.5766 20.0871 15.7645 19.3098 14.7287 18.6543C13.1078 17.6287 12.1921 16.9902 10.6188 15.9893C8.80053 14.8327 9.97923 14.1969 11.0154 13.158C11.2866 12.8861 15.9987 8.74868 16.0899 8.37335C16.1013 8.32641 16.1119 8.15143 16.0042 8.05904C15.8965 7.96664 15.7376 7.99824 15.6229 8.02337C15.4604 8.05898 12.871 9.71112 7.85486 12.9798C7.11988 13.467 6.45416 13.7044 5.8577 13.6919C5.20015 13.6782 3.93528 13.333 2.99498 13.038C1.84166 12.676 0.925027 12.4847 1.00485 11.8701C1.04642 11.55 1.5031 11.2226 2.3749 10.8879Z" stroke="#D3D3D3" stroke-width="2"/>
</svg>
